Rosario-Regular.ufo
<glyph name="exclam" format="1">
  <advance width="329"/>
  <unicode hex="0021"/>
  <outline>
    <contour>
      <point x="194" y="217" type="line"/>
      <point x="223" y="712" type="line"/>
      <point x="223" y="723"/>
      <point x="215" y="727"/>
      <point x="205" y="727" type="curve" smooth="yes"/>
      <point x="123" y="727" type="line" smooth="yes"/>
      <point x="114" y="727"/>
      <point x="106" y="723"/>
      <point x="106" y="713" type="curve"/>
      <point x="135" y="217" type="line"/>
    </contour>
    <contour>
      <point x="231" y="89"/>
      <point x="201" y="119"/>
      <point x="165" y="119" type="curve" smooth="yes"/>
      <point x="128" y="119"/>
      <point x="99" y="90"/>
      <point x="99" y="53" type="curve" smooth="yes"/>
      <point x="99" y="17"/>
      <point x="129" y="-13"/>
      <point x="165" y="-13" type="curve" smooth="yes"/>
      <point x="201" y="-13"/>
      <point x="231" y="17"/>
      <point x="231" y="53" type="curve" smooth="yes"/>
    </contour>
  </outline>
</glyph>
<glyph name="quotedbl" format="1">
  <advance width="367"/>
  <unicode hex="0022"/>
  <outline>
    <contour>
      <point x="271" y="441" type="line"/>
      <point x="273" y="449"/>
      <point x="299" y="555"/>
      <point x="299" y="556" type="curve"/>
      <point x="299" y="734" type="line"/>
      <point x="215" y="734" type="line"/>
      <point x="215" y="556" type="line" smooth="yes"/>
      <point x="215" y="554"/>
      <point x="240" y="450"/>
      <point x="242" y="441" type="curve"/>
    </contour>
    <contour>
      <point x="125" y="441" type="line"/>
      <point x="127" y="450"/>
      <point x="152" y="554"/>
      <point x="152" y="556" type="curve"/>
      <point x="152" y="734" type="line"/>
      <point x="69" y="734" type="line"/>
      <point x="69" y="556" type="line" smooth="yes"/>
      <point x="69" y="554"/>
      <point x="94" y="450"/>
      <point x="96" y="441" type="curve"/>
    </contour>
  </outline>
</glyph>
<glyph name="numbersign" format="1">
  <advance width="640"/>
  <unicode hex="0023"/>
  <outline>
    <contour>
      <point x="398" y="-5" type="line"/>
      <point x="431" y="236" type="line"/>
      <point x="564" y="236" type="line"/>
      <point x="564" y="301" type="line"/>
      <point x="440" y="301" type="line"/>
      <point x="457" y="422" type="line"/>
      <point x="588" y="422" type="line"/>
      <point x="588" y="488" type="line"/>
      <point x="465" y="488" type="line"/>
      <point x="497" y="721" type="line"/>
      <point x="426" y="721" type="line"/>
      <point x="395" y="488" type="line"/>
      <point x="283" y="488" type="line"/>
      <point x="316" y="721" type="line"/>
      <point x="243" y="721" type="line"/>
      <point x="212" y="488" type="line"/>
      <point x="78" y="488" type="line"/>
      <point x="78" y="422" type="line"/>
      <point x="203" y="422" type="line"/>
      <point x="187" y="301" type="line"/>
      <point x="52" y="301" type="line"/>
      <point x="52" y="236" type="line"/>
      <point x="178" y="236" type="line"/>
      <point x="145" y="-5" type="line"/>
      <point x="215" y="-5" type="line"/>
      <point x="249" y="236" type="line"/>
      <point x="360" y="236" type="line"/>
      <point x="327" y="-5" type="line"/>
    </contour>
    <contour>
      <point x="369" y="301" type="line"/>
      <point x="258" y="301" type="line"/>
      <point x="274" y="422" type="line"/>
      <point x="386" y="422" type="line"/>
    </contour>
  </outline>
</glyph>
<glyph name="dollar" format="1">
  <advance width="453"/>
  <unicode hex="0024"/>
  <outline>
    <contour>
      <point x="228" y="-116" type="line"/>
      <point x="237" y="-14" type="line"/>
      <point x="325" y="-7"/>
      <point x="396" y="43"/>
      <point x="396" y="138" type="curve" smooth="yes"/>
      <point x="396" y="293"/>
      <point x="162" y="267"/>
      <point x="162" y="378" type="curve" smooth="yes"/>
      <point x="162" y="430"/>
      <point x="217" y="446"/>
      <point x="260" y="446" type="curve" smooth="yes"/>
      <point x="291" y="446"/>
      <point x="331" y="429"/>
      <point x="356" y="410" type="curve"/>
      <point x="385" y="474" type="line"/>
      <point x="357" y="491"/>
      <point x="322" y="501"/>
      <point x="290" y="506" type="curve"/>
      <point x="322" y="613" type="line"/>
      <point x="250" y="613" type="line"/>
      <point x="240" y="509" type="line"/>
      <point x="156" y="505"/>
      <point x="76" y="457"/>
      <point x="76" y="364" type="curve" smooth="yes"/>
      <point x="76" y="215"/>
      <point x="309" y="232"/>
      <point x="309" y="121" type="curve" smooth="yes"/>
      <point x="309" y="65"/>
      <point x="255" y="50"/>
      <point x="209" y="50" type="curve" smooth="yes"/>
      <point x="174" y="50"/>
      <point x="132" y="70"/>
      <point x="104" y="90" type="curve"/>
      <point x="67" y="29" type="line"/>
      <point x="107" y="7"/>
      <point x="140" y="-8"/>
      <point x="186" y="-13" type="curve"/>
      <point x="155" y="-116" type="line"/>
    </contour>
  </outline>
</glyph>
<glyph name="percent" format="1">
  <advance width="863"/>
  <unicode hex="0025"/>
  <outline>
    <contour>
      <point x="771" y="-5"/>
      <point x="827" y="100"/>
      <point x="827" y="192" type="curve" smooth="yes"/>
      <point x="827" y="287"/>
      <point x="769" y="385"/>
      <point x="664" y="385" type="curve" smooth="yes"/>
      <point x="552" y="385"/>
      <point x="500" y="294"/>
      <point x="500" y="192" type="curve" smooth="yes"/>
      <point x="500" y="93"/>
      <point x="560" y="-5"/>
      <point x="668" y="-5" type="curve" smooth="yes"/>
    </contour>
    <contour>
      <point x="288" y="-13" type="line"/>
      <point x="643" y="715" type="line"/>
      <point x="210" y="715" type="line"/>
      <point x="99" y="715"/>
      <point x="46" y="622"/>
      <point x="46" y="521" type="curve" smooth="yes"/>
      <point x="46" y="422"/>
      <point x="107" y="324"/>
      <point x="215" y="324" type="curve" smooth="yes"/>
      <point x="317" y="324"/>
      <point x="373" y="430"/>
      <point x="373" y="521" type="curve" smooth="yes"/>
      <point x="373" y="570"/>
      <point x="359" y="619"/>
      <point x="328" y="657" type="curve"/>
      <point x="552" y="657" type="line"/>
      <point x="224" y="-13" type="line"/>
    </contour>
    <contour>
      <point x="603" y="54"/>
      <point x="574" y="135"/>
      <point x="574" y="188" type="curve" smooth="yes"/>
      <point x="574" y="239"/>
      <point x="601" y="328"/>
      <point x="665" y="328" type="curve" smooth="yes"/>
      <point x="729" y="328"/>
      <point x="750" y="239"/>
      <point x="750" y="190" type="curve" smooth="yes"/>
      <point x="750" y="141"/>
      <point x="731" y="54"/>
      <point x="667" y="54" type="curve" smooth="yes"/>
    </contour>
    <contour>
      <point x="149" y="383"/>
      <point x="121" y="465"/>
      <point x="121" y="517" type="curve" smooth="yes"/>
      <point x="121" y="567"/>
      <point x="148" y="657"/>
      <point x="211" y="657" type="curve" smooth="yes"/>
      <point x="275" y="657"/>
      <point x="297" y="569"/>
      <point x="297" y="519" type="curve" smooth="yes"/>
      <point x="297" y="470"/>
      <point x="277" y="383"/>
      <point x="213" y="383" type="curve" smooth="yes"/>
    </contour>
  </outline>
</glyph>
<glyph name="ampersand" format="1">
  <advance width="679"/>
  <unicode hex="0026"/>
  <outline>
    <contour>
      <point x="666" y="0" type="line"/>
      <point x="666" y="69" type="line"/>
      <point x="560" y="69"/>
      <point x="573" y="81"/>
      <point x="505" y="154" type="curve"/>
      <point x="539" y="211"/>
      <point x="559" y="275"/>
      <point x="567" y="340" type="curve"/>
      <point x="505" y="354" type="line"/>
      <point x="499" y="302"/>
      <point x="485" y="252"/>
      <point x="462" y="205" type="curve"/>
      <point x="311" y="387" type="line"/>
      <point x="371" y="426"/>
      <point x="439" y="481"/>
      <point x="439" y="560" type="curve" smooth="yes"/>
      <point x="439" y="639"/>
      <point x="369" y="684"/>
      <point x="296" y="684" type="curve" smooth="yes"/>
      <point x="219" y="684"/>
      <point x="145" y="634"/>
      <point x="145" y="551" type="curve" smooth="yes"/>
      <point x="145" y="487"/>
      <point x="166" y="444"/>
      <point x="203" y="394" type="curve"/>
      <point x="128" y="350"/>
      <point x="51" y="279"/>
      <point x="51" y="185" type="curve" smooth="yes"/>
      <point x="51" y="77"/>
      <point x="144" y="-13"/>
      <point x="251" y="-13" type="curve" smooth="yes"/>
      <point x="335" y="-13"/>
      <point x="396" y="24"/>
      <point x="452" y="83" type="curve"/>
      <point x="494" y="40"/>
      <point x="542" y="0"/>
      <point x="605" y="0" type="curve" smooth="yes"/>
    </contour>
    <contour>
      <point x="250" y="471"/>
      <point x="226" y="510"/>
      <point x="226" y="553" type="curve" smooth="yes"/>
      <point x="226" y="593"/>
      <point x="253" y="627"/>
      <point x="295" y="627" type="curve" smooth="yes"/>
      <point x="335" y="627"/>
      <point x="361" y="596"/>
      <point x="361" y="557" type="curve" smooth="yes"/>
      <point x="361" y="504"/>
      <point x="316" y="463"/>
      <point x="275" y="437" type="curve"/>
    </contour>
    <contour>
      <point x="371" y="96"/>
      <point x="323" y="66"/>
      <point x="269" y="66" type="curve" smooth="yes"/>
      <point x="195" y="66"/>
      <point x="136" y="116"/>
      <point x="136" y="192" type="curve" smooth="yes"/>
      <point x="136" y="258"/>
      <point x="185" y="311"/>
      <point x="237" y="345" type="curve"/>
      <point x="293" y="273"/>
      <point x="350" y="201"/>
      <point x="409" y="131" type="curve"/>
    </contour>
  </outline>
</glyph>
<glyph name="quotesingle" format="1">
  <advance width="226"/>
  <unicode hex="0027"/>
  <outline>
    <contour>
      <point x="127" y="445" type="line"/>
      <point x="129" y="454"/>
      <point x="155" y="558"/>
      <point x="155" y="560" type="curve"/>
      <point x="155" y="738" type="line"/>
      <point x="71" y="738" type="line"/>
      <point x="71" y="560" type="line" smooth="yes"/>
      <point x="71" y="558"/>
      <point x="96" y="454"/>
      <point x="98" y="445" type="curve"/>
    </contour>
  </outline>
</glyph>
<glyph name="parenleft" format="1">
  <advance width="306"/>
  <unicode hex="0028"/>
  <outline>
    <contour>
      <point x="285" y="-129" type="line"/>
      <point x="181" y="-1"/>
      <point x="132" y="138"/>
      <point x="132" y="302" type="curve" smooth="yes"/>
      <point x="132" y="466"/>
      <point x="181" y="605"/>
      <point x="285" y="733" type="curve"/>
      <point x="218" y="743" type="line"/>
      <point x="111" y="620"/>
      <point x="44" y="466"/>
      <point x="44" y="302" type="curve" smooth="yes"/>
      <point x="44" y="138"/>
      <point x="112" y="-15"/>
      <point x="218" y="-138" type="curve"/>
    </contour>
  </outline>
</glyph>
<glyph name="asterisk" format="1">
  <advance width="510"/>
  <unicode hex="002A"/>
  <outline>
    <contour>
      <point x="437" y="569" type="line"/>
      <point x="408" y="647" type="line"/>
      <point x="287" y="583" type="line"/>
      <point x="300" y="541" type="line"/>
    </contour>
    <contour>
      <point x="273" y="591" type="line"/>
      <point x="290" y="731" type="line"/>
      <point x="212" y="731" type="line"/>
      <point x="232" y="591" type="line"/>
    </contour>
    <contour>
      <point x="392" y="427" type="line"/>
      <point x="294" y="526" type="line"/>
      <point x="261" y="503" type="line"/>
      <point x="329" y="379" type="line"/>
    </contour>
    <contour>
      <point x="208" y="546" type="line"/>
      <point x="221" y="582" type="line"/>
      <point x="93" y="643" type="line"/>
      <point x="72" y="567" type="line"/>
    </contour>
    <contour>
      <point x="178" y="381" type="line"/>
      <point x="246" y="503" type="line"/>
      <point x="212" y="530" type="line"/>
      <point x="117" y="426" type="line"/>
    </contour>
  </outline>
</glyph>
<glyph name="comma" format="1">
  <advance width="235"/>
  <unicode hex="002C"/>
  <outline>
    <contour>
      <point x="57" y="-104"/>
      <point x="70" y="-117"/>
      <point x="81" y="-127" type="curve"/>
      <point x="135" y="-88"/>
      <point x="183" y="-30"/>
      <point x="183" y="39" type="curve" smooth="yes"/>
      <point x="183" y="84"/>
      <point x="156" y="124"/>
      <point x="108" y="124" type="curve" smooth="yes"/>
      <point x="74" y="124"/>
      <point x="46" y="98"/>
      <point x="46" y="64" type="curve" smooth="yes"/>
      <point x="46" y="14"/>
      <point x="96" y="5"/>
      <point x="96" y="-22" type="curve" smooth="yes"/>
      <point x="96" y="-48"/>
      <point x="64" y="-75"/>
      <point x="47" y="-93" type="curve"/>
    </contour>
  </outline>
</glyph>
<glyph name="hyphen" format="1">
  <advance width="313"/>
  <unicode hex="002D"/>
  <outline>
    <contour>
      <point x="272" y="224" type="line"/>
      <point x="272" y="299" type="line"/>
      <point x="41" y="299" type="line"/>
      <point x="41" y="224" type="line"/>
    </contour>
  </outline>
</glyph>
<glyph name="zero" format="1">
  <advance width="578"/>
  <unicode hex="0030"/>
  <outline>
    <contour>
      <point x="440" y="-13"/>
      <point x="531" y="105"/>
      <point x="531" y="248" type="curve" smooth="yes"/>
      <point x="531" y="391"/>
      <point x="440" y="509"/>
      <point x="290" y="509" type="curve" smooth="yes"/>
      <point x="139" y="509"/>
      <point x="49" y="392"/>
      <point x="49" y="248" type="curve" smooth="yes"/>
      <point x="49" y="105"/>
      <point x="140" y="-13"/>
      <point x="290" y="-13" type="curve" smooth="yes"/>
    </contour>
    <contour>
      <point x="170" y="50"/>
      <point x="139" y="145"/>
      <point x="139" y="248" type="curve" smooth="yes"/>
      <point x="139" y="350"/>
      <point x="171" y="446"/>
      <point x="290" y="446" type="curve" smooth="yes"/>
      <point x="411" y="446"/>
      <point x="440" y="351"/>
      <point x="440" y="248" type="curve" smooth="yes"/>
      <point x="440" y="145"/>
      <point x="411" y="50"/>
      <point x="290" y="50" type="curve" smooth="yes"/>
    </contour>
  </outline>
</glyph>
<glyph name="two" format="1">
  <advance width="469"/>
  <unicode hex="0032"/>
  <outline>
    <contour>
      <point x="425" y="-1" type="line"/>
      <point x="445" y="68" type="line"/>
      <point x="141" y="68" type="line"/>
      <point x="297" y="202" type="line" smooth="yes"/>
      <point x="347" y="245"/>
      <point x="404" y="304"/>
      <point x="404" y="375" type="curve" smooth="yes"/>
      <point x="404" y="462"/>
      <point x="332" y="509"/>
      <point x="251" y="509" type="curve" smooth="yes"/>
      <point x="183" y="509"/>
      <point x="105" y="475"/>
      <point x="57" y="427" type="curve"/>
      <point x="98" y="381" type="line"/>
      <point x="137" y="413"/>
      <point x="188" y="446"/>
      <point x="240" y="446" type="curve" smooth="yes"/>
      <point x="281" y="446"/>
      <point x="309" y="414"/>
      <point x="309" y="374" type="curve" smooth="yes"/>
      <point x="309" y="339"/>
      <point x="290" y="308"/>
      <point x="266" y="284" type="curve" smooth="yes"/>
      <point x="34" y="52" type="line"/>
      <point x="34" y="-1" type="line"/>
    </contour>
  </outline>
</glyph>
<glyph name="three" format="1">
  <advance width="410"/>
  <unicode hex="0033"/>
  <outline>
    <contour>
      <point x="-46" y="-196" type="line"/>
      <point x="120" y="-196"/>
      <point x="362" y="-126"/>
      <point x="362" y="77" type="curve" smooth="yes"/>
      <point x="362" y="164"/>
      <point x="315" y="234"/>
      <point x="225" y="227" type="curve" smooth="yes"/>
      <point x="212" y="226" type="line"/>
      <point x="265" y="260"/>
      <point x="346" y="330"/>
      <point x="346" y="399" type="curve" smooth="yes"/>
      <point x="346" y="470"/>
      <point x="299" y="509"/>
      <point x="230" y="509" type="curve" smooth="yes"/>
      <point x="150" y="509"/>
      <point x="107" y="485"/>
      <point x="43" y="436" type="curve"/>
      <point x="90" y="397" type="line"/>
      <point x="117" y="422"/>
      <point x="168" y="447"/>
      <point x="204" y="447" type="curve" smooth="yes"/>
      <point x="235" y="447"/>
      <point x="255" y="430"/>
      <point x="255" y="398" type="curve" smooth="yes"/>
      <point x="255" y="315"/>
      <point x="148" y="238"/>
      <point x="82" y="207" type="curve"/>
      <point x="109" y="151" type="line"/>
      <point x="130" y="158"/>
      <point x="156" y="162"/>
      <point x="178" y="162" type="curve" smooth="yes"/>
      <point x="237" y="162"/>
      <point x="271" y="133"/>
      <point x="271" y="72" type="curve" smooth="yes"/>
      <point x="271" y="-68"/>
      <point x="59" y="-142"/>
      <point x="-55" y="-142" type="curve"/>
    </contour>
  </outline>
</glyph>
<glyph name="four" format="1">
  <advance width="497"/>
  <unicode hex="0034"/>
  <outline>
    <contour>
      <point x="387" y="-185" type="line"/>
      <point x="387" y="0" type="line"/>
      <point x="470" y="0" type="line"/>
      <point x="488" y="69" type="line"/>
      <point x="387" y="69" type="line"/>
      <point x="387" y="498" type="line"/>
      <point x="289" y="498" type="line"/>
      <point x="12" y="40" type="line"/>
      <point x="12" y="0" type="line"/>
      <point x="304" y="0" type="line"/>
      <point x="304" y="-185" type="line"/>
    </contour>
    <contour>
      <point x="304" y="69" type="line"/>
      <point x="104" y="69" type="line"/>
      <point x="304" y="399" type="line"/>
    </contour>
  </outline>
</glyph>
<glyph name="five" format="1">
  <advance width="377"/>
  <unicode hex="0035"/>
  <outline>
    <contour>
      <point x="10" y="-209" type="line"/>
      <point x="158" y="-186"/>
      <point x="305" y="-82"/>
      <point x="305" y="80" type="curve" smooth="yes"/>
      <point x="305" y="190"/>
      <point x="226" y="281"/>
      <point x="131" y="328" type="curve"/>
      <point x="166" y="412" type="line"/>
      <point x="343" y="412" type="line"/>
      <point x="367" y="497" type="line"/>
      <point x="131" y="497" type="line"/>
      <point x="40" y="283" type="line"/>
      <point x="118" y="247"/>
      <point x="215" y="168"/>
      <point x="215" y="74" type="curve" smooth="yes"/>
      <point x="215" y="-59"/>
      <point x="106" y="-122"/>
      <point x="-6" y="-157" type="curve"/>
    </contour>
  </outline>
</glyph>
<glyph name="six" format="1">
  <advance width="536"/>
  <unicode hex="0036"/>
  <outline>
    <contour>
      <point x="449" y="732" type="line"/>
      <point x="405" y="720"/>
      <point x="358" y="694"/>
      <point x="320" y="670" type="curve" smooth="yes"/>
      <point x="166" y="573"/>
      <point x="49" y="424"/>
      <point x="49" y="235" type="curve" smooth="yes"/>
      <point x="49" y="105"/>
      <point x="134" y="-13"/>
      <point x="272" y="-13" type="curve" smooth="yes"/>
      <point x="397" y="-13"/>
      <point x="488" y="76"/>
      <point x="488" y="202" type="curve" smooth="yes"/>
      <point x="488" y="312"/>
      <point x="413" y="405"/>
      <point x="299" y="405" type="curve" smooth="yes"/>
      <point x="249" y="405"/>
      <point x="196" y="386"/>
      <point x="157" y="354" type="curve"/>
      <point x="200" y="507"/>
      <point x="327" y="621"/>
      <point x="470" y="681" type="curve"/>
    </contour>
    <contour>
      <point x="177" y="306"/>
      <point x="224" y="337"/>
      <point x="276" y="337" type="curve" smooth="yes"/>
      <point x="352" y="337"/>
      <point x="397" y="274"/>
      <point x="397" y="202" type="curve" smooth="yes"/>
      <point x="397" y="125"/>
      <point x="360" y="50"/>
      <point x="274" y="50" type="curve" smooth="yes"/>
      <point x="177" y="50"/>
      <point x="141" y="150"/>
      <point x="141" y="232" type="curve" smooth="yes"/>
      <point x="141" y="245"/>
      <point x="141" y="257"/>
      <point x="142" y="270" type="curve"/>
    </contour>
  </outline>
</glyph>
<glyph name="seven" format="1">
  <advance width="425"/>
  <unicode hex="0037"/>
  <outline>
    <contour>
      <point x="127" y="-185" type="line"/>
      <point x="405" y="455" type="line"/>
      <point x="405" y="497" type="line"/>
      <point x="35" y="497" type="line"/>
      <point x="15" y="422" type="line"/>
      <point x="308" y="422" type="line"/>
      <point x="38" y="-185" type="line"/>
    </contour>
  </outline>
</glyph>
<glyph name="eight" format="1">
  <advance width="492"/>
  <unicode hex="0038"/>
  <outline>
    <contour>
      <point x="314" y="392" type="line"/>
      <point x="368" y="442"/>
      <point x="418" y="488"/>
      <point x="418" y="570" type="curve" smooth="yes"/>
      <point x="418" y="669"/>
      <point x="341" y="729"/>
      <point x="246" y="729" type="curve" smooth="yes"/>
      <point x="153" y="729"/>
      <point x="71" y="655"/>
      <point x="71" y="560" type="curve" smooth="yes"/>
      <point x="71" y="470"/>
      <point x="131" y="433"/>
      <point x="185" y="374" type="curve"/>
      <point x="169" y="361" type="line" smooth="yes"/>
      <point x="100" y="304"/>
      <point x="47" y="260"/>
      <point x="47" y="158" type="curve" smooth="yes"/>
      <point x="47" y="53"/>
      <point x="140" y="-11"/>
      <point x="238" y="-11" type="curve" smooth="yes"/>
      <point x="350" y="-11"/>
      <point x="442" y="54"/>
      <point x="442" y="172" type="curve" smooth="yes"/>
      <point x="442" y="262"/>
      <point x="363" y="326"/>
      <point x="305" y="383" type="curve"/>
    </contour>
    <contour>
      <point x="220" y="466"/>
      <point x="164" y="512"/>
      <point x="164" y="565" type="curve" smooth="yes"/>
      <point x="164" y="616"/>
      <point x="190" y="670"/>
      <point x="248" y="670" type="curve" smooth="yes"/>
      <point x="304" y="670"/>
      <point x="338" y="623"/>
      <point x="338" y="570" type="curve" smooth="yes"/>
      <point x="338" y="513"/>
      <point x="294" y="467"/>
      <point x="254" y="432" type="curve"/>
    </contour>
    <contour>
      <point x="234" y="326" type="line"/>
      <point x="276" y="285"/>
      <point x="349" y="231"/>
      <point x="349" y="166" type="curve" smooth="yes"/>
      <point x="349" y="100"/>
      <point x="304" y="49"/>
      <point x="236" y="49" type="curve" smooth="yes"/>
      <point x="177" y="49"/>
      <point x="129" y="103"/>
      <point x="129" y="161" type="curve" smooth="yes"/>
      <point x="129" y="236"/>
      <point x="170" y="270"/>
      <point x="219" y="313" type="curve" smooth="yes"/>
    </contour>
  </outline>
</glyph>
<glyph name="nine" format="1">
  <advance width="536"/>
  <unicode hex="0039"/>
  <outline>
    <contour>
      <point x="82" y="-217" type="line"/>
      <point x="127" y="-205"/>
      <point x="172" y="-182"/>
      <point x="213" y="-159" type="curve" smooth="yes"/>
      <point x="370" y="-69"/>
      <point x="490" y="71"/>
      <point x="490" y="261" type="curve" smooth="yes"/>
      <point x="490" y="398"/>
      <point x="412" y="509"/>
      <point x="267" y="509" type="curve" smooth="yes"/>
      <point x="147" y="509"/>
      <point x="51" y="414"/>
      <point x="51" y="294" type="curve" smooth="yes"/>
      <point x="51" y="189"/>
      <point x="131" y="91"/>
      <point x="240" y="91" type="curve" smooth="yes"/>
      <point x="290" y="91"/>
      <point x="343" y="110"/>
      <point x="382" y="142" type="curve"/>
      <point x="338" y="-14"/>
      <point x="203" y="-102"/>
      <point x="61" y="-161" type="curve"/>
    </contour>
    <contour>
      <point x="362" y="190"/>
      <point x="315" y="159"/>
      <point x="263" y="159" type="curve" smooth="yes"/>
      <point x="187" y="159"/>
      <point x="142" y="222"/>
      <point x="142" y="294" type="curve" smooth="yes"/>
      <point x="142" y="367"/>
      <point x="184" y="447"/>
      <point x="266" y="447" type="curve" smooth="yes"/>
      <point x="367" y="447"/>
      <point x="399" y="349"/>
      <point x="399" y="264" type="curve" smooth="yes"/>
      <point x="399" y="251"/>
      <point x="399" y="239"/>
      <point x="397" y="226" type="curve"/>
    </contour>
  </outline>
</glyph>
<glyph name="less" format="1">
  <advance width="630"/>
  <unicode hex="003C"/>
  <outline>
    <contour>
      <point x="564" y="-4" type="line"/>
      <point x="564" y="72" type="line"/>
      <point x="159" y="249" type="line"/>
      <point x="564" y="426" type="line"/>
      <point x="564" y="503" type="line"/>
      <point x="66" y="287" type="line"/>
      <point x="66" y="214" type="line"/>
    </contour>
  </outline>
</glyph>
<glyph name="equal" format="1">
  <advance width="630"/>
  <unicode hex="003D"/>
  <outline>
    <contour>
      <point x="567" y="306" type="line"/>
      <point x="567" y="376" type="line"/>
      <point x="68" y="376" type="line"/>
      <point x="68" y="306" type="line"/>
    </contour>
    <contour>
      <point x="567" y="113" type="line"/>
      <point x="567" y="183" type="line"/>
      <point x="68" y="183" type="line"/>
      <point x="68" y="113" type="line"/>
    </contour>
  </outline>
</glyph>
<glyph name="greater" format="1">
  <advance width="630"/>
  <unicode hex="003E"/>
  <outline>
    <contour>
      <point x="564" y="214" type="line"/>
      <point x="564" y="287" type="line"/>
      <point x="66" y="503" type="line"/>
      <point x="66" y="426" type="line"/>
      <point x="471" y="249" type="line"/>
      <point x="66" y="72" type="line"/>
      <point x="66" y="-4" type="line"/>
    </contour>
  </outline>
</glyph>
<glyph name="question" format="1">
  <advance width="438"/>
  <unicode hex="003F"/>
  <outline>
    <contour>
      <point x="222" y="217" type="line"/>
      <point x="222" y="340" type="line" smooth="yes"/>
      <point x="222" y="360"/>
      <point x="222" y="363"/>
      <point x="246" y="371" type="curve" smooth="yes"/>
      <point x="323" y="396"/>
      <point x="387" y="471"/>
      <point x="387" y="554" type="curve" smooth="yes"/>
      <point x="387" y="667"/>
      <point x="284" y="723"/>
      <point x="183" y="723" type="curve" smooth="yes"/>
      <point x="145" y="723"/>
      <point x="83" y="714"/>
      <point x="51" y="691" type="curve"/>
      <point x="78" y="634" type="line"/>
      <point x="101" y="653"/>
      <point x="145" y="662"/>
      <point x="174" y="662" type="curve" smooth="yes"/>
      <point x="241" y="662"/>
      <point x="299" y="619"/>
      <point x="299" y="548" type="curve" smooth="yes"/>
      <point x="299" y="468"/>
      <point x="227" y="424"/>
      <point x="157" y="412" type="curve"/>
      <point x="157" y="217" type="line"/>
    </contour>
    <contour>
      <point x="252" y="89"/>
      <point x="222" y="119"/>
      <point x="186" y="119" type="curve" smooth="yes"/>
      <point x="149" y="119"/>
      <point x="120" y="90"/>
      <point x="120" y="53" type="curve" smooth="yes"/>
      <point x="120" y="17"/>
      <point x="150" y="-13"/>
      <point x="186" y="-13" type="curve" smooth="yes"/>
      <point x="222" y="-13"/>
      <point x="252" y="17"/>
      <point x="252" y="53" type="curve" smooth="yes"/>
    </contour>
  </outline>
</glyph>
<glyph name="at" format="1">
  <advance width="831"/>
  <unicode hex="0040"/>
  <outline>
    <contour>
      <point x="446" y="-75" type="line"/>
      <point x="420" y="-82"/>
      <point x="393" y="-86"/>
      <point x="366" y="-86" type="curve" smooth="yes"/>
      <point x="212" y="-86"/>
      <point x="101" y="34"/>
      <point x="101" y="192" type="curve" smooth="yes"/>
      <point x="101" y="377"/>
      <point x="234" y="574"/>
      <point x="453" y="574" type="curve" smooth="yes"/>
      <point x="604" y="574"/>
      <point x="729" y="478"/>
      <point x="729" y="311" type="curve" smooth="yes"/>
      <point x="729" y="205"/>
      <point x="677" y="95"/>
      <point x="592" y="95" type="curve" smooth="yes"/>
      <point x="558" y="95"/>
      <point x="546" y="117"/>
      <point x="546" y="147" type="curve" smooth="yes"/>
      <point x="546" y="169"/>
      <point x="586" y="433"/>
      <point x="586" y="433" type="curve"/>
      <point x="549" y="433" type="line"/>
      <point x="544" y="423"/>
      <point x="539" y="413"/>
      <point x="533" y="404" type="curve"/>
      <point x="513" y="426"/>
      <point x="483" y="440"/>
      <point x="449" y="440" type="curve" smooth="yes"/>
      <point x="321" y="440"/>
      <point x="248" y="295"/>
      <point x="248" y="197" type="curve" smooth="yes"/>
      <point x="248" y="119"/>
      <point x="282" y="50"/>
      <point x="369" y="50" type="curve" smooth="yes"/>
      <point x="410" y="50"/>
      <point x="455" y="73"/>
      <point x="484" y="114" type="curve"/>
      <point x="486" y="114"/>
      <point x="487" y="113"/>
      <point x="487" y="113" type="curve" smooth="yes"/>
      <point x="493" y="100"/>
      <point x="514" y="52"/>
      <point x="590" y="52" type="curve" smooth="yes"/>
      <point x="707" y="52"/>
      <point x="779" y="185"/>
      <point x="779" y="311" type="curve" smooth="yes"/>
      <point x="779" y="505"/>
      <point x="630" y="616"/>
      <point x="453" y="616" type="curve" smooth="yes"/>
      <point x="204" y="616"/>
      <point x="51" y="397"/>
      <point x="51" y="192" type="curve" smooth="yes"/>
      <point x="51" y="10"/>
      <point x="182" y="-128"/>
      <point x="366" y="-128" type="curve" smooth="yes"/>
      <point x="397" y="-128"/>
      <point x="428" y="-124"/>
      <point x="458" y="-116" type="curve"/>
    </contour>
    <contour>
      <point x="499" y="273"/>
      <point x="477" y="99"/>
      <point x="383" y="99" type="curve" smooth="yes"/>
      <point x="333" y="99"/>
      <point x="322" y="151"/>
      <point x="322" y="195" type="curve" smooth="yes"/>
      <point x="322" y="258"/>
      <point x="359" y="391"/>
      <point x="446" y="391" type="curve" smooth="yes"/>
      <point x="473" y="391"/>
      <point x="492" y="379"/>
      <point x="510" y="359" type="curve"/>
    </contour>
  </outline>
</glyph>
<glyph name="A" format="1">
  <advance width="631"/>
  <unicode hex="0041"/>
  <outline>
    <contour>
      <point x="614" y="0" type="line"/>
      <point x="362" y="728" type="line"/>
      <point x="271" y="728" type="line"/>
      <point x="18" y="0" type="line"/>
      <point x="102" y="0" type="line"/>
      <point x="187" y="250" type="line"/>
      <point x="427" y="250" type="line"/>
      <point x="511" y="0" type="line"/>
    </contour>
    <contour>
      <point x="404" y="318" type="line"/>
      <point x="210" y="318" type="line"/>
      <point x="308" y="606" type="line"/>
    </contour>
  </outline>
</glyph>
<glyph name="D" format="1">
  <advance width="699"/>
  <unicode hex="0044"/>
  <outline>
    <contour>
      <point x="323" y="0" type="line"/>
      <point x="548" y="0"/>
      <point x="653" y="152"/>
      <point x="653" y="362" type="curve" smooth="yes"/>
      <point x="653" y="625"/>
      <point x="502" y="728"/>
      <point x="259" y="728" type="curve" smooth="yes"/>
      <point x="72" y="728" type="line"/>
      <point x="73" y="722"/>
      <point x="86" y="664"/>
      <point x="86" y="662" type="curve" smooth="yes"/>
      <point x="86" y="0" type="line"/>
    </contour>
    <contour>
      <point x="179" y="69" type="line"/>
      <point x="179" y="659" type="line"/>
      <point x="252" y="659" type="line" smooth="yes"/>
      <point x="451" y="659"/>
      <point x="556" y="575"/>
      <point x="556" y="364" type="curve" smooth="yes"/>
      <point x="556" y="202"/>
      <point x="493" y="69"/>
      <point x="311" y="69" type="curve" smooth="yes"/>
    </contour>
  </outline>
</glyph>
<glyph name="E" format="1">
  <advance width="549"/>
  <unicode hex="0045"/>
  <outline>
    <contour>
      <point x="509" y="0" type="line"/>
      <point x="509" y="69" type="line"/>
      <point x="179" y="69" type="line"/>
      <point x="179" y="340" type="line"/>
      <point x="435" y="340" type="line"/>
      <point x="435" y="408" type="line"/>
      <point x="179" y="408" type="line"/>
      <point x="179" y="659" type="line"/>
      <point x="509" y="659" type="line"/>
      <point x="509" y="728" type="line"/>
      <point x="72" y="728" type="line"/>
      <point x="73" y="722"/>
      <point x="86" y="664"/>
      <point x="86" y="662" type="curve" smooth="yes"/>
      <point x="86" y="0" type="line"/>
    </contour>
  </outline>
</glyph>
<glyph name="F" format="1">
  <advance width="510"/>
  <unicode hex="0046"/>
  <outline>
    <contour>
      <point x="179" y="0" type="line"/>
      <point x="179" y="340" type="line"/>
      <point x="414" y="340" type="line"/>
      <point x="414" y="408" type="line"/>
      <point x="179" y="408" type="line"/>
      <point x="179" y="659" type="line"/>
      <point x="475" y="659" type="line"/>
      <point x="475" y="728" type="line"/>
      <point x="72" y="728" type="line"/>
      <point x="73" y="722"/>
      <point x="86" y="664"/>
      <point x="86" y="662" type="curve" smooth="yes"/>
      <point x="86" y="0" type="line"/>
    </contour>
  </outline>
</glyph>
<glyph name="G" format="1">
  <advance width="707"/>
  <unicode hex="0047"/>
  <outline>
    <contour>
      <point x="651" y="0" type="line"/>
      <point x="648" y="55"/>
      <point x="642" y="111"/>
      <point x="642" y="166" type="curve" smooth="yes"/>
      <point x="642" y="375" type="line"/>
      <point x="381" y="375" type="line"/>
      <point x="369" y="307" type="line"/>
      <point x="548" y="307" type="line"/>
      <point x="548" y="241" type="line" smooth="yes"/>
      <point x="548" y="138"/>
      <point x="480" y="62"/>
      <point x="375" y="62" type="curve" smooth="yes"/>
      <point x="205" y="62"/>
      <point x="145" y="218"/>
      <point x="145" y="364" type="curve" smooth="yes"/>
      <point x="145" y="518"/>
      <point x="210" y="666"/>
      <point x="385" y="666" type="curve" smooth="yes"/>
      <point x="468" y="666"/>
      <point x="508" y="643"/>
      <point x="571" y="593" type="curve"/>
      <point x="624" y="655" type="line"/>
      <point x="568" y="713"/>
      <point x="462" y="738"/>
      <point x="385" y="738" type="curve" smooth="yes"/>
      <point x="159" y="738"/>
      <point x="47" y="568"/>
      <point x="47" y="355" type="curve" smooth="yes"/>
      <point x="47" y="161"/>
      <point x="149" y="-12"/>
      <point x="359" y="-12" type="curve" smooth="yes"/>
      <point x="445" y="-12"/>
      <point x="510" y="13"/>
      <point x="569" y="76" type="curve"/>
      <point x="601" y="0" type="line"/>
    </contour>
  </outline>
</glyph>
<glyph name="I" format="1">
  <advance width="268"/>
  <unicode hex="0049"/>
  <outline>
    <contour>
      <point x="180" y="0" type="line"/>
      <point x="180" y="728" type="line"/>
      <point x="73" y="728" type="line"/>
      <point x="74" y="722"/>
      <point x="87" y="664"/>
      <point x="87" y="662" type="curve" smooth="yes"/>
      <point x="87" y="0" type="line"/>
    </contour>
  </outline>
</glyph>
<glyph name="J" format="1">
  <advance width="268"/>
  <unicode hex="004A"/>
  <outline>
    <contour>
      <point x="-11" y="-211" type="line"/>
      <point x="151" y="-196"/>
      <point x="181" y="-78"/>
      <point x="181" y="61" type="curve"/>
      <point x="181" y="728" type="line"/>
      <point x="73" y="728" type="line"/>
      <point x="88" y="662" type="line"/>
      <point x="88" y="55" type="line" smooth="yes"/>
      <point x="88" y="-29"/>
      <point x="82" y="-144"/>
      <point x="-23" y="-159" type="curve"/>
    </contour>
  </outline>
</glyph>
<glyph name="K" format="1">
  <advance width="583"/>
  <unicode hex="004B"/>
  <outline>
    <contour>
      <point x="583" y="0" type="line"/>
      <point x="278" y="404" type="line"/>
      <point x="565" y="728" type="line"/>
      <point x="468" y="728" type="line"/>
      <point x="179" y="403" type="line"/>
      <point x="179" y="728" type="line"/>
      <point x="72" y="728" type="line"/>
      <point x="73" y="722"/>
      <point x="86" y="664"/>
      <point x="86" y="662" type="curve" smooth="yes"/>
      <point x="86" y="0" type="line"/>
      <point x="179" y="0" type="line"/>
      <point x="179" y="379" type="line"/>
      <point x="467" y="0" type="line"/>
    </contour>
  </outline>
</glyph>
<glyph name="L" format="1">
  <advance width="514"/>
  <unicode hex="004C"/>
  <outline>
    <contour>
      <point x="485" y="0" type="line"/>
      <point x="485" y="69" type="line"/>
      <point x="179" y="69" type="line"/>
      <point x="179" y="728" type="line"/>
      <point x="72" y="728" type="line"/>
      <point x="73" y="722"/>
      <point x="86" y="664"/>
      <point x="86" y="662" type="curve" smooth="yes"/>
      <point x="86" y="0" type="line"/>
    </contour>
  </outline>
</glyph>
<glyph name="M" format="1">
  <advance width="838"/>
  <unicode hex="004D"/>
  <outline>
    <contour>
      <point x="751" y="0" type="line"/>
      <point x="751" y="728" type="line"/>
      <point x="630" y="728" type="line"/>
      <point x="421" y="161" type="line"/>
      <point x="209" y="728" type="line"/>
      <point x="74" y="728" type="line"/>
      <point x="89" y="662" type="line"/>
      <point x="89" y="0" type="line"/>
      <point x="165" y="0" type="line"/>
      <point x="165" y="595" type="line"/>
      <point x="384" y="-1" type="line"/>
      <point x="440" y="-1" type="line"/>
      <point x="659" y="595" type="line"/>
      <point x="659" y="0" type="line"/>
    </contour>
  </outline>
</glyph>
<glyph name="N" format="1">
  <advance width="714"/>
  <unicode hex="004E"/>
  <outline>
    <contour>
      <point x="627" y="-5" type="line"/>
      <point x="627" y="728" type="line"/>
      <point x="551" y="728" type="line"/>
      <point x="551" y="183" type="line"/>
      <point x="197" y="728" type="line"/>
      <point x="73" y="728" type="line"/>
      <point x="74" y="722"/>
      <point x="87" y="664"/>
      <point x="87" y="662" type="curve" smooth="yes"/>
      <point x="87" y="0" type="line"/>
      <point x="163" y="0" type="line"/>
      <point x="163" y="615" type="line"/>
      <point x="568" y="-5" type="line"/>
    </contour>
  </outline>
</glyph>
<glyph name="O" format="1">
  <advance width="737"/>
  <unicode hex="004F"/>
  <outline>
    <contour>
      <point x="586" y="-11"/>
      <point x="691" y="163"/>
      <point x="691" y="363" type="curve" smooth="yes"/>
      <point x="691" y="562"/>
      <point x="587" y="738"/>
      <point x="369" y="738" type="curve" smooth="yes"/>
      <point x="150" y="738"/>
      <point x="46" y="563"/>
      <point x="46" y="363" type="curve" smooth="yes"/>
      <point x="46" y="164"/>
      <point x="151" y="-11"/>
      <point x="368" y="-11" type="curve" smooth="yes"/>
    </contour>
    <contour>
      <point x="200" y="57"/>
      <point x="145" y="219"/>
      <point x="145" y="362" type="curve" smooth="yes"/>
      <point x="145" y="505"/>
      <point x="200" y="668"/>
      <point x="369" y="668" type="curve" smooth="yes"/>
      <point x="538" y="668"/>
      <point x="594" y="507"/>
      <point x="594" y="363" type="curve" smooth="yes"/>
      <point x="594" y="219"/>
      <point x="539" y="57"/>
      <point x="369" y="57" type="curve" smooth="yes"/>
    </contour>
  </outline>
</glyph>
<glyph name="P" format="1">
  <advance width="575"/>
  <unicode hex="0050"/>
  <outline>
    <contour>
      <point x="179" y="0" type="line"/>
      <point x="179" y="288" type="line"/>
      <point x="290" y="288" type="line" smooth="yes"/>
      <point x="425" y="288"/>
      <point x="534" y="362"/>
      <point x="534" y="508" type="curve" smooth="yes"/>
      <point x="534" y="665"/>
      <point x="433" y="728"/>
      <point x="289" y="728" type="curve" smooth="yes"/>
      <point x="71" y="728" type="line"/>
      <point x="86" y="662" type="line"/>
      <point x="86" y="0" type="line"/>
    </contour>
    <contour>
      <point x="179" y="356" type="line"/>
      <point x="179" y="659" type="line"/>
      <point x="289" y="659" type="line" smooth="yes"/>
      <point x="385" y="659"/>
      <point x="437" y="602"/>
      <point x="437" y="508" type="curve" smooth="yes"/>
      <point x="437" y="417"/>
      <point x="380" y="356"/>
      <point x="288" y="356" type="curve" smooth="yes"/>
    </contour>
  </outline>
</glyph>
<glyph name="Q" format="1">
  <advance width="737"/>
  <unicode hex="0051"/>
  <outline>
    <contour>
      <point x="1139" y="-127" type="line"/>
      <point x="1093" y="-141"/>
      <point x="1011" y="-158"/>
      <point x="969" y="-158" type="curve" smooth="yes"/>
      <point x="827" y="-158"/>
      <point x="580" y="-30"/>
      <point x="508" y="7" type="curve" smooth="yes"/>
      <point x="502" y="10"/>
      <point x="496" y="12"/>
      <point x="493" y="14" type="curve"/>
      <point x="634" y="74"/>
      <point x="691" y="219"/>
      <point x="691" y="363" type="curve" smooth="yes"/>
      <point x="691" y="561"/>
      <point x="588" y="738"/>
      <point x="369" y="738" type="curve" smooth="yes"/>
      <point x="149" y="738"/>
      <point x="46" y="562"/>
      <point x="46" y="363" type="curve" smooth="yes"/>
      <point x="46" y="186"/>
      <point x="121" y="37"/>
      <point x="307" y="-5" type="curve" smooth="yes"/>
      <point x="351" y="-15"/>
      <point x="398" y="-24"/>
      <point x="438" y="-42" type="curve" smooth="yes"/>
      <point x="546" y="-90"/>
      <point x="784" y="-222"/>
      <point x="935" y="-222" type="curve" smooth="yes"/>
      <point x="1029" y="-222"/>
      <point x="1085" y="-201"/>
      <point x="1155" y="-175" type="curve"/>
    </contour>
    <contour>
      <point x="202" y="57"/>
      <point x="145" y="217"/>
      <point x="145" y="362" type="curve" smooth="yes"/>
      <point x="145" y="508"/>
      <point x="201" y="668"/>
      <point x="369" y="668" type="curve" smooth="yes"/>
      <point x="537" y="668"/>
      <point x="594" y="509"/>
      <point x="594" y="363" type="curve" smooth="yes"/>
      <point x="594" y="216"/>
      <point x="537" y="57"/>
      <point x="369" y="57" type="curve" smooth="yes"/>
    </contour>
  </outline>
</glyph>
<glyph name="R" format="1">
  <advance width="591"/>
  <unicode hex="0052"/>
  <outline>
    <contour>
      <point x="599" y="0" type="line"/>
      <point x="395" y="346" type="line"/>
      <point x="471" y="370"/>
      <point x="534" y="446"/>
      <point x="534" y="527" type="curve" smooth="yes"/>
      <point x="534" y="683"/>
      <point x="426" y="728"/>
      <point x="288" y="728" type="curve" smooth="yes"/>
      <point x="71" y="728" type="line"/>
      <point x="72" y="722"/>
      <point x="85" y="664"/>
      <point x="85" y="662" type="curve" smooth="yes"/>
      <point x="85" y="0" type="line"/>
      <point x="178" y="0" type="line"/>
      <point x="178" y="327" type="line"/>
      <point x="228" y="327" type="line" smooth="yes"/>
      <point x="254" y="327"/>
      <point x="280" y="327"/>
      <point x="303" y="329" type="curve"/>
      <point x="491" y="0" type="line"/>
    </contour>
    <contour>
      <point x="178" y="395" type="line"/>
      <point x="178" y="659" type="line"/>
      <point x="288" y="659" type="line" smooth="yes"/>
      <point x="366" y="659"/>
      <point x="437" y="618"/>
      <point x="437" y="533" type="curve" smooth="yes"/>
      <point x="437" y="423"/>
      <point x="357" y="395"/>
      <point x="258" y="395" type="curve" smooth="yes"/>
    </contour>
  </outline>
</glyph>
<glyph name="S" format="1">
  <advance width="516"/>
  <unicode hex="0053"/>
  <outline>
    <contour>
      <point x="32" y="42" type="line"/>
      <point x="96" y="9"/>
      <point x="163" y="-12"/>
      <point x="235" y="-12" type="curve" smooth="yes"/>
      <point x="366" y="-12"/>
      <point x="485" y="54"/>
      <point x="485" y="198" type="curve" smooth="yes"/>
      <point x="485" y="438"/>
      <point x="152" y="401"/>
      <point x="152" y="556" type="curve" smooth="yes"/>
      <point x="152" y="633"/>
      <point x="208" y="667"/>
      <point x="279" y="667" type="curve" smooth="yes"/>
      <point x="331" y="667"/>
      <point x="380" y="647"/>
      <point x="422" y="617" type="curve"/>
      <point x="468" y="684" type="line"/>
      <point x="411" y="718"/>
      <point x="346" y="738"/>
      <point x="280" y="738" type="curve" smooth="yes"/>
      <point x="167" y="738"/>
      <point x="52" y="673"/>
      <point x="52" y="548" type="curve" smooth="yes"/>
      <point x="52" y="319"/>
      <point x="385" y="376"/>
      <point x="385" y="185" type="curve" smooth="yes"/>
      <point x="385" y="96"/>
      <point x="304" y="60"/>
      <point x="238" y="60" type="curve" smooth="yes"/>
      <point x="180" y="60"/>
      <point x="112" y="86"/>
      <point x="68" y="124" type="curve"/>
    </contour>
  </outline>
</glyph>
<glyph name="T" format="1">
  <advance width="578"/>
  <unicode hex="0054"/>
  <outline>
    <contour>
      <point x="335" y="0" type="line"/>
      <point x="335" y="659" type="line"/>
      <point x="554" y="659" type="line"/>
      <point x="554" y="728" type="line"/>
      <point x="24" y="728" type="line"/>
      <point x="24" y="659" type="line"/>
      <point x="240" y="659" type="line"/>
      <point x="240" y="0" type="line"/>
    </contour>
  </outline>
</glyph>
<glyph name="V" format="1">
  <advance width="603"/>
  <unicode hex="0056"/>
  <outline>
    <contour>
      <point x="330" y="-3" type="line"/>
      <point x="582" y="729" type="line"/>
      <point x="502" y="729" type="line"/>
      <point x="308" y="162" type="line"/>
      <point x="120" y="728" type="line"/>
      <point x="21" y="728" type="line"/>
      <point x="272" y="-3" type="line"/>
    </contour>
  </outline>
</glyph>
<glyph name="W" format="1">
  <advance width="894"/>
  <unicode hex="0057"/>
  <outline>
    <contour>
      <point x="674" y="-5" type="line"/>
      <point x="873" y="728" type="line"/>
      <point x="795" y="728" type="line"/>
      <point x="644" y="170" type="line"/>
      <point x="494" y="728" type="line"/>
      <point x="420" y="728" type="line"/>
      <point x="270" y="170" type="line"/>
      <point x="119" y="728" type="line"/>
      <point x="21" y="728" type="line"/>
      <point x="223" y="-5" type="line"/>
      <point x="300" y="-5" type="line"/>
      <point x="448" y="541" type="line"/>
      <point x="597" y="-5" type="line"/>
    </contour>
  </outline>
</glyph>
<glyph name="X" format="1">
  <advance width="585"/>
  <unicode hex="0058"/>
  <outline>
    <contour>
      <point x="573" y="0" type="line"/>
      <point x="339" y="391" type="line"/>
      <point x="551" y="728" type="line"/>
      <point x="464" y="728" type="line"/>
      <point x="298" y="461" type="line"/>
      <point x="138" y="728" type="line"/>
      <point x="31" y="728" type="line"/>
      <point x="243" y="372" type="line"/>
      <point x="12" y="0" type="line"/>
      <point x="98" y="0" type="line"/>
      <point x="285" y="300" type="line"/>
      <point x="464" y="0" type="line"/>
    </contour>
  </outline>
</glyph>
<glyph name="Y" format="1">
  <advance width="584"/>
  <unicode hex="0059"/>
  <outline>
    <contour>
      <point x="344" y="0" type="line"/>
      <point x="344" y="360" type="line"/>
      <point x="553" y="728" type="line"/>
      <point x="466" y="728" type="line"/>
      <point x="309" y="445" type="line"/>
      <point x="140" y="728" type="line"/>
      <point x="32" y="728" type="line"/>
      <point x="249" y="360" type="line"/>
      <point x="249" y="0" type="line"/>
    </contour>
  </outline>
</glyph>
<glyph name="Z" format="1">
  <advance width="571"/>
  <unicode hex="005A"/>
  <outline>
    <contour>
      <point x="529" y="0" type="line"/>
      <point x="537" y="69" type="line"/>
      <point x="146" y="69" type="line"/>
      <point x="524" y="661" type="line"/>
      <point x="524" y="728" type="line"/>
      <point x="57" y="728" type="line"/>
      <point x="57" y="659" type="line"/>
      <point x="413" y="659" type="line"/>
      <point x="35" y="67" type="line"/>
      <point x="35" y="0" type="line"/>
    </contour>
  </outline>
</glyph>
<glyph name="bracketleft" format="1">
  <advance width="351"/>
  <unicode hex="005B"/>
  <outline>
    <contour>
      <point x="280" y="-128" type="line"/>
      <point x="280" y="-79" type="line"/>
      <point x="153" y="-79" type="line"/>
      <point x="153" y="681" type="line"/>
      <point x="280" y="681" type="line"/>
      <point x="280" y="730" type="line"/>
      <point x="72" y="730" type="line"/>
      <point x="72" y="-128" type="line"/>
    </contour>
  </outline>
</glyph>
<glyph name="bracketright" format="1">
  <advance width="350"/>
  <unicode hex="005D"/>
  <outline>
    <contour>
      <point x="279" y="-127" type="line"/>
      <point x="279" y="730" type="line"/>
      <point x="71" y="730" type="line"/>
      <point x="71" y="681" type="line"/>
      <point x="198" y="681" type="line"/>
      <point x="198" y="-78" type="line"/>
      <point x="72" y="-78" type="line"/>
      <point x="72" y="-127" type="line"/>
    </contour>
  </outline>
</glyph>
<glyph name="asciicircum" format="1">
  <advance width="618"/>
  <unicode hex="005E"/>
  <outline>
    <contour>
      <point x="562" y="0" type="line"/>
      <point x="345" y="497" type="line"/>
      <point x="271" y="497" type="line"/>
      <point x="56" y="0" type="line"/>
      <point x="133" y="0" type="line"/>
      <point x="309" y="405" type="line"/>
      <point x="486" y="0" type="line"/>
    </contour>
  </outline>
</glyph>
<glyph name="underscore" format="1">
  <advance width="499"/>
  <unicode hex="005F"/>
  <outline>
    <contour>
      <point x="509" y="-126" type="line"/>
      <point x="509" y="-66" type="line"/>
      <point x="-9" y="-66" type="line"/>
      <point x="-9" y="-126" type="line"/>
    </contour>
  </outline>
</glyph>
<glyph name="grave" format="1">
  <advance width="281"/>
  <unicode hex="0060"/>
  <outline>
    <contour>
      <point x="249" y="576" type="line"/>
      <point x="154" y="728" type="line"/>
      <point x="31" y="728" type="line"/>
      <point x="171" y="576" type="line"/>
    </contour>
  </outline>
</glyph>
<glyph name="b" format="1">
  <advance width="558"/>
  <unicode hex="0062"/>
  <outline>
    <contour>
      <point x="129" y="-1" type="line"/>
      <point x="147" y="51" type="line"/>
      <point x="183" y="8"/>
      <point x="237" y="-13"/>
      <point x="293" y="-13" type="curve" smooth="yes"/>
      <point x="442" y="-13"/>
      <point x="512" y="116"/>
      <point x="512" y="251" type="curve" smooth="yes"/>
      <point x="512" y="375"/>
      <point x="444" y="507"/>
      <point x="305" y="507" type="curve" smooth="yes"/>
      <point x="248" y="507"/>
      <point x="207" y="490"/>
      <point x="165" y="452" type="curve"/>
      <point x="165" y="762" type="line"/>
      <point x="68" y="762" type="line"/>
      <point x="69" y="757"/>
      <point x="82" y="706"/>
      <point x="82" y="704" type="curve" smooth="yes"/>
      <point x="82" y="68" type="line" smooth="yes"/>
      <point x="82" y="45"/>
      <point x="80" y="22"/>
      <point x="79" y="-1" type="curve"/>
    </contour>
    <contour>
      <point x="165" y="381" type="line"/>
      <point x="195" y="413"/>
      <point x="240" y="436"/>
      <point x="284" y="436" type="curve" smooth="yes"/>
      <point x="386" y="436"/>
      <point x="423" y="335"/>
      <point x="423" y="248" type="curve" smooth="yes"/>
      <point x="423" y="168"/>
      <point x="390" y="49"/>
      <point x="290" y="49" type="curve" smooth="yes"/>
      <point x="198" y="49"/>
      <point x="165" y="115"/>
      <point x="165" y="199" type="curve" smooth="yes"/>
    </contour>
  </outline>
</glyph>
<glyph name="c" format="1">
  <advance width="450"/>
  <unicode hex="0063"/>
  <outline>
    <contour>
      <point x="395" y="100" type="line"/>
      <point x="353" y="71"/>
      <point x="326" y="56"/>
      <point x="274" y="56" type="curve" smooth="yes"/>
      <point x="173" y="56"/>
      <point x="133" y="174"/>
      <point x="133" y="257" type="curve" smooth="yes"/>
      <point x="133" y="336"/>
      <point x="174" y="444"/>
      <point x="269" y="444" type="curve" smooth="yes"/>
      <point x="318" y="444"/>
      <point x="344" y="432"/>
      <point x="381" y="400" type="curve"/>
      <point x="426" y="458" type="line"/>
      <point x="388" y="487"/>
      <point x="330" y="509"/>
      <point x="282" y="509" type="curve" smooth="yes"/>
      <point x="130" y="509"/>
      <point x="44" y="393"/>
      <point x="44" y="248" type="curve" smooth="yes"/>
      <point x="44" y="120"/>
      <point x="130" y="-13"/>
      <point x="269" y="-13" type="curve" smooth="yes"/>
      <point x="339" y="-13"/>
      <point x="374" y="1"/>
      <point x="433" y="37" type="curve"/>
    </contour>
  </outline>
</glyph>
<glyph name="d" format="1">
  <advance width="558"/>
  <unicode hex="0064"/>
  <outline>
    <contour>
      <point x="505" y="2" type="line"/>
      <point x="483" y="39"/>
      <point x="474" y="101"/>
      <point x="474" y="143" type="curve" smooth="yes"/>
      <point x="474" y="762" type="line"/>
      <point x="378" y="762" type="line"/>
      <point x="392" y="703" type="line"/>
      <point x="392" y="464" type="line"/>
      <point x="358" y="495"/>
      <point x="312" y="508"/>
      <point x="267" y="508" type="curve" smooth="yes"/>
      <point x="117" y="508"/>
      <point x="45" y="380"/>
      <point x="45" y="244" type="curve" smooth="yes"/>
      <point x="45" y="119"/>
      <point x="111" y="-13"/>
      <point x="251" y="-13" type="curve" smooth="yes"/>
      <point x="308" y="-13"/>
      <point x="363" y="14"/>
      <point x="398" y="59" type="curve"/>
      <point x="401" y="36"/>
      <point x="407" y="13"/>
      <point x="417" y="-9" type="curve"/>
    </contour>
    <contour>
      <point x="392" y="126" type="line"/>
      <point x="363" y="93"/>
      <point x="322" y="60"/>
      <point x="276" y="60" type="curve" smooth="yes"/>
      <point x="170" y="60"/>
      <point x="133" y="159"/>
      <point x="133" y="250" type="curve" smooth="yes"/>
      <point x="133" y="338"/>
      <point x="164" y="440"/>
      <point x="269" y="440" type="curve" smooth="yes"/>
      <point x="356" y="440"/>
      <point x="392" y="373"/>
      <point x="392" y="294" type="curve" smooth="yes"/>
    </contour>
  </outline>
</glyph>
<glyph name="e" format="1">
  <advance width="494"/>
  <unicode hex="0065"/>
  <outline>
    <contour>
      <point x="406" y="103" type="line"/>
      <point x="373" y="75"/>
      <point x="320" y="57"/>
      <point x="277" y="57" type="curve" smooth="yes"/>
      <point x="179" y="57"/>
      <point x="132" y="161"/>
      <point x="132" y="246" type="curve" smooth="yes"/>
      <point x="132" y="256" type="line"/>
      <point x="402" y="256" type="line" smooth="yes"/>
      <point x="442" y="256"/>
      <point x="453" y="285"/>
      <point x="453" y="320" type="curve" smooth="yes"/>
      <point x="453" y="436"/>
      <point x="375" y="509"/>
      <point x="260" y="509" type="curve" smooth="yes"/>
      <point x="114" y="509"/>
      <point x="44" y="373"/>
      <point x="44" y="243" type="curve" smooth="yes"/>
      <point x="44" y="101"/>
      <point x="126" y="-13"/>
      <point x="275" y="-13" type="curve" smooth="yes"/>
      <point x="335" y="-13"/>
      <point x="396" y="5"/>
      <point x="443" y="43" type="curve"/>
    </contour>
    <contour>
      <point x="138" y="318" type="line"/>
      <point x="149" y="380"/>
      <point x="200" y="446"/>
      <point x="268" y="446" type="curve" smooth="yes"/>
      <point x="329" y="446"/>
      <point x="364" y="396"/>
      <point x="364" y="339" type="curve" smooth="yes"/>
      <point x="364" y="324"/>
      <point x="363" y="318"/>
      <point x="347" y="318" type="curve" smooth="yes"/>
    </contour>
  </outline>
</glyph>
<glyph name="f" format="1">
  <advance width="288"/>
  <unicode hex="0066"/>
  <outline>
    <contour>
      <point x="177" y="0" type="line"/>
      <point x="177" y="435" type="line"/>
      <point x="302" y="435" type="line"/>
      <point x="320" y="497" type="line"/>
      <point x="177" y="497" type="line"/>
      <point x="177" y="585"/>
      <point x="188" y="708"/>
      <point x="305" y="708" type="curve" smooth="yes"/>
      <point x="329" y="708"/>
      <point x="359" y="699"/>
      <point x="377" y="683" type="curve"/>
      <point x="400" y="745" type="line"/>
      <point x="368" y="763"/>
      <point x="340" y="770"/>
      <point x="303" y="770" type="curve" smooth="yes"/>
      <point x="192" y="770"/>
      <point x="127" y="693"/>
      <point x="108" y="590" type="curve" smooth="yes"/>
      <point x="104" y="566"/>
      <point x="102" y="551"/>
      <point x="97" y="527" type="curve" smooth="yes"/>
      <point x="89" y="488"/>
      <point x="52" y="490"/>
      <point x="20" y="487" type="curve"/>
      <point x="20" y="435" type="line"/>
      <point x="95" y="435" type="line"/>
      <point x="95" y="0" type="line"/>
    </contour>
  </outline>
</glyph>
<glyph name="h" format="1">
  <advance width="547"/>
  <unicode hex="0068"/>
  <outline>
    <contour>
      <point x="466" y="0" type="line"/>
      <point x="466" y="333" type="line" smooth="yes"/>
      <point x="466" y="436"/>
      <point x="425" y="510"/>
      <point x="315" y="510" type="curve" smooth="yes"/>
      <point x="255" y="510"/>
      <point x="206" y="478"/>
      <point x="164" y="438" type="curve"/>
      <point x="164" y="762" type="line"/>
      <point x="69" y="762" type="line"/>
      <point x="70" y="757"/>
      <point x="82" y="705"/>
      <point x="82" y="703" type="curve" smooth="yes"/>
      <point x="82" y="0" type="line"/>
      <point x="164" y="0" type="line"/>
      <point x="164" y="370" type="line"/>
      <point x="201" y="401"/>
      <point x="251" y="436"/>
      <point x="301" y="436" type="curve" smooth="yes"/>
      <point x="380" y="436"/>
      <point x="384" y="367"/>
      <point x="384" y="306" type="curve" smooth="yes"/>
      <point x="384" y="0" type="line"/>
    </contour>
  </outline>
</glyph>
<glyph name="i" format="1">
  <advance width="251"/>
  <unicode hex="0069"/>
  <outline>
    <contour>
      <point x="185" y="697"/>
      <point x="157" y="725"/>
      <point x="124" y="725" type="curve" smooth="yes"/>
      <point x="91" y="725"/>
      <point x="64" y="697"/>
      <point x="64" y="664" type="curve" smooth="yes"/>
      <point x="64" y="631"/>
      <point x="91" y="603"/>
      <point x="124" y="603" type="curve" smooth="yes"/>
      <point x="158" y="603"/>
      <point x="185" y="630"/>
      <point x="185" y="664" type="curve" smooth="yes"/>
    </contour>
    <contour>
      <point x="167" y="0" type="line"/>
      <point x="167" y="497" type="line"/>
      <point x="72" y="497" type="line"/>
      <point x="73" y="491"/>
      <point x="84" y="440"/>
      <point x="84" y="438" type="curve" smooth="yes"/>
      <point x="84" y="0" type="line"/>
    </contour>
  </outline>
</glyph>
<glyph name="j" format="1">
  <advance width="251"/>
  <unicode hex="006A"/>
  <outline>
    <contour>
      <point x="187" y="697"/>
      <point x="159" y="725"/>
      <point x="126" y="725" type="curve" smooth="yes"/>
      <point x="93" y="725"/>
      <point x="65" y="697"/>
      <point x="65" y="664" type="curve" smooth="yes"/>
      <point x="65" y="630"/>
      <point x="92" y="603"/>
      <point x="126" y="603" type="curve" smooth="yes"/>
      <point x="160" y="603"/>
      <point x="187" y="630"/>
      <point x="187" y="664" type="curve" smooth="yes"/>
    </contour>
    <contour>
      <point x="25" y="-228" type="line"/>
      <point x="149" y="-211"/>
      <point x="167" y="-77"/>
      <point x="167" y="25" type="curve"/>
      <point x="167" y="497" type="line"/>
      <point x="71" y="497" type="line"/>
      <point x="72" y="492"/>
      <point x="84" y="440"/>
      <point x="84" y="438" type="curve" smooth="yes"/>
      <point x="84" y="13" type="line" smooth="yes"/>
      <point x="84" y="-59"/>
      <point x="84" y="-150"/>
      <point x="11" y="-188" type="curve"/>
    </contour>
  </outline>
</glyph>
<glyph name="k" format="1">
  <advance width="464"/>
  <unicode hex="006B"/>
  <outline>
    <contour>
      <point x="466" y="0" type="line"/>
      <point x="248" y="288" type="line"/>
      <point x="439" y="497" type="line"/>
      <point x="350" y="497" type="line"/>
      <point x="164" y="292" type="line"/>
      <point x="164" y="762" type="line"/>
      <point x="68" y="762" type="line"/>
      <point x="69" y="757"/>
      <point x="81" y="705"/>
      <point x="81" y="703" type="curve" smooth="yes"/>
      <point x="81" y="0" type="line"/>
      <point x="164" y="0" type="line"/>
      <point x="164" y="270" type="line"/>
      <point x="367" y="0" type="line"/>
    </contour>
  </outline>
</glyph>
<glyph name="l" format="1">
  <advance width="251"/>
  <unicode hex="006C"/>
  <outline>
    <contour>
      <point x="167" y="0" type="line"/>
      <point x="167" y="762" type="line"/>
      <point x="71" y="762" type="line"/>
      <point x="72" y="757"/>
      <point x="84" y="706"/>
      <point x="84" y="704" type="curve" smooth="yes"/>
      <point x="84" y="0" type="line"/>
    </contour>
  </outline>
</glyph>
<glyph name="n" format="1">
  <advance width="547"/>
  <unicode hex="006E"/>
  <outline>
    <contour>
      <point x="464" y="0" type="line"/>
      <point x="464" y="332" type="line" smooth="yes"/>
      <point x="464" y="435"/>
      <point x="422" y="509"/>
      <point x="312" y="509" type="curve" smooth="yes"/>
      <point x="254" y="509"/>
      <point x="197" y="474"/>
      <point x="157" y="434" type="curve"/>
      <point x="154" y="458"/>
      <point x="147" y="482"/>
      <point x="138" y="505" type="curve"/>
      <point x="47" y="493" type="line"/>
      <point x="72" y="459"/>
      <point x="80" y="392"/>
      <point x="80" y="352" type="curve" smooth="yes"/>
      <point x="80" y="0" type="line"/>
      <point x="162" y="0" type="line"/>
      <point x="162" y="369" type="line"/>
      <point x="197" y="402"/>
      <point x="249" y="435"/>
      <point x="298" y="435" type="curve" smooth="yes"/>
      <point x="378" y="435"/>
      <point x="382" y="367"/>
      <point x="382" y="305" type="curve" smooth="yes"/>
      <point x="382" y="0" type="line"/>
    </contour>
  </outline>
</glyph>
<glyph name="p" format="1">
  <advance width="556"/>
  <unicode hex="0070"/>
  <outline>
    <contour>
      <point x="177" y="-216" type="line"/>
      <point x="163" y="-157" type="line"/>
      <point x="163" y="31" type="line"/>
      <point x="196" y="0"/>
      <point x="242" y="-13"/>
      <point x="287" y="-13" type="curve" smooth="yes"/>
      <point x="437" y="-13"/>
      <point x="510" y="114"/>
      <point x="510" y="251" type="curve" smooth="yes"/>
      <point x="510" y="376"/>
      <point x="444" y="508"/>
      <point x="303" y="508" type="curve" smooth="yes"/>
      <point x="246" y="508"/>
      <point x="192" y="480"/>
      <point x="157" y="436" type="curve"/>
      <point x="154" y="459"/>
      <point x="148" y="482"/>
      <point x="138" y="504" type="curve"/>
      <point x="50" y="493" type="line"/>
      <point x="73" y="457"/>
      <point x="81" y="393"/>
      <point x="81" y="352" type="curve" smooth="yes"/>
      <point x="81" y="-216" type="line"/>
    </contour>
    <contour>
      <point x="163" y="369" type="line"/>
      <point x="191" y="402"/>
      <point x="232" y="435"/>
      <point x="278" y="435" type="curve" smooth="yes"/>
      <point x="384" y="435"/>
      <point x="422" y="337"/>
      <point x="422" y="245" type="curve" smooth="yes"/>
      <point x="422" y="157"/>
      <point x="390" y="55"/>
      <point x="285" y="55" type="curve" smooth="yes"/>
      <point x="198" y="55"/>
      <point x="163" y="122"/>
      <point x="163" y="201" type="curve" smooth="yes"/>
    </contour>
  </outline>
</glyph>
<glyph name="s" format="1">
  <advance width="430"/>
  <unicode hex="0073"/>
  <outline>
    <contour>
      <point x="51" y="29" type="line"/>
      <point x="102" y="3"/>
      <point x="142" y="-13"/>
      <point x="200" y="-13" type="curve" smooth="yes"/>
      <point x="294" y="-13"/>
      <point x="379" y="26"/>
      <point x="379" y="132" type="curve" smooth="yes"/>
      <point x="379" y="287"/>
      <point x="145" y="268"/>
      <point x="145" y="378" type="curve" smooth="yes"/>
      <point x="145" y="431"/>
      <point x="201" y="446"/>
      <point x="244" y="446" type="curve" smooth="yes"/>
      <point x="275" y="446"/>
      <point x="314" y="429"/>
      <point x="339" y="410" type="curve"/>
      <point x="368" y="474" type="line"/>
      <point x="329" y="498"/>
      <point x="281" y="509"/>
      <point x="235" y="509" type="curve" smooth="yes"/>
      <point x="146" y="509"/>
      <point x="60" y="463"/>
      <point x="60" y="364" type="curve" smooth="yes"/>
      <point x="60" y="213"/>
      <point x="293" y="231"/>
      <point x="293" y="120" type="curve" smooth="yes"/>
      <point x="293" y="64"/>
      <point x="237" y="50"/>
      <point x="192" y="50" type="curve" smooth="yes"/>
      <point x="157" y="50"/>
      <point x="115" y="70"/>
      <point x="86" y="90" type="curve"/>
    </contour>
  </outline>
</glyph>
<glyph name="t" format="1">
  <advance width="327"/>
  <unicode hex="0074"/>
  <outline>
    <contour>
      <point x="293" y="63" type="line"/>
      <point x="273" y="58"/>
      <point x="251" y="53"/>
      <point x="230" y="53" type="curve" smooth="yes"/>
      <point x="187" y="53"/>
      <point x="177" y="77"/>
      <point x="177" y="116" type="curve" smooth="yes"/>
      <point x="177" y="434" type="line"/>
      <point x="289" y="434" type="line"/>
      <point x="307" y="497" type="line"/>
      <point x="177" y="497" type="line"/>
      <point x="177" y="543"/>
      <point x="188" y="594"/>
      <point x="199" y="639" type="curve"/>
      <point x="136" y="639" type="line"/>
      <point x="124" y="576"/>
      <point x="99" y="486"/>
      <point x="20" y="484" type="curve"/>
      <point x="20" y="434" type="line"/>
      <point x="94" y="434" type="line"/>
      <point x="94" y="118" type="line" smooth="yes"/>
      <point x="94" y="36"/>
      <point x="123" y="-11"/>
      <point x="208" y="-11" type="curve" smooth="yes"/>
      <point x="246" y="-11"/>
      <point x="274" y="-3"/>
      <point x="307" y="7" type="curve"/>
    </contour>
  </outline>
</glyph>
<glyph name="v" format="1">
  <advance width="455"/>
  <unicode hex="0076"/>
  <outline>
    <contour>
      <point x="265" y="-6" type="line"/>
      <point x="443" y="497" type="line"/>
      <point x="365" y="497" type="line"/>
      <point x="233" y="119" type="line"/>
      <point x="100" y="497" type="line"/>
      <point x="12" y="497" type="line"/>
      <point x="189" y="-6" type="line"/>
    </contour>
  </outline>
</glyph>
<glyph name="w" format="1">
  <advance width="658"/>
  <unicode hex="0077"/>
  <outline>
    <contour>
      <point x="489" y="-6" type="line"/>
      <point x="646" y="497" type="line"/>
      <point x="572" y="497" type="line"/>
      <point x="467" y="157" type="line"/>
      <point x="365" y="497" type="line"/>
      <point x="306" y="497" type="line"/>
      <point x="200" y="157" type="line"/>
      <point x="99" y="497" type="line"/>
      <point x="13" y="497" type="line"/>
      <point x="160" y="-6" type="line"/>
      <point x="221" y="-6" type="line"/>
      <point x="328" y="338" type="line"/>
      <point x="429" y="-6" type="line"/>
    </contour>
  </outline>
</glyph>
<glyph name="z" format="1">
  <advance width="445"/>
  <unicode hex="007A"/>
  <outline>
    <contour>
      <point x="402" y="0" type="line"/>
      <point x="413" y="63" type="line"/>
      <point x="143" y="63" type="line"/>
      <point x="401" y="449" type="line"/>
      <point x="401" y="497" type="line"/>
      <point x="55" y="497" type="line"/>
      <point x="55" y="433" type="line"/>
      <point x="289" y="433" type="line"/>
      <point x="32" y="47" type="line"/>
      <point x="32" y="0" type="line"/>
    </contour>
  </outline>
</glyph>
<glyph name="braceleft" format="1">
  <advance width="349"/>
  <unicode hex="007B"/>
  <outline>
    <contour>
      <point x="292" y="-135" type="line"/>
      <point x="292" y="-88" type="line"/>
      <point x="227" y="-88"/>
      <point x="203" y="-75"/>
      <point x="203" y="-8" type="curve" smooth="yes"/>
      <point x="203" y="170" type="line" smooth="yes"/>
      <point x="203" y="224"/>
      <point x="194" y="280"/>
      <point x="137" y="300" type="curve"/>
      <point x="194" y="320"/>
      <point x="203" y="377"/>
      <point x="203" y="431" type="curve" smooth="yes"/>
      <point x="203" y="601" type="line" smooth="yes"/>
      <point x="203" y="672"/>
      <point x="218" y="689"/>
      <point x="292" y="689" type="curve"/>
      <point x="292" y="736" type="line"/>
      <point x="270" y="736" type="line" smooth="yes"/>
      <point x="162" y="736"/>
      <point x="122" y="674"/>
      <point x="122" y="573" type="curve" smooth="yes"/>
      <point x="122" y="420" type="line" smooth="yes"/>
      <point x="122" y="376"/>
      <point x="115" y="323"/>
      <point x="58" y="323" type="curve"/>
      <point x="58" y="278" type="line"/>
      <point x="107" y="278"/>
      <point x="122" y="234"/>
      <point x="122" y="192" type="curve" smooth="yes"/>
      <point x="122" y="28" type="line" smooth="yes"/>
      <point x="122" y="-73"/>
      <point x="162" y="-135"/>
      <point x="267" y="-135" type="curve" smooth="yes"/>
    </contour>
  </outline>
</glyph>
<glyph name="bar" format="1">
  <advance width="235"/>
  <unicode hex="007C"/>
  <outline>
    <contour>
      <point x="153" y="-107" type="line"/>
      <point x="153" y="748" type="line"/>
      <point x="82" y="748" type="line"/>
      <point x="82" y="-107" type="line"/>
    </contour>
  </outline>
</glyph>
<glyph name="braceright" format="1">
  <advance width="349"/>
  <unicode hex="007D"/>
  <outline>
    <contour>
      <point x="80" y="-135" type="line"/>
      <point x="187" y="-135"/>
      <point x="227" y="-72"/>
      <point x="227" y="28" type="curve" smooth="yes"/>
      <point x="227" y="181" type="line" smooth="yes"/>
      <point x="227" y="226"/>
      <point x="234" y="278"/>
      <point x="292" y="278" type="curve"/>
      <point x="292" y="323" type="line"/>
      <point x="242" y="323"/>
      <point x="227" y="367"/>
      <point x="227" y="409" type="curve" smooth="yes"/>
      <point x="227" y="573" type="line" smooth="yes"/>
      <point x="227" y="689"/>
      <point x="178" y="736"/>
      <point x="65" y="736" type="curve" smooth="yes"/>
      <point x="58" y="736" type="line"/>
      <point x="58" y="689" type="line"/>
      <point x="123" y="689"/>
      <point x="146" y="675"/>
      <point x="146" y="609" type="curve" smooth="yes"/>
      <point x="146" y="431" type="line" smooth="yes"/>
      <point x="146" y="377"/>
      <point x="155" y="320"/>
      <point x="212" y="300" type="curve"/>
      <point x="155" y="280"/>
      <point x="146" y="224"/>
      <point x="146" y="170" type="curve" smooth="yes"/>
      <point x="146" y="0" type="line" smooth="yes"/>
      <point x="146" y="-70"/>
      <point x="131" y="-88"/>
      <point x="58" y="-88" type="curve"/>
      <point x="58" y="-135" type="line"/>
    </contour>
  </outline>
</glyph>
<glyph name="exclamdown" format="1">
  <advance width="329"/>
  <unicode hex="00A1"/>
  <outline>
    <contour>
      <point x="231" y="584"/>
      <point x="201" y="614"/>
      <point x="165" y="614" type="curve" smooth="yes"/>
      <point x="129" y="614"/>
      <point x="98" y="585"/>
      <point x="98" y="548" type="curve" smooth="yes"/>
      <point x="98" y="511"/>
      <point x="128" y="482"/>
      <point x="165" y="482" type="curve" smooth="yes"/>
      <point x="201" y="482"/>
      <point x="230" y="512"/>
      <point x="231" y="548" type="curve" smooth="yes"/>
    </contour>
    <contour>
      <point x="206" y="-126" type="line"/>
      <point x="215" y="-126"/>
      <point x="224" y="-122"/>
      <point x="224" y="-112" type="curve"/>
      <point x="194" y="383" type="line"/>
      <point x="136" y="383" type="line"/>
      <point x="107" y="-110" type="line"/>
      <point x="107" y="-122"/>
      <point x="116" y="-126"/>
      <point x="125" y="-126" type="curve" smooth="yes"/>
    </contour>
  </outline>
</glyph>
<glyph name="cent" format="1">
  <advance width="450"/>
  <unicode hex="00A2"/>
  <outline>
    <contour>
      <point x="248" y="-118" type="line"/>
      <point x="258" y="-14" type="line"/>
      <point x="273" y="-14" type="line"/>
      <point x="328" y="-14"/>
      <point x="377" y="-1"/>
      <point x="430" y="35" type="curve"/>
      <point x="392" y="99" type="line"/>
      <point x="351" y="70"/>
      <point x="323" y="55"/>
      <point x="271" y="55" type="curve" smooth="yes"/>
      <point x="170" y="55"/>
      <point x="130" y="173"/>
      <point x="130" y="256" type="curve" smooth="yes"/>
      <point x="130" y="335"/>
      <point x="171" y="443"/>
      <point x="266" y="443" type="curve" smooth="yes"/>
      <point x="318" y="443"/>
      <point x="340" y="431"/>
      <point x="379" y="399" type="curve"/>
      <point x="423" y="457" type="line"/>
      <point x="392" y="481"/>
      <point x="348" y="499"/>
      <point x="310" y="505" type="curve"/>
      <point x="340" y="612" type="line"/>
      <point x="266" y="612" type="line"/>
      <point x="256" y="507" type="line"/>
      <point x="114" y="495"/>
      <point x="41" y="382"/>
      <point x="41" y="247" type="curve" smooth="yes"/>
      <point x="41" y="134"/>
      <point x="92" y="26"/>
      <point x="207" y="-6" type="curve"/>
      <point x="176" y="-118" type="line"/>
    </contour>
  </outline>
</glyph>
<glyph name="sterling" format="1">
  <advance width="581"/>
  <unicode hex="00A3"/>
  <outline>
    <contour>
      <point x="535" y="0" type="line"/>
      <point x="535" y="69" type="line"/>
      <point x="243" y="69" type="line"/>
      <point x="243" y="359" type="line"/>
      <point x="372" y="359" type="line"/>
      <point x="372" y="427" type="line"/>
      <point x="243" y="427" type="line"/>
      <point x="243" y="547" type="line" smooth="yes"/>
      <point x="243" y="613"/>
      <point x="277" y="669"/>
      <point x="348" y="669" type="curve" smooth="yes"/>
      <point x="394" y="669"/>
      <point x="429" y="637"/>
      <point x="449" y="598" type="curve"/>
      <point x="524" y="640" type="line"/>
      <point x="486" y="701"/>
      <point x="421" y="738"/>
      <point x="349" y="738" type="curve" smooth="yes"/>
      <point x="229" y="738"/>
      <point x="149" y="668"/>
      <point x="149" y="545" type="curve" smooth="yes"/>
      <point x="149" y="427" type="line"/>
      <point x="73" y="427" type="line"/>
      <point x="73" y="359" type="line"/>
      <point x="149" y="359" type="line"/>
      <point x="149" y="69" type="line"/>
      <point x="56" y="69" type="line"/>
      <point x="56" y="0" type="line"/>
    </contour>
  </outline>
</glyph>
<glyph name="currency" format="1">
  <advance width="536"/>
  <unicode hex="00A4"/>
  <outline>
    <contour>
      <point x="427" y="218" type="line"/>
      <point x="447" y="251"/>
      <point x="460" y="289"/>
      <point x="460" y="332" type="curve" smooth="yes"/>
      <point x="460" y="373"/>
      <point x="447" y="412"/>
      <point x="427" y="445" type="curve"/>
      <point x="485" y="502" type="line"/>
      <point x="468" y="519"/>
      <point x="452" y="534"/>
      <point x="436" y="551" type="curve"/>
      <point x="381" y="497" type="line"/>
      <point x="349" y="523"/>
      <point x="309" y="538"/>
      <point x="266" y="538" type="curve" smooth="yes"/>
      <point x="222" y="538"/>
      <point x="182" y="522"/>
      <point x="150" y="496" type="curve"/>
      <point x="96" y="551" type="line"/>
      <point x="80" y="534"/>
      <point x="64" y="518"/>
      <point x="47" y="502" type="curve"/>
      <point x="104" y="445" type="line"/>
      <point x="84" y="412"/>
      <point x="72" y="373"/>
      <point x="72" y="332" type="curve" smooth="yes"/>
      <point x="72" y="290"/>
      <point x="84" y="251"/>
      <point x="103" y="219" type="curve"/>
      <point x="47" y="163" type="line"/>
      <point x="64" y="147"/>
      <point x="80" y="130"/>
      <point x="96" y="114" type="curve"/>
      <point x="114" y="131"/>
      <point x="132" y="150"/>
      <point x="149" y="167" type="curve"/>
      <point x="182" y="141"/>
      <point x="222" y="125"/>
      <point x="266" y="125" type="curve" smooth="yes"/>
      <point x="309" y="125"/>
      <point x="350" y="140"/>
      <point x="382" y="167" type="curve"/>
      <point x="399" y="149"/>
      <point x="418" y="131"/>
      <point x="436" y="114" type="curve"/>
      <point x="452" y="130"/>
      <point x="468" y="146"/>
      <point x="485" y="162" type="curve"/>
    </contour>
    <contour>
      <point x="203" y="186"/>
      <point x="145" y="245"/>
      <point x="145" y="332" type="curve" smooth="yes"/>
      <point x="145" y="413"/>
      <point x="197" y="477"/>
      <point x="266" y="477" type="curve" smooth="yes"/>
      <point x="336" y="477"/>
      <point x="388" y="412"/>
      <point x="388" y="332" type="curve" smooth="yes"/>
      <point x="388" y="244"/>
      <point x="330" y="186"/>
      <point x="266" y="186" type="curve" smooth="yes"/>
    </contour>
  </outline>
</glyph>
<glyph name="yen" format="1">
  <advance width="502"/>
  <unicode hex="00A5"/>
  <outline>
    <contour>
      <point x="289" y="0" type="line"/>
      <point x="289" y="163" type="line"/>
      <point x="437" y="163" type="line"/>
      <point x="437" y="211" type="line"/>
      <point x="289" y="211" type="line"/>
      <point x="289" y="246" type="line"/>
      <point x="307" y="271" type="line"/>
      <point x="437" y="271" type="line"/>
      <point x="437" y="318" type="line"/>
      <point x="339" y="318" type="line"/>
      <point x="460" y="496" type="line"/>
      <point x="384" y="496" type="line"/>
      <point x="258" y="307" type="line"/>
      <point x="123" y="496" type="line"/>
      <point x="32" y="496" type="line"/>
      <point x="157" y="318" type="line"/>
      <point x="62" y="318" type="line"/>
      <point x="62" y="271" type="line"/>
      <point x="190" y="271" type="line"/>
      <point x="208" y="246" type="line"/>
      <point x="208" y="211" type="line"/>
      <point x="62" y="211" type="line"/>
      <point x="62" y="163" type="line"/>
      <point x="208" y="163" type="line"/>
      <point x="208" y="0" type="line"/>
    </contour>
  </outline>
</glyph>
<glyph name="section" format="1">
  <advance width="497"/>
  <unicode hex="00A7"/>
  <outline>
    <contour>
      <point x="71" y="-43" type="line"/>
      <point x="112" y="-96"/>
      <point x="175" y="-135"/>
      <point x="244" y="-135" type="curve" smooth="yes"/>
      <point x="331" y="-135"/>
      <point x="409" y="-82"/>
      <point x="409" y="11" type="curve" smooth="yes"/>
      <point x="409" y="61"/>
      <point x="388" y="96"/>
      <point x="356" y="132" type="curve"/>
      <point x="415" y="150"/>
      <point x="457" y="197"/>
      <point x="457" y="261" type="curve" smooth="yes"/>
      <point x="457" y="412"/>
      <point x="190" y="509"/>
      <point x="190" y="607" type="curve" smooth="yes"/>
      <point x="190" y="646"/>
      <point x="224" y="673"/>
      <point x="261" y="673" type="curve" smooth="yes"/>
      <point x="303" y="673"/>
      <point x="342" y="639"/>
      <point x="364" y="606" type="curve"/>
      <point x="418" y="646" type="line"/>
      <point x="384" y="702"/>
      <point x="329" y="732"/>
      <point x="264" y="732" type="curve" smooth="yes"/>
      <point x="184" y="732"/>
      <point x="110" y="681"/>
      <point x="110" y="596" type="curve" smooth="yes"/>
      <point x="110" y="545"/>
      <point x="131" y="519"/>
      <point x="163" y="483" type="curve"/>
      <point x="99" y="467"/>
      <point x="53" y="425"/>
      <point x="53" y="356" type="curve" smooth="yes"/>
      <point x="53" y="224"/>
      <point x="326" y="104"/>
      <point x="326" y="1" type="curve" smooth="yes"/>
      <point x="326" y="-44"/>
      <point x="292" y="-76"/>
      <point x="247" y="-76" type="curve" smooth="yes"/>
      <point x="195" y="-76"/>
      <point x="160" y="-33"/>
      <point x="131" y="4" type="curve"/>
    </contour>
    <contour>
      <point x="328" y="339" type="line"/>
      <point x="355" y="316"/>
      <point x="380" y="278"/>
      <point x="380" y="242" type="curve" smooth="yes"/>
      <point x="380" y="207"/>
      <point x="343" y="177"/>
      <point x="310" y="172" type="curve"/>
      <point x="266" y="209"/>
      <point x="129" y="313"/>
      <point x="129" y="372" type="curve" smooth="yes"/>
      <point x="129" y="414"/>
      <point x="175" y="441"/>
      <point x="208" y="441" type="curve"/>
    </contour>
  </outline>
</glyph>
<glyph name="dieresis" format="1">
  <advance width="276"/>
  <unicode hex="00A8"/>
  <outline>
    <contour>
      <point x="276" y="656"/>
      <point x="251" y="681"/>
      <point x="219" y="681" type="curve" smooth="yes"/>
      <point x="188" y="681"/>
      <point x="163" y="655"/>
      <point x="163" y="624" type="curve" smooth="yes"/>
      <point x="163" y="593"/>
      <point x="188" y="567"/>
      <point x="219" y="567" type="curve" smooth="yes"/>
      <point x="250" y="567"/>
      <point x="276" y="593"/>
      <point x="276" y="624" type="curve" smooth="yes"/>
    </contour>
    <contour>
      <point x="113" y="656"/>
      <point x="88" y="681"/>
      <point x="56" y="681" type="curve" smooth="yes"/>
      <point x="25" y="681"/>
      <point x="0" y="655"/>
      <point x="0" y="624" type="curve" smooth="yes"/>
      <point x="0" y="593"/>
      <point x="25" y="567"/>
      <point x="56" y="567" type="curve" smooth="yes"/>
      <point x="87" y="567"/>
      <point x="113" y="593"/>
      <point x="113" y="624" type="curve" smooth="yes"/>
    </contour>
  </outline>
</glyph>
<glyph name="copyright" format="1">
  <advance width="635"/>
  <unicode hex="00A9"/>
  <outline>
    <contour>
      <point x="588" y="399"/>
      <point x="465" y="522"/>
      <point x="316" y="522" type="curve" smooth="yes"/>
      <point x="166" y="522"/>
      <point x="44" y="400"/>
      <point x="44" y="250" type="curve" smooth="yes"/>
      <point x="44" y="100"/>
      <point x="166" y="-22"/>
      <point x="316" y="-22" type="curve" smooth="yes"/>
      <point x="465" y="-22"/>
      <point x="588" y="101"/>
      <point x="588" y="250" type="curve" smooth="yes"/>
    </contour>
    <contour>
      <point x="549" y="122"/>
      <point x="444" y="17"/>
      <point x="316" y="17" type="curve" smooth="yes"/>
      <point x="188" y="17"/>
      <point x="83" y="122"/>
      <point x="83" y="250" type="curve" smooth="yes"/>
      <point x="83" y="378"/>
      <point x="188" y="483"/>
      <point x="316" y="483" type="curve" smooth="yes"/>
      <point x="444" y="483"/>
      <point x="549" y="378"/>
      <point x="549" y="250" type="curve" smooth="yes"/>
    </contour>
    <contour>
      <point x="400" y="162" type="line"/>
      <point x="373" y="144"/>
      <point x="354" y="134"/>
      <point x="321" y="134" type="curve" smooth="yes"/>
      <point x="259" y="134"/>
      <point x="232" y="204"/>
      <point x="232" y="256" type="curve" smooth="yes"/>
      <point x="232" y="306"/>
      <point x="259" y="370"/>
      <point x="318" y="370" type="curve" smooth="yes"/>
      <point x="350" y="370"/>
      <point x="367" y="363"/>
      <point x="391" y="343" type="curve"/>
      <point x="421" y="381" type="line"/>
      <point x="393" y="399"/>
      <point x="359" y="414"/>
      <point x="326" y="414" type="curve" smooth="yes"/>
      <point x="230" y="414"/>
      <point x="171" y="345"/>
      <point x="171" y="251" type="curve" smooth="yes"/>
      <point x="171" y="162"/>
      <point x="224" y="88"/>
      <point x="318" y="88" type="curve" smooth="yes"/>
      <point x="364" y="88"/>
      <point x="387" y="97"/>
      <point x="426" y="119" type="curve"/>
    </contour>
  </outline>
</glyph>
<glyph name="ordfeminine" format="1">
  <advance width="315"/>
  <unicode hex="00AA"/>
  <outline>
    <contour>
      <point x="290" y="454" type="line"/>
      <point x="256" y="444" type="line"/>
      <point x="248" y="444"/>
      <point x="249" y="462"/>
      <point x="249" y="467" type="curve" smooth="yes"/>
      <point x="249" y="620" type="line" smooth="yes"/>
      <point x="249" y="688"/>
      <point x="215" y="730"/>
      <point x="145" y="730" type="curve" smooth="yes"/>
      <point x="97" y="730"/>
      <point x="56" y="715"/>
      <point x="19" y="684" type="curve"/>
      <point x="52" y="634" type="line"/>
      <point x="73" y="656"/>
      <point x="111" y="676"/>
      <point x="141" y="676" type="curve" smooth="yes"/>
      <point x="178" y="676"/>
      <point x="186" y="651"/>
      <point x="186" y="619" type="curve" smooth="yes"/>
      <point x="186" y="592" type="line"/>
      <point x="108" y="591"/>
      <point x="10" y="573"/>
      <point x="10" y="476" type="curve" smooth="yes"/>
      <point x="10" y="422"/>
      <point x="48" y="387"/>
      <point x="101" y="387" type="curve" smooth="yes"/>
      <point x="134" y="387"/>
      <point x="166" y="402"/>
      <point x="190" y="425" type="curve"/>
      <point x="197" y="404"/>
      <point x="213" y="388"/>
      <point x="236" y="388" type="curve" smooth="yes"/>
      <point x="259" y="388"/>
      <point x="284" y="402"/>
      <point x="305" y="410" type="curve"/>
    </contour>
    <contour>
      <point x="259" y="279" type="line"/>
      <point x="259" y="329" type="line"/>
      <point x="40" y="329" type="line"/>
      <point x="40" y="279" type="line"/>
    </contour>
    <contour>
      <point x="186" y="523" type="line"/>
      <point x="186" y="487"/>
      <point x="158" y="444"/>
      <point x="118" y="444" type="curve" smooth="yes"/>
      <point x="98" y="444"/>
      <point x="76" y="456"/>
      <point x="76" y="478" type="curve" smooth="yes"/>
      <point x="76" y="535"/>
      <point x="144" y="537"/>
      <point x="186" y="537" type="curve"/>
    </contour>
  </outline>
</glyph>
<glyph name="uni00AD" format="1">
  <advance width="636"/>
  <unicode hex="00AD"/>
  <outline>
    <contour>
      <point x="564" y="216" type="line"/>
      <point x="564" y="277" type="line"/>
      <point x="72" y="277" type="line"/>
      <point x="72" y="216" type="line"/>
    </contour>
  </outline>
</glyph>
<glyph name="macron" format="1">
  <advance width="274"/>
  <unicode hex="00AF"/>
  <outline>
    <contour>
      <point x="289" y="596" type="line"/>
      <point x="289" y="660" type="line"/>
      <point x="-15" y="660" type="line"/>
      <point x="-15" y="596" type="line"/>
    </contour>
  </outline>
</glyph>
<glyph name="uni00B2" format="1">
  <advance width="457"/>
  <unicode hex="00B2"/>
  <outline>
    <contour>
      <point x="386" y="434" type="line"/>
      <point x="405" y="502" type="line"/>
      <point x="171" y="502" type="line"/>
      <point x="171" y="502"/>
      <point x="394" y="651"/>
      <point x="394" y="801" type="curve"/>
      <point x="394" y="861"/>
      <point x="357" y="928"/>
      <point x="247" y="928" type="curve"/>
      <point x="138" y="928"/>
      <point x="73" y="864"/>
      <point x="73" y="864" type="curve"/>
      <point x="105" y="817" type="line"/>
      <point x="105" y="817"/>
      <point x="163" y="870"/>
      <point x="231" y="870" type="curve"/>
      <point x="281" y="870"/>
      <point x="310" y="838"/>
      <point x="310" y="795" type="curve"/>
      <point x="310" y="667"/>
      <point x="58" y="472"/>
      <point x="58" y="472" type="curve"/>
      <point x="58" y="434" type="line"/>
    </contour>
  </outline>
</glyph>
<glyph name="uni00B3" format="1">
  <advance width="457"/>
  <unicode hex="00B3"/>
  <outline>
    <contour>
      <point x="73" y="423" type="line"/>
      <point x="335" y="432"/>
      <point x="394" y="541"/>
      <point x="394" y="614" type="curve"/>
      <point x="394" y="681"/>
      <point x="340" y="721"/>
      <point x="277" y="728" type="curve"/>
      <point x="321" y="745"/>
      <point x="372" y="780"/>
      <point x="372" y="838" type="curve"/>
      <point x="372" y="908"/>
      <point x="304" y="928"/>
      <point x="244" y="928" type="curve"/>
      <point x="185" y="928"/>
      <point x="112" y="902"/>
      <point x="67" y="866" type="curve"/>
      <point x="99" y="820" type="line"/>
      <point x="130" y="845"/>
      <point x="183" y="870"/>
      <point x="225" y="870" type="curve"/>
      <point x="268" y="870"/>
      <point x="295" y="854"/>
      <point x="295" y="823" type="curve"/>
      <point x="295" y="761"/>
      <point x="212" y="735"/>
      <point x="157" y="724" type="curve"/>
      <point x="165" y="677" type="line"/>
      <point x="165" y="677"/>
      <point x="181" y="679"/>
      <point x="200" y="679" type="curve"/>
      <point x="251" y="679"/>
      <point x="314" y="671"/>
      <point x="314" y="606" type="curve"/>
      <point x="314" y="534"/>
      <point x="226" y="482"/>
      <point x="63" y="474" type="curve"/>
    </contour>
  </outline>
</glyph>
<glyph name="acute" format="1">
  <advance width="281"/>
  <unicode hex="00B4"/>
  <outline>
    <contour>
      <point x="109" y="571" type="line"/>
      <point x="249" y="723" type="line"/>
      <point x="127" y="723" type="line"/>
      <point x="31" y="571" type="line"/>
    </contour>
  </outline>
</glyph>
<glyph name="mu" format="1">
  <advance width="555"/>
  <unicode hex="00B5"/>
  <outline>
    <contour>
      <point x="534" y="73" type="line"/>
      <point x="529" y="71"/>
      <point x="489" y="59"/>
      <point x="487" y="59" type="curve" smooth="yes"/>
      <point x="468" y="59"/>
      <point x="465" y="73"/>
      <point x="465" y="97" type="curve" smooth="yes"/>
      <point x="465" y="497" type="line"/>
      <point x="370" y="497" type="line"/>
      <point x="371" y="492"/>
      <point x="383" y="440"/>
      <point x="383" y="438" type="curve" smooth="yes"/>
      <point x="383" y="127" type="line"/>
      <point x="350" y="94"/>
      <point x="294" y="61"/>
      <point x="246" y="61" type="curve" smooth="yes"/>
      <point x="171" y="61"/>
      <point x="163" y="132"/>
      <point x="163" y="191" type="curve" smooth="yes"/>
      <point x="163" y="497" type="line"/>
      <point x="68" y="497" type="line"/>
      <point x="69" y="492"/>
      <point x="81" y="440"/>
      <point x="81" y="438" type="curve" smooth="yes"/>
      <point x="81" y="-187" type="line"/>
      <point x="166" y="-187" type="line"/>
      <point x="166" y="1" type="line"/>
      <point x="187" y="-8"/>
      <point x="209" y="-13"/>
      <point x="232" y="-13" type="curve" smooth="yes"/>
      <point x="285" y="-13"/>
      <point x="347" y="23"/>
      <point x="385" y="59" type="curve"/>
      <point x="391" y="21"/>
      <point x="414" y="-9"/>
      <point x="455" y="-9" type="curve" smooth="yes"/>
      <point x="487" y="-9"/>
      <point x="522" y="10"/>
      <point x="551" y="21" type="curve"/>
    </contour>
  </outline>
</glyph>
<glyph name="paragraph" format="1">
  <advance width="500"/>
  <unicode hex="00B6"/>
  <outline>
    <contour>
      <point x="229" y="-47" type="line"/>
      <point x="229" y="-78"/>
      <point x="204" y="-104"/>
      <point x="173" y="-104" type="curve" smooth="yes"/>
      <point x="142" y="-104"/>
      <point x="116" y="-78"/>
      <point x="116" y="-47" type="curve" smooth="yes"/>
      <point x="116" y="-16"/>
      <point x="142" y="10"/>
      <point x="173" y="10" type="curve"/>
      <point x="173" y="64" type="line"/>
      <point x="112" y="64"/>
      <point x="62" y="14"/>
      <point x="62" y="-47" type="curve" smooth="yes"/>
      <point x="62" y="-108"/>
      <point x="112" y="-158"/>
      <point x="173" y="-158" type="curve" smooth="yes"/>
      <point x="215" y="-158"/>
      <point x="252" y="-134"/>
      <point x="271" y="-99" type="curve"/>
      <point x="277" y="-100"/>
      <point x="283" y="-101"/>
      <point x="288" y="-101" type="curve" smooth="yes"/>
      <point x="349" y="-101"/>
      <point x="399" y="-51"/>
      <point x="399" y="10" type="curve" smooth="yes"/>
      <point x="399" y="664" type="line"/>
      <point x="455" y="664" type="line"/>
      <point x="455" y="718" type="line"/>
      <point x="263" y="718" type="line" smooth="yes"/>
      <point x="137" y="718"/>
      <point x="40" y="656"/>
      <point x="40" y="520" type="curve" smooth="yes"/>
      <point x="40" y="412"/>
      <point x="125" y="332"/>
      <point x="229" y="332" type="curve"/>
    </contour>
    <contour>
      <point x="345" y="10" type="line"/>
      <point x="345" y="-21"/>
      <point x="319" y="-47"/>
      <point x="288" y="-47" type="curve" smooth="yes"/>
      <point x="287" y="-47"/>
      <point x="285" y="-47"/>
      <point x="284" y="-47" type="curve"/>
      <point x="284" y="664" type="line"/>
      <point x="345" y="664" type="line"/>
    </contour>
  </outline>
</glyph>
<glyph name="periodcentered" format="1">
  <advance width="293"/>
  <unicode hex="00B7"/>
  <outline>
    <contour>
      <point x="213" y="296"/>
      <point x="183" y="327"/>
      <point x="147" y="327" type="curve" smooth="yes"/>
      <point x="110" y="327"/>
      <point x="81" y="297"/>
      <point x="81" y="260" type="curve" smooth="yes"/>
      <point x="81" y="224"/>
      <point x="111" y="195"/>
      <point x="147" y="195" type="curve" smooth="yes"/>
      <point x="183" y="195"/>
      <point x="213" y="224"/>
      <point x="213" y="260" type="curve" smooth="yes"/>
    </contour>
  </outline>
</glyph>
<glyph name="cedilla" format="1">
  <advance width="280"/>
  <unicode hex="00B8"/>
  <outline>
    <contour>
      <point x="32" y="-192" type="line"/>
      <point x="59" y="-209"/>
      <point x="90" y="-220"/>
      <point x="117" y="-220" type="curve" smooth="yes"/>
      <point x="176" y="-220"/>
      <point x="247" y="-204"/>
      <point x="247" y="-127" type="curve" smooth="yes"/>
      <point x="247" y="-68"/>
      <point x="191" y="-46"/>
      <point x="143" y="-46" type="curve" smooth="yes"/>
      <point x="140" y="-46"/>
      <point x="136" y="-46"/>
      <point x="132" y="-46" type="curve"/>
      <point x="161" y="9" type="line"/>
      <point x="114" y="9" type="line"/>
      <point x="66" y="-77" type="line"/>
      <point x="66" y="-77"/>
      <point x="64" y="-95"/>
      <point x="79" y="-95" type="curve" smooth="yes"/>
      <point x="126" y="-95" type="line" smooth="yes"/>
      <point x="149" y="-95"/>
      <point x="164" y="-108"/>
      <point x="164" y="-130" type="curve" smooth="yes"/>
      <point x="164" y="-153"/>
      <point x="143" y="-169"/>
      <point x="120" y="-169" type="curve" smooth="yes"/>
      <point x="102" y="-169"/>
      <point x="78" y="-158"/>
      <point x="56" y="-146" type="curve"/>
    </contour>
  </outline>
</glyph>
<glyph name="uni00B9" format="1">
  <advance width="457"/>
  <unicode hex="00B9"/>
  <outline>
    <contour>
      <point x="395" y="434" type="line"/>
      <point x="395" y="493" type="line"/>
      <point x="295" y="493" type="line"/>
      <point x="295" y="918" type="line"/>
      <point x="245" y="918" type="line"/>
      <point x="176" y="887"/>
      <point x="109" y="863"/>
      <point x="76" y="852" type="curve"/>
      <point x="82" y="836"/>
      <point x="89" y="819"/>
      <point x="94" y="803" type="curve"/>
      <point x="134" y="815"/>
      <point x="175" y="826"/>
      <point x="215" y="838" type="curve"/>
      <point x="215" y="493" type="line"/>
      <point x="91" y="493" type="line"/>
      <point x="91" y="434" type="line"/>
    </contour>
  </outline>
</glyph>
<glyph name="ordmasculine" format="1">
  <advance width="332"/>
  <unicode hex="00BA"/>
  <outline>
    <contour>
      <point x="264" y="395"/>
      <point x="319" y="474"/>
      <point x="319" y="566" type="curve" smooth="yes"/>
      <point x="319" y="658"/>
      <point x="264" y="737"/>
      <point x="166" y="737" type="curve" smooth="yes"/>
      <point x="69" y="737"/>
      <point x="13" y="657"/>
      <point x="13" y="566" type="curve" smooth="yes"/>
      <point x="13" y="474"/>
      <point x="68" y="395"/>
      <point x="166" y="395" type="curve" smooth="yes"/>
    </contour>
    <contour>
      <point x="276" y="279" type="line"/>
      <point x="276" y="329" type="line"/>
      <point x="57" y="329" type="line"/>
      <point x="57" y="279" type="line"/>
    </contour>
    <contour>
      <point x="107" y="447"/>
      <point x="82" y="517"/>
      <point x="82" y="566" type="curve" smooth="yes"/>
      <point x="82" y="618"/>
      <point x="103" y="685"/>
      <point x="166" y="685" type="curve" smooth="yes"/>
      <point x="227" y="685"/>
      <point x="249" y="617"/>
      <point x="249" y="566" type="curve" smooth="yes"/>
      <point x="249" y="515"/>
      <point x="228" y="447"/>
      <point x="166" y="447" type="curve" smooth="yes"/>
    </contour>
  </outline>
</glyph>
<glyph name="guillemotright" format="1">
  <advance width="466"/>
  <unicode hex="00BB"/>
  <outline>
    <contour>
      <point x="263" y="171" type="line"/>
      <point x="411" y="334" type="line"/>
      <point x="267" y="497" type="line"/>
      <point x="206" y="485" type="line"/>
      <point x="322" y="334" type="line"/>
      <point x="203" y="179" type="line"/>
    </contour>
    <contour>
      <point x="114" y="171" type="line"/>
      <point x="263" y="334" type="line"/>
      <point x="118" y="497" type="line"/>
      <point x="57" y="485" type="line"/>
      <point x="173" y="334" type="line"/>
      <point x="55" y="179" type="line"/>
    </contour>
  </outline>
</glyph>
<glyph name="onequarter" format="1">
  <advance width="1094"/>
  <unicode hex="00BC"/>
  <outline>
    <contour>
      <point x="421" y="-22" type="line"/>
      <point x="524" y="236"/>
      <point x="627" y="494"/>
      <point x="730" y="753" type="curve"/>
      <point x="667" y="753" type="line"/>
      <point x="565" y="494"/>
      <point x="462" y="236"/>
      <point x="359" y="-22" type="curve"/>
    </contour>
    <contour>
      <point x="395" y="248" type="line"/>
      <point x="395" y="307" type="line"/>
      <point x="295" y="307" type="line"/>
      <point x="295" y="732" type="line"/>
      <point x="245" y="732" type="line"/>
      <point x="176" y="701"/>
      <point x="109" y="677"/>
      <point x="76" y="666" type="curve"/>
      <point x="82" y="650"/>
      <point x="89" y="633"/>
      <point x="94" y="617" type="curve"/>
      <point x="215" y="652" type="line"/>
      <point x="215" y="307" type="line"/>
      <point x="91" y="307" type="line"/>
      <point x="91" y="248" type="line"/>
    </contour>
    <contour>
      <point x="908" y="0" type="line"/>
      <point x="908" y="110" type="line"/>
      <point x="966" y="110" type="line"/>
      <point x="972" y="130"/>
      <point x="978" y="149"/>
      <point x="983" y="169" type="curve"/>
      <point x="908" y="169" type="line"/>
      <point x="908" y="483" type="line"/>
      <point x="828" y="483" type="line"/>
      <point x="752" y="372"/>
      <point x="676" y="261"/>
      <point x="599" y="150" type="curve"/>
      <point x="599" y="110" type="line"/>
      <point x="828" y="110" type="line"/>
      <point x="828" y="0" type="line"/>
    </contour>
    <contour>
      <point x="828" y="169" type="line"/>
      <point x="684" y="169" type="line"/>
      <point x="735" y="245"/>
      <point x="797" y="329"/>
      <point x="831" y="398" type="curve"/>
      <point x="831" y="373"/>
      <point x="828" y="321"/>
      <point x="828" y="289" type="curve" smooth="yes"/>
    </contour>
  </outline>
</glyph>
<glyph name="onehalf" format="1">
  <advance width="1113"/>
  <unicode hex="00BD"/>
  <outline>
    <contour>
      <point x="395" y="248" type="line"/>
      <point x="395" y="307" type="line"/>
      <point x="295" y="307" type="line"/>
      <point x="295" y="732" type="line"/>
      <point x="245" y="732" type="line"/>
      <point x="176" y="701"/>
      <point x="109" y="677"/>
      <point x="76" y="666" type="curve"/>
      <point x="82" y="650"/>
      <point x="89" y="633"/>
      <point x="94" y="617" type="curve"/>
      <point x="215" y="652" type="line"/>
      <point x="215" y="307" type="line"/>
      <point x="91" y="307" type="line"/>
      <point x="91" y="248" type="line"/>
    </contour>
    <contour>
      <point x="421" y="-22" type="line"/>
      <point x="524" y="236"/>
      <point x="627" y="494"/>
      <point x="730" y="753" type="curve"/>
      <point x="667" y="753" type="line"/>
      <point x="565" y="494"/>
      <point x="462" y="236"/>
      <point x="359" y="-22" type="curve"/>
    </contour>
    <contour>
      <point x="1003" y="0" type="line"/>
      <point x="1022" y="72" type="line"/>
      <point x="797" y="72" type="line"/>
      <point x="828" y="94"/>
      <point x="1014" y="233"/>
      <point x="1014" y="365" type="curve" smooth="yes"/>
      <point x="1014" y="431"/>
      <point x="972" y="494"/>
      <point x="866" y="494" type="curve" smooth="yes"/>
      <point x="773" y="494"/>
      <point x="713" y="446"/>
      <point x="691" y="429" type="curve"/>
      <point x="723" y="381" type="line"/>
      <point x="735" y="391"/>
      <point x="788" y="431"/>
      <point x="848" y="431" type="curve" smooth="yes"/>
      <point x="897" y="431"/>
      <point x="927" y="401"/>
      <point x="927" y="358" type="curve" smooth="yes"/>
      <point x="927" y="260"/>
      <point x="763" y="112"/>
      <point x="695" y="54" type="curve" smooth="yes"/>
      <point x="684" y="45"/>
      <point x="677" y="39"/>
      <point x="675" y="38" type="curve"/>
      <point x="675" y="0" type="line"/>
    </contour>
  </outline>
</glyph>
<glyph name="threequarters" format="1">
  <advance width="1076"/>
  <unicode hex="00BE"/>
  <outline>
    <contour>
      <point x="73" y="236" type="line"/>
      <point x="335" y="245"/>
      <point x="394" y="354"/>
      <point x="394" y="427" type="curve" smooth="yes"/>
      <point x="394" y="494"/>
      <point x="340" y="534"/>
      <point x="276" y="541" type="curve"/>
      <point x="320" y="558"/>
      <point x="372" y="593"/>
      <point x="372" y="651" type="curve" smooth="yes"/>
      <point x="372" y="721"/>
      <point x="303" y="741"/>
      <point x="244" y="741" type="curve" smooth="yes"/>
      <point x="184" y="741"/>
      <point x="112" y="715"/>
      <point x="67" y="679" type="curve"/>
      <point x="77" y="664"/>
      <point x="88" y="649"/>
      <point x="99" y="633" type="curve"/>
      <point x="129" y="658"/>
      <point x="182" y="683"/>
      <point x="225" y="683" type="curve" smooth="yes"/>
      <point x="266" y="683"/>
      <point x="292" y="667"/>
      <point x="292" y="637" type="curve" smooth="yes"/>
      <point x="292" y="574"/>
      <point x="212" y="548"/>
      <point x="157" y="537" type="curve"/>
      <point x="165" y="490" type="line"/>
      <point x="165" y="490"/>
      <point x="181" y="492"/>
      <point x="199" y="492" type="curve" smooth="yes"/>
      <point x="250" y="492"/>
      <point x="313" y="484"/>
      <point x="313" y="419" type="curve" smooth="yes"/>
      <point x="313" y="347"/>
      <point x="225" y="295"/>
      <point x="63" y="287" type="curve"/>
    </contour>
    <contour>
      <point x="394" y="-22" type="line"/>
      <point x="497" y="236"/>
      <point x="599" y="494"/>
      <point x="702" y="753" type="curve"/>
      <point x="640" y="753" type="line"/>
      <point x="537" y="494"/>
      <point x="435" y="236"/>
      <point x="332" y="-22" type="curve"/>
    </contour>
    <contour>
      <point x="882" y="0" type="line"/>
      <point x="882" y="110" type="line"/>
      <point x="940" y="110" type="line"/>
      <point x="945" y="130"/>
      <point x="951" y="149"/>
      <point x="957" y="169" type="curve"/>
      <point x="882" y="169" type="line"/>
      <point x="882" y="483" type="line"/>
      <point x="801" y="483" type="line"/>
      <point x="573" y="150" type="line"/>
      <point x="573" y="110" type="line"/>
      <point x="802" y="110" type="line"/>
      <point x="802" y="0" type="line"/>
    </contour>
    <contour>
      <point x="802" y="169" type="line"/>
      <point x="657" y="169" type="line"/>
      <point x="718" y="257"/>
      <point x="773" y="336"/>
      <point x="805" y="398" type="curve"/>
      <point x="805" y="373"/>
      <point x="802" y="321"/>
      <point x="802" y="289" type="curve" smooth="yes"/>
    </contour>
  </outline>
</glyph>
<glyph name="questiondown" format="1">
  <advance width="431"/>
  <unicode hex="00BF"/>
  <outline>
    <contour>
      <point x="357" y="-37" type="line"/>
      <point x="334" y="-56"/>
      <point x="290" y="-65"/>
      <point x="261" y="-65" type="curve" smooth="yes"/>
      <point x="194" y="-65"/>
      <point x="136" y="-22"/>
      <point x="136" y="49" type="curve" smooth="yes"/>
      <point x="136" y="129"/>
      <point x="208" y="173"/>
      <point x="278" y="185" type="curve"/>
      <point x="278" y="380" type="line"/>
      <point x="213" y="380" type="line"/>
      <point x="213" y="257" type="line" smooth="yes"/>
      <point x="213" y="237"/>
      <point x="213" y="234"/>
      <point x="189" y="226" type="curve" smooth="yes"/>
      <point x="112" y="201"/>
      <point x="48" y="126"/>
      <point x="48" y="43" type="curve" smooth="yes"/>
      <point x="48" y="-70"/>
      <point x="151" y="-126"/>
      <point x="252" y="-126" type="curve" smooth="yes"/>
      <point x="290" y="-126"/>
      <point x="352" y="-117"/>
      <point x="384" y="-94" type="curve"/>
    </contour>
    <contour>
      <point x="286" y="478"/>
      <point x="315" y="507"/>
      <point x="315" y="544" type="curve" smooth="yes"/>
      <point x="315" y="580"/>
      <point x="285" y="610"/>
      <point x="249" y="610" type="curve" smooth="yes"/>
      <point x="213" y="610"/>
      <point x="183" y="580"/>
      <point x="183" y="544" type="curve" smooth="yes"/>
      <point x="183" y="508"/>
      <point x="213" y="478"/>
      <point x="249" y="478" type="curve" smooth="yes"/>
    </contour>
  </outline>
</glyph>
<glyph name="Agrave" format="1">
  <advance width="631"/>
  <unicode hex="00C0"/>
  <outline>
    <contour>
      <point x="373" y="721" type="line"/>
      <point x="278" y="873" type="line"/>
      <point x="155" y="873" type="line"/>
      <point x="295" y="721" type="line"/>
    </contour>
    <contour>
      <point x="614" y="0" type="line"/>
      <point x="362" y="670" type="line"/>
      <point x="271" y="670" type="line"/>
      <point x="18" y="0" type="line"/>
      <point x="102" y="0" type="line"/>
      <point x="186" y="227" type="line"/>
      <point x="429" y="227" type="line"/>
      <point x="511" y="0" type="line"/>
    </contour>
    <contour>
      <point x="404" y="295" type="line"/>
      <point x="212" y="295" type="line"/>
      <point x="308" y="555" type="line"/>
    </contour>
  </outline>
</glyph>
<glyph name="Aacute" format="1">
  <advance width="631"/>
  <unicode hex="00C1"/>
  <outline>
    <contour>
      <point x="354" y="716" type="line"/>
      <point x="494" y="867" type="line"/>
      <point x="372" y="867" type="line"/>
      <point x="276" y="716" type="line"/>
    </contour>
    <contour>
      <point x="619" y="0" type="line"/>
      <point x="367" y="670" type="line"/>
      <point x="276" y="670" type="line"/>
      <point x="23" y="0" type="line"/>
      <point x="107" y="0" type="line"/>
      <point x="191" y="227" type="line"/>
      <point x="434" y="227" type="line"/>
      <point x="516" y="0" type="line"/>
    </contour>
    <contour>
      <point x="409" y="295" type="line"/>
      <point x="217" y="295" type="line"/>
      <point x="313" y="555" type="line"/>
    </contour>
  </outline>
</glyph>
<glyph name="Acircumflex" format="1">
  <advance width="631"/>
  <unicode hex="00C2"/>
  <outline>
    <contour>
      <point x="462" y="696" type="line"/>
      <point x="356" y="851" type="line"/>
      <point x="273" y="851" type="line"/>
      <point x="171" y="696" type="line"/>
      <point x="238" y="696" type="line"/>
      <point x="314" y="778" type="line"/>
      <point x="392" y="696" type="line"/>
    </contour>
    <contour>
      <point x="614" y="0" type="line"/>
      <point x="362" y="670" type="line"/>
      <point x="271" y="670" type="line"/>
      <point x="18" y="0" type="line"/>
      <point x="102" y="0" type="line"/>
      <point x="186" y="227" type="line"/>
      <point x="429" y="227" type="line"/>
      <point x="511" y="0" type="line"/>
    </contour>
    <contour>
      <point x="404" y="295" type="line"/>
      <point x="212" y="295" type="line"/>
      <point x="308" y="555" type="line"/>
    </contour>
  </outline>
</glyph>
<glyph name="Atilde" format="1">
  <advance width="631"/>
  <unicode hex="00C3"/>
  <outline>
    <contour>
      <point x="435" y="800" type="line"/>
      <point x="430" y="785"/>
      <point x="416" y="774"/>
      <point x="400" y="774" type="curve" smooth="yes"/>
      <point x="360" y="774"/>
      <point x="313" y="813"/>
      <point x="259" y="813" type="curve" smooth="yes"/>
      <point x="205" y="813"/>
      <point x="172" y="762"/>
      <point x="165" y="713" type="curve"/>
      <point x="215" y="713" type="line"/>
      <point x="219" y="727"/>
      <point x="233" y="740"/>
      <point x="248" y="740" type="curve" smooth="yes"/>
      <point x="300" y="740"/>
      <point x="342" y="701"/>
      <point x="398" y="701" type="curve" smooth="yes"/>
      <point x="450" y="701"/>
      <point x="478" y="755"/>
      <point x="483" y="800" type="curve"/>
    </contour>
    <contour>
      <point x="614" y="0" type="line"/>
      <point x="362" y="670" type="line"/>
      <point x="271" y="670" type="line"/>
      <point x="18" y="0" type="line"/>
      <point x="102" y="0" type="line"/>
      <point x="186" y="227" type="line"/>
      <point x="429" y="227" type="line"/>
      <point x="511" y="0" type="line"/>
    </contour>
    <contour>
      <point x="404" y="295" type="line"/>
      <point x="212" y="295" type="line"/>
      <point x="308" y="555" type="line"/>
    </contour>
  </outline>
</glyph>
<glyph name="Adieresis" format="1">
  <advance width="631"/>
  <unicode hex="00C4"/>
  <outline>
    <contour>
      <point x="457" y="805"/>
      <point x="431" y="831"/>
      <point x="400" y="831" type="curve" smooth="yes"/>
      <point x="369" y="831"/>
      <point x="343" y="805"/>
      <point x="343" y="774" type="curve" smooth="yes"/>
      <point x="343" y="743"/>
      <point x="369" y="717"/>
      <point x="400" y="717" type="curve" smooth="yes"/>
      <point x="431" y="717"/>
      <point x="457" y="743"/>
      <point x="457" y="774" type="curve" smooth="yes"/>
    </contour>
    <contour>
      <point x="294" y="805"/>
      <point x="268" y="831"/>
      <point x="237" y="831" type="curve" smooth="yes"/>
      <point x="206" y="831"/>
      <point x="180" y="805"/>
      <point x="180" y="774" type="curve" smooth="yes"/>
      <point x="180" y="743"/>
      <point x="206" y="717"/>
      <point x="237" y="717" type="curve" smooth="yes"/>
      <point x="268" y="717"/>
      <point x="294" y="743"/>
      <point x="294" y="774" type="curve" smooth="yes"/>
    </contour>
    <contour>
      <point x="614" y="0" type="line"/>
      <point x="362" y="670" type="line"/>
      <point x="271" y="670" type="line"/>
      <point x="18" y="0" type="line"/>
      <point x="102" y="0" type="line"/>
      <point x="186" y="227" type="line"/>
      <point x="429" y="227" type="line"/>
      <point x="511" y="0" type="line"/>
    </contour>
    <contour>
      <point x="404" y="295" type="line"/>
      <point x="212" y="295" type="line"/>
      <point x="308" y="555" type="line"/>
    </contour>
  </outline>
</glyph>
<glyph name="Aring" format="1">
  <advance width="631"/>
  <unicode hex="00C5"/>
  <outline>
    <contour>
      <point x="614" y="0" type="line"/>
      <point x="368" y="653" type="line"/>
      <point x="396" y="670"/>
      <point x="411" y="703"/>
      <point x="411" y="735" type="curve" smooth="yes"/>
      <point x="411" y="790"/>
      <point x="369" y="834"/>
      <point x="314" y="834" type="curve" smooth="yes"/>
      <point x="259" y="834"/>
      <point x="215" y="790"/>
      <point x="215" y="735" type="curve" smooth="yes"/>
      <point x="215" y="701"/>
      <point x="233" y="667"/>
      <point x="263" y="650" type="curve"/>
      <point x="18" y="0" type="line"/>
      <point x="102" y="0" type="line"/>
      <point x="186" y="226" type="line"/>
      <point x="429" y="226" type="line"/>
      <point x="511" y="0" type="line"/>
    </contour>
    <contour>
      <point x="361" y="708"/>
      <point x="340" y="687"/>
      <point x="313" y="687" type="curve" smooth="yes"/>
      <point x="287" y="687"/>
      <point x="265" y="709"/>
      <point x="265" y="735" type="curve" smooth="yes"/>
      <point x="265" y="761"/>
      <point x="287" y="783"/>
      <point x="313" y="783" type="curve" smooth="yes"/>
      <point x="339" y="783"/>
      <point x="361" y="761"/>
      <point x="361" y="735" type="curve" smooth="yes"/>
    </contour>
    <contour>
      <point x="404" y="294" type="line"/>
      <point x="212" y="294" type="line"/>
      <point x="308" y="554" type="line"/>
    </contour>
  </outline>
</glyph>
<glyph name="Ccedilla" format="1">
  <advance width="624"/>
  <unicode hex="00C7"/>
  <outline>
    <contour>
      <point x="265" y="-192" type="line"/>
      <point x="292" y="-209"/>
      <point x="323" y="-220"/>
      <point x="351" y="-220" type="curve" smooth="yes"/>
      <point x="409" y="-220"/>
      <point x="481" y="-204"/>
      <point x="481" y="-127" type="curve" smooth="yes"/>
      <point x="481" y="-68"/>
      <point x="424" y="-46"/>
      <point x="377" y="-46" type="curve"/>
      <point x="365" y="-46" type="line"/>
      <point x="383" y="-12" type="line"/>
      <point x="455" y="-12"/>
      <point x="551" y="11"/>
      <point x="607" y="58" type="curve"/>
      <point x="564" y="125" type="line"/>
      <point x="519" y="86"/>
      <point x="445" y="63"/>
      <point x="387" y="63" type="curve" smooth="yes"/>
      <point x="215" y="63"/>
      <point x="148" y="206"/>
      <point x="148" y="360" type="curve" smooth="yes"/>
      <point x="148" y="509"/>
      <point x="213" y="668"/>
      <point x="385" y="668" type="curve" smooth="yes"/>
      <point x="441" y="668"/>
      <point x="514" y="644"/>
      <point x="553" y="601" type="curve"/>
      <point x="605" y="659" type="line"/>
      <point x="556" y="714"/>
      <point x="457" y="738"/>
      <point x="387" y="738" type="curve" smooth="yes"/>
      <point x="169" y="738"/>
      <point x="46" y="575"/>
      <point x="46" y="366" type="curve" smooth="yes"/>
      <point x="46" y="177"/>
      <point x="149" y="14"/>
      <point x="337" y="-9" type="curve"/>
      <point x="299" y="-77" type="line"/>
      <point x="298" y="-79"/>
      <point x="297" y="-81"/>
      <point x="297" y="-83" type="curve" smooth="yes"/>
      <point x="297" y="-90"/>
      <point x="305" y="-95"/>
      <point x="312" y="-95" type="curve" smooth="yes"/>
      <point x="360" y="-95" type="line" smooth="yes"/>
      <point x="382" y="-95"/>
      <point x="398" y="-108"/>
      <point x="398" y="-130" type="curve" smooth="yes"/>
      <point x="398" y="-153"/>
      <point x="376" y="-169"/>
      <point x="354" y="-169" type="curve" smooth="yes"/>
      <point x="336" y="-169"/>
      <point x="311" y="-158"/>
      <point x="290" y="-146" type="curve"/>
    </contour>
  </outline>
</glyph>
<glyph name="Egrave" format="1">
  <advance width="549"/>
  <unicode hex="00C8"/>
  <outline>
    <contour>
      <point x="347" y="721" type="line"/>
      <point x="252" y="873" type="line"/>
      <point x="130" y="873" type="line"/>
      <point x="270" y="721" type="line"/>
    </contour>
    <contour>
      <point x="509" y="0" type="line"/>
      <point x="509" y="69" type="line"/>
      <point x="180" y="69" type="line"/>
      <point x="180" y="306" type="line"/>
      <point x="435" y="306" type="line"/>
      <point x="435" y="376" type="line"/>
      <point x="180" y="376" type="line"/>
      <point x="180" y="600" type="line"/>
      <point x="509" y="600" type="line"/>
      <point x="509" y="668" type="line"/>
      <point x="72" y="668" type="line"/>
      <point x="73" y="662"/>
      <point x="86" y="605"/>
      <point x="86" y="603" type="curve" smooth="yes"/>
      <point x="86" y="0" type="line"/>
    </contour>
  </outline>
</glyph>
<glyph name="Eacute" format="1">
  <advance width="549"/>
  <unicode hex="00C9"/>
  <outline>
    <contour>
      <point x="337" y="717" type="line"/>
      <point x="477" y="869" type="line"/>
      <point x="354" y="869" type="line"/>
      <point x="259" y="717" type="line"/>
    </contour>
    <contour>
      <point x="509" y="0" type="line"/>
      <point x="509" y="69" type="line"/>
      <point x="180" y="69" type="line"/>
      <point x="180" y="306" type="line"/>
      <point x="435" y="306" type="line"/>
      <point x="435" y="376" type="line"/>
      <point x="180" y="376" type="line"/>
      <point x="180" y="600" type="line"/>
      <point x="509" y="600" type="line"/>
      <point x="509" y="668" type="line"/>
      <point x="72" y="668" type="line"/>
      <point x="73" y="662"/>
      <point x="86" y="605"/>
      <point x="86" y="603" type="curve" smooth="yes"/>
      <point x="86" y="0" type="line"/>
    </contour>
  </outline>
</glyph>
<glyph name="Ecircumflex" format="1">
  <advance width="549"/>
  <unicode hex="00CA"/>
  <outline>
    <contour>
      <point x="446" y="696" type="line"/>
      <point x="340" y="851" type="line"/>
      <point x="256" y="851" type="line"/>
      <point x="154" y="696" type="line"/>
      <point x="221" y="696" type="line"/>
      <point x="298" y="778" type="line"/>
      <point x="376" y="696" type="line"/>
    </contour>
    <contour>
      <point x="509" y="0" type="line"/>
      <point x="509" y="69" type="line"/>
      <point x="180" y="69" type="line"/>
      <point x="180" y="307" type="line"/>
      <point x="435" y="307" type="line"/>
      <point x="435" y="377" type="line"/>
      <point x="180" y="377" type="line"/>
      <point x="180" y="601" type="line"/>
      <point x="509" y="601" type="line"/>
      <point x="509" y="669" type="line"/>
      <point x="72" y="669" type="line"/>
      <point x="73" y="663"/>
      <point x="86" y="606"/>
      <point x="86" y="604" type="curve" smooth="yes"/>
      <point x="86" y="0" type="line"/>
    </contour>
  </outline>
</glyph>
<glyph name="Edieresis" format="1">
  <advance width="549"/>
  <unicode hex="00CB"/>
  <outline>
    <contour>
      <point x="442" y="809"/>
      <point x="416" y="835"/>
      <point x="385" y="835" type="curve" smooth="yes"/>
      <point x="354" y="835"/>
      <point x="328" y="809"/>
      <point x="328" y="778" type="curve" smooth="yes"/>
      <point x="328" y="746"/>
      <point x="353" y="721"/>
      <point x="385" y="721" type="curve" smooth="yes"/>
      <point x="416" y="721"/>
      <point x="442" y="747"/>
      <point x="442" y="778" type="curve" smooth="yes"/>
    </contour>
    <contour>
      <point x="253" y="721"/>
      <point x="278" y="747"/>
      <point x="278" y="778" type="curve" smooth="yes"/>
      <point x="278" y="809"/>
      <point x="253" y="835"/>
      <point x="222" y="835" type="curve" smooth="yes"/>
      <point x="191" y="835"/>
      <point x="165" y="809"/>
      <point x="165" y="778" type="curve" smooth="yes"/>
      <point x="165" y="746"/>
      <point x="190" y="721"/>
      <point x="222" y="721" type="curve" smooth="yes"/>
    </contour>
    <contour>
      <point x="507" y="0" type="line"/>
      <point x="507" y="69" type="line"/>
      <point x="178" y="69" type="line"/>
      <point x="178" y="307" type="line"/>
      <point x="433" y="307" type="line"/>
      <point x="433" y="377" type="line"/>
      <point x="178" y="377" type="line"/>
      <point x="178" y="601" type="line"/>
      <point x="507" y="601" type="line"/>
      <point x="507" y="669" type="line"/>
      <point x="70" y="669" type="line"/>
      <point x="71" y="663"/>
      <point x="84" y="606"/>
      <point x="84" y="604" type="curve" smooth="yes"/>
      <point x="84" y="0" type="line"/>
    </contour>
  </outline>
</glyph>
<glyph name="Igrave" format="1">
  <advance width="268"/>
  <unicode hex="00CC"/>
  <outline>
    <contour>
      <point x="181" y="719" type="line"/>
      <point x="86" y="871" type="line"/>
      <point x="-36" y="871" type="line"/>
      <point x="104" y="719" type="line"/>
    </contour>
    <contour>
      <point x="181" y="0" type="line"/>
      <point x="181" y="668" type="line"/>
      <point x="72" y="668" type="line"/>
      <point x="73" y="662"/>
      <point x="86" y="604"/>
      <point x="86" y="602" type="curve" smooth="yes"/>
      <point x="86" y="0" type="line"/>
    </contour>
  </outline>
</glyph>
<glyph name="Iacute" format="1">
  <advance width="270"/>
  <unicode hex="00CD"/>
  <outline>
    <contour>
      <point x="148" y="716" type="line"/>
      <point x="288" y="867" type="line"/>
      <point x="165" y="867" type="line"/>
      <point x="70" y="716" type="line"/>
    </contour>
    <contour>
      <point x="180" y="0" type="line"/>
      <point x="180" y="669" type="line"/>
      <point x="71" y="669" type="line"/>
      <point x="86" y="603" type="line"/>
      <point x="86" y="0" type="line"/>
    </contour>
  </outline>
</glyph>
<glyph name="Icircumflex" format="1">
  <advance width="270"/>
  <unicode hex="00CE"/>
  <outline>
    <contour>
      <point x="277" y="696" type="line"/>
      <point x="171" y="851" type="line"/>
      <point x="87" y="851" type="line"/>
      <point x="-15" y="696" type="line"/>
      <point x="53" y="696" type="line"/>
      <point x="129" y="778" type="line"/>
      <point x="207" y="696" type="line"/>
    </contour>
    <contour>
      <point x="181" y="0" type="line"/>
      <point x="181" y="668" type="line"/>
      <point x="71" y="668" type="line"/>
      <point x="86" y="602" type="line"/>
      <point x="86" y="0" type="line"/>
    </contour>
  </outline>
</glyph>
<glyph name="Idieresis" format="1">
  <advance width="270"/>
  <unicode hex="00CF"/>
  <outline>
    <contour>
      <point x="270" y="809"/>
      <point x="244" y="835"/>
      <point x="213" y="835" type="curve" smooth="yes"/>
      <point x="182" y="835"/>
      <point x="156" y="809"/>
      <point x="156" y="778" type="curve" smooth="yes"/>
      <point x="156" y="747"/>
      <point x="182" y="721"/>
      <point x="213" y="721" type="curve" smooth="yes"/>
      <point x="245" y="721"/>
      <point x="270" y="746"/>
      <point x="270" y="778" type="curve" smooth="yes"/>
    </contour>
    <contour>
      <point x="107" y="809"/>
      <point x="81" y="835"/>
      <point x="50" y="835" type="curve" smooth="yes"/>
      <point x="19" y="835"/>
      <point x="-7" y="809"/>
      <point x="-7" y="778" type="curve" smooth="yes"/>
      <point x="-7" y="747"/>
      <point x="19" y="721"/>
      <point x="50" y="721" type="curve" smooth="yes"/>
      <point x="81" y="721"/>
      <point x="107" y="747"/>
      <point x="107" y="778" type="curve" smooth="yes"/>
    </contour>
    <contour>
      <point x="180" y="0" type="line"/>
      <point x="180" y="668" type="line"/>
      <point x="71" y="668" type="line"/>
      <point x="72" y="662"/>
      <point x="85" y="604"/>
      <point x="85" y="602" type="curve" smooth="yes"/>
      <point x="85" y="0" type="line"/>
    </contour>
  </outline>
</glyph>
<glyph name="Eth" format="1">
  <advance width="714"/>
  <unicode hex="00D0"/>
  <outline>
    <contour>
      <point x="326" y="0" type="line"/>
      <point x="551" y="0"/>
      <point x="656" y="152"/>
      <point x="656" y="362" type="curve" smooth="yes"/>
      <point x="656" y="625"/>
      <point x="505" y="728"/>
      <point x="262" y="728" type="curve" smooth="yes"/>
      <point x="75" y="728" type="line"/>
      <point x="76" y="722"/>
      <point x="89" y="664"/>
      <point x="89" y="662" type="curve" smooth="yes"/>
      <point x="89" y="395" type="line"/>
      <point x="8" y="395" type="line"/>
      <point x="8" y="331" type="line"/>
      <point x="89" y="331" type="line"/>
      <point x="89" y="0" type="line"/>
    </contour>
    <contour>
      <point x="182" y="69" type="line"/>
      <point x="182" y="331" type="line"/>
      <point x="337" y="331" type="line"/>
      <point x="337" y="395" type="line"/>
      <point x="182" y="395" type="line"/>
      <point x="182" y="659" type="line"/>
      <point x="255" y="659" type="line" smooth="yes"/>
      <point x="454" y="659"/>
      <point x="559" y="575"/>
      <point x="559" y="364" type="curve" smooth="yes"/>
      <point x="559" y="202"/>
      <point x="496" y="69"/>
      <point x="314" y="69" type="curve" smooth="yes"/>
    </contour>
  </outline>
</glyph>
<glyph name="Ntilde" format="1">
  <advance width="714"/>
  <unicode hex="00D1"/>
  <outline>
    <contour>
      <point x="481" y="799" type="line"/>
      <point x="476" y="784"/>
      <point x="461" y="773"/>
      <point x="445" y="773" type="curve" smooth="yes"/>
      <point x="404" y="773"/>
      <point x="358" y="813"/>
      <point x="304" y="813" type="curve" smooth="yes"/>
      <point x="250" y="813"/>
      <point x="217" y="762"/>
      <point x="211" y="713" type="curve"/>
      <point x="260" y="713" type="line"/>
      <point x="265" y="727"/>
      <point x="279" y="739"/>
      <point x="294" y="739" type="curve" smooth="yes"/>
      <point x="345" y="739"/>
      <point x="386" y="700"/>
      <point x="443" y="700" type="curve" smooth="yes"/>
      <point x="495" y="700"/>
      <point x="523" y="754"/>
      <point x="528" y="799" type="curve"/>
    </contour>
    <contour>
      <point x="627" y="-6" type="line"/>
      <point x="627" y="668" type="line"/>
      <point x="551" y="668" type="line"/>
      <point x="551" y="180" type="line"/>
      <point x="197" y="668" type="line"/>
      <point x="73" y="668" type="line"/>
      <point x="74" y="662"/>
      <point x="87" y="604"/>
      <point x="87" y="602" type="curve" smooth="yes"/>
      <point x="87" y="0" type="line"/>
      <point x="164" y="0" type="line"/>
      <point x="164" y="557" type="line"/>
      <point x="568" y="-6" type="line"/>
    </contour>
  </outline>
</glyph>
<glyph name="Ograve" format="1">
  <advance width="737"/>
  <unicode hex="00D2"/>
  <outline>
    <contour>
      <point x="411" y="720" type="line"/>
      <point x="316" y="872" type="line"/>
      <point x="193" y="872" type="line"/>
      <point x="333" y="720" type="line"/>
    </contour>
    <contour>
      <point x="561" y="-13"/>
      <point x="691" y="147"/>
      <point x="691" y="332" type="curve" smooth="yes"/>
      <point x="691" y="518"/>
      <point x="562" y="678"/>
      <point x="369" y="678" type="curve" smooth="yes"/>
      <point x="177" y="678"/>
      <point x="47" y="517"/>
      <point x="47" y="332" type="curve" smooth="yes"/>
      <point x="47" y="148"/>
      <point x="178" y="-13"/>
      <point x="369" y="-13" type="curve" smooth="yes"/>
    </contour>
    <contour>
      <point x="220" y="55"/>
      <point x="145" y="201"/>
      <point x="145" y="333" type="curve" smooth="yes"/>
      <point x="145" y="465"/>
      <point x="221" y="610"/>
      <point x="369" y="610" type="curve" smooth="yes"/>
      <point x="518" y="610"/>
      <point x="593" y="466"/>
      <point x="593" y="333" type="curve" smooth="yes"/>
      <point x="593" y="200"/>
      <point x="519" y="55"/>
      <point x="369" y="55" type="curve" smooth="yes"/>
    </contour>
  </outline>
</glyph>
<glyph name="Oacute" format="1">
  <advance width="737"/>
  <unicode hex="00D3"/>
  <outline>
    <contour>
      <point x="387" y="718" type="line"/>
      <point x="527" y="870" type="line"/>
      <point x="404" y="870" type="line"/>
      <point x="309" y="718" type="line"/>
    </contour>
    <contour>
      <point x="561" y="-12"/>
      <point x="691" y="148"/>
      <point x="691" y="333" type="curve" smooth="yes"/>
      <point x="691" y="518"/>
      <point x="561" y="679"/>
      <point x="369" y="679" type="curve" smooth="yes"/>
      <point x="177" y="679"/>
      <point x="47" y="518"/>
      <point x="47" y="333" type="curve" smooth="yes"/>
      <point x="47" y="148"/>
      <point x="177" y="-12"/>
      <point x="369" y="-12" type="curve" smooth="yes"/>
    </contour>
    <contour>
      <point x="221" y="56"/>
      <point x="145" y="201"/>
      <point x="145" y="333" type="curve" smooth="yes"/>
      <point x="145" y="465"/>
      <point x="220" y="611"/>
      <point x="369" y="611" type="curve" smooth="yes"/>
      <point x="519" y="611"/>
      <point x="593" y="466"/>
      <point x="593" y="333" type="curve" smooth="yes"/>
      <point x="593" y="200"/>
      <point x="518" y="56"/>
      <point x="369" y="56" type="curve" smooth="yes"/>
    </contour>
  </outline>
</glyph>
<glyph name="Ocircumflex" format="1">
  <advance width="737"/>
  <unicode hex="00D4"/>
  <outline>
    <contour>
      <point x="512" y="694" type="line"/>
      <point x="406" y="849" type="line"/>
      <point x="323" y="849" type="line"/>
      <point x="221" y="694" type="line"/>
      <point x="288" y="694" type="line"/>
      <point x="364" y="776" type="line"/>
      <point x="443" y="694" type="line"/>
    </contour>
    <contour>
      <point x="561" y="-13"/>
      <point x="691" y="147"/>
      <point x="691" y="332" type="curve" smooth="yes"/>
      <point x="691" y="518"/>
      <point x="562" y="678"/>
      <point x="369" y="678" type="curve" smooth="yes"/>
      <point x="177" y="678"/>
      <point x="47" y="517"/>
      <point x="47" y="332" type="curve" smooth="yes"/>
      <point x="47" y="148"/>
      <point x="178" y="-13"/>
      <point x="369" y="-13" type="curve" smooth="yes"/>
    </contour>
    <contour>
      <point x="220" y="55"/>
      <point x="145" y="201"/>
      <point x="145" y="333" type="curve" smooth="yes"/>
      <point x="145" y="465"/>
      <point x="221" y="610"/>
      <point x="369" y="610" type="curve" smooth="yes"/>
      <point x="518" y="610"/>
      <point x="593" y="466"/>
      <point x="593" y="333" type="curve" smooth="yes"/>
      <point x="593" y="200"/>
      <point x="519" y="55"/>
      <point x="369" y="55" type="curve" smooth="yes"/>
    </contour>
  </outline>
</glyph>
<glyph name="Otilde" format="1">
  <advance width="736"/>
  <unicode hex="00D5"/>
  <outline>
    <contour>
      <point x="486" y="801" type="line"/>
      <point x="481" y="786"/>
      <point x="466" y="775"/>
      <point x="450" y="775" type="curve" smooth="yes"/>
      <point x="412" y="775"/>
      <point x="363" y="814"/>
      <point x="310" y="814" type="curve" smooth="yes"/>
      <point x="255" y="814"/>
      <point x="222" y="763"/>
      <point x="216" y="714" type="curve"/>
      <point x="265" y="714" type="line"/>
      <point x="271" y="728"/>
      <point x="282" y="741"/>
      <point x="299" y="741" type="curve" smooth="yes"/>
      <point x="350" y="741"/>
      <point x="391" y="702"/>
      <point x="448" y="702" type="curve" smooth="yes"/>
      <point x="500" y="702"/>
      <point x="528" y="756"/>
      <point x="534" y="801" type="curve"/>
    </contour>
    <contour>
      <point x="560" y="-12"/>
      <point x="690" y="148"/>
      <point x="690" y="333" type="curve" smooth="yes"/>
      <point x="690" y="518"/>
      <point x="560" y="679"/>
      <point x="368" y="679" type="curve" smooth="yes"/>
      <point x="176" y="679"/>
      <point x="46" y="518"/>
      <point x="46" y="333" type="curve" smooth="yes"/>
      <point x="46" y="148"/>
      <point x="176" y="-12"/>
      <point x="368" y="-12" type="curve" smooth="yes"/>
    </contour>
    <contour>
      <point x="220" y="56"/>
      <point x="144" y="201"/>
      <point x="144" y="333" type="curve" smooth="yes"/>
      <point x="144" y="465"/>
      <point x="219" y="611"/>
      <point x="368" y="611" type="curve" smooth="yes"/>
      <point x="518" y="611"/>
      <point x="592" y="466"/>
      <point x="592" y="333" type="curve" smooth="yes"/>
      <point x="592" y="200"/>
      <point x="517" y="56"/>
      <point x="368" y="56" type="curve" smooth="yes"/>
    </contour>
  </outline>
</glyph>
<glyph name="Odieresis" format="1">
  <advance width="737"/>
  <unicode hex="00D6"/>
  <outline>
    <contour>
      <point x="505" y="805"/>
      <point x="479" y="831"/>
      <point x="448" y="831" type="curve" smooth="yes"/>
      <point x="417" y="831"/>
      <point x="391" y="805"/>
      <point x="391" y="774" type="curve" smooth="yes"/>
      <point x="391" y="743"/>
      <point x="417" y="717"/>
      <point x="448" y="717" type="curve" smooth="yes"/>
      <point x="479" y="717"/>
      <point x="505" y="743"/>
      <point x="505" y="774" type="curve" smooth="yes"/>
    </contour>
    <contour>
      <point x="342" y="805"/>
      <point x="316" y="831"/>
      <point x="285" y="831" type="curve" smooth="yes"/>
      <point x="254" y="831"/>
      <point x="228" y="805"/>
      <point x="228" y="774" type="curve" smooth="yes"/>
      <point x="228" y="743"/>
      <point x="254" y="717"/>
      <point x="285" y="717" type="curve" smooth="yes"/>
      <point x="316" y="717"/>
      <point x="342" y="743"/>
      <point x="342" y="774" type="curve" smooth="yes"/>
    </contour>
    <contour>
      <point x="561" y="-12"/>
      <point x="691" y="148"/>
      <point x="691" y="333" type="curve" smooth="yes"/>
      <point x="691" y="518"/>
      <point x="561" y="679"/>
      <point x="369" y="679" type="curve" smooth="yes"/>
      <point x="177" y="679"/>
      <point x="47" y="518"/>
      <point x="47" y="333" type="curve" smooth="yes"/>
      <point x="47" y="148"/>
      <point x="177" y="-12"/>
      <point x="369" y="-12" type="curve" smooth="yes"/>
    </contour>
    <contour>
      <point x="221" y="56"/>
      <point x="145" y="201"/>
      <point x="145" y="333" type="curve" smooth="yes"/>
      <point x="145" y="465"/>
      <point x="220" y="611"/>
      <point x="369" y="611" type="curve" smooth="yes"/>
      <point x="519" y="611"/>
      <point x="593" y="466"/>
      <point x="593" y="333" type="curve" smooth="yes"/>
      <point x="593" y="200"/>
      <point x="518" y="56"/>
      <point x="369" y="56" type="curve" smooth="yes"/>
    </contour>
  </outline>
</glyph>
<glyph name="Oslash" format="1">
  <advance width="736"/>
  <unicode hex="00D8"/>
  <outline>
    <contour>
      <point x="126" y="-57" type="line"/>
      <point x="189" y="39" type="line"/>
      <point x="241" y="3"/>
      <point x="302" y="-13"/>
      <point x="365" y="-13" type="curve" smooth="yes"/>
      <point x="581" y="-13"/>
      <point x="690" y="161"/>
      <point x="690" y="361" type="curve" smooth="yes"/>
      <point x="690" y="465"/>
      <point x="663" y="576"/>
      <point x="588" y="652" type="curve"/>
      <point x="643" y="736" type="line"/>
      <point x="589" y="767" type="line"/>
      <point x="539" y="690" type="line"/>
      <point x="489" y="722"/>
      <point x="430" y="736"/>
      <point x="371" y="736" type="curve" smooth="yes"/>
      <point x="152" y="736"/>
      <point x="46" y="566"/>
      <point x="46" y="363" type="curve" smooth="yes"/>
      <point x="46" y="260"/>
      <point x="70" y="155"/>
      <point x="142" y="78" type="curve"/>
      <point x="74" y="-24" type="line"/>
    </contour>
    <contour>
      <point x="395" y="468"/>
      <point x="294" y="313"/>
      <point x="192" y="158" type="curve"/>
      <point x="155" y="220"/>
      <point x="144" y="295"/>
      <point x="144" y="366" type="curve" smooth="yes"/>
      <point x="144" y="509"/>
      <point x="200" y="668"/>
      <point x="368" y="668" type="curve" smooth="yes"/>
      <point x="414" y="668"/>
      <point x="460" y="654"/>
      <point x="495" y="624" type="curve"/>
    </contour>
    <contour>
      <point x="580" y="511"/>
      <point x="592" y="430"/>
      <point x="592" y="355" type="curve" smooth="yes"/>
      <point x="592" y="213"/>
      <point x="537" y="55"/>
      <point x="370" y="55" type="curve" smooth="yes"/>
      <point x="318" y="55"/>
      <point x="270" y="71"/>
      <point x="232" y="107" type="curve"/>
      <point x="334" y="263"/>
      <point x="436" y="419"/>
      <point x="539" y="575" type="curve"/>
    </contour>
  </outline>
</glyph>
<glyph name="Ugrave" format="1">
  <advance width="707"/>
  <unicode hex="00D9"/>
  <outline>
    <contour>
      <point x="404" y="721" type="line"/>
      <point x="309" y="872" type="line"/>
      <point x="187" y="872" type="line"/>
      <point x="327" y="721" type="line"/>
    </contour>
    <contour>
      <point x="543" y="257" type="line"/>
      <point x="543" y="139"/>
      <point x="478" y="56"/>
      <point x="355" y="56" type="curve" smooth="yes"/>
      <point x="235" y="56"/>
      <point x="181" y="129"/>
      <point x="181" y="243" type="curve" smooth="yes"/>
      <point x="181" y="668" type="line"/>
      <point x="71" y="668" type="line"/>
      <point x="72" y="663"/>
      <point x="86" y="605"/>
      <point x="86" y="603" type="curve" smooth="yes"/>
      <point x="86" y="243" type="line" smooth="yes"/>
      <point x="86" y="75"/>
      <point x="184" y="-13"/>
      <point x="351" y="-13" type="curve" smooth="yes"/>
      <point x="522" y="-13"/>
      <point x="620" y="88"/>
      <point x="620" y="257" type="curve"/>
      <point x="620" y="668" type="line"/>
      <point x="543" y="668" type="line"/>
    </contour>
  </outline>
</glyph>
<glyph name="Uacute" format="1">
  <advance width="707"/>
  <unicode hex="00DA"/>
  <outline>
    <contour>
      <point x="392" y="717" type="line"/>
      <point x="532" y="868" type="line"/>
      <point x="410" y="868" type="line"/>
      <point x="315" y="717" type="line"/>
    </contour>
    <contour>
      <point x="543" y="258" type="line"/>
      <point x="543" y="140"/>
      <point x="478" y="57"/>
      <point x="355" y="57" type="curve" smooth="yes"/>
      <point x="235" y="57"/>
      <point x="181" y="130"/>
      <point x="181" y="244" type="curve" smooth="yes"/>
      <point x="181" y="669" type="line"/>
      <point x="71" y="669" type="line"/>
      <point x="72" y="664"/>
      <point x="86" y="606"/>
      <point x="86" y="604" type="curve" smooth="yes"/>
      <point x="86" y="244" type="line" smooth="yes"/>
      <point x="86" y="76"/>
      <point x="184" y="-12"/>
      <point x="351" y="-12" type="curve" smooth="yes"/>
      <point x="522" y="-12"/>
      <point x="620" y="89"/>
      <point x="620" y="258" type="curve"/>
      <point x="620" y="669" type="line"/>
      <point x="543" y="669" type="line"/>
    </contour>
  </outline>
</glyph>
<glyph name="Udieresis" format="1">
  <advance width="707"/>
  <unicode hex="00DC"/>
  <outline>
    <contour>
      <point x="477" y="717"/>
      <point x="502" y="743"/>
      <point x="502" y="774" type="curve" smooth="yes"/>
      <point x="502" y="805"/>
      <point x="477" y="831"/>
      <point x="446" y="831" type="curve" smooth="yes"/>
      <point x="415" y="831"/>
      <point x="389" y="805"/>
      <point x="389" y="774" type="curve" smooth="yes"/>
      <point x="389" y="743"/>
      <point x="415" y="717"/>
      <point x="446" y="717" type="curve" smooth="yes"/>
    </contour>
    <contour>
      <point x="339" y="805"/>
      <point x="313" y="831"/>
      <point x="282" y="831" type="curve" smooth="yes"/>
      <point x="251" y="831"/>
      <point x="226" y="805"/>
      <point x="226" y="774" type="curve" smooth="yes"/>
      <point x="226" y="743"/>
      <point x="251" y="717"/>
      <point x="282" y="717" type="curve" smooth="yes"/>
      <point x="313" y="717"/>
      <point x="339" y="743"/>
      <point x="339" y="774" type="curve" smooth="yes"/>
    </contour>
    <contour>
      <point x="543" y="258" type="line"/>
      <point x="543" y="140"/>
      <point x="478" y="57"/>
      <point x="355" y="57" type="curve" smooth="yes"/>
      <point x="235" y="57"/>
      <point x="181" y="130"/>
      <point x="181" y="244" type="curve" smooth="yes"/>
      <point x="181" y="669" type="line"/>
      <point x="71" y="669" type="line"/>
      <point x="72" y="664"/>
      <point x="86" y="606"/>
      <point x="86" y="604" type="curve" smooth="yes"/>
      <point x="86" y="244" type="line" smooth="yes"/>
      <point x="86" y="75"/>
      <point x="183" y="-12"/>
      <point x="351" y="-12" type="curve" smooth="yes"/>
      <point x="522" y="-12"/>
      <point x="620" y="89"/>
      <point x="620" y="258" type="curve"/>
      <point x="620" y="669" type="line"/>
      <point x="543" y="669" type="line"/>
    </contour>
  </outline>
</glyph>
<glyph name="Yacute" format="1">
  <advance width="584"/>
  <unicode hex="00DD"/>
  <outline>
    <contour>
      <point x="344" y="717" type="line"/>
      <point x="484" y="868" type="line"/>
      <point x="362" y="868" type="line"/>
      <point x="267" y="717" type="line"/>
    </contour>
    <contour>
      <point x="343" y="0" type="line"/>
      <point x="343" y="300" type="line"/>
      <point x="553" y="669" type="line"/>
      <point x="465" y="669" type="line"/>
      <point x="308" y="385" type="line"/>
      <point x="139" y="669" type="line"/>
      <point x="32" y="669" type="line"/>
      <point x="248" y="300" type="line"/>
      <point x="248" y="0" type="line"/>
    </contour>
  </outline>
</glyph>
<glyph name="Thorn" format="1">
  <advance width="575"/>
  <unicode hex="00DE"/>
  <outline>
    <contour>
      <point x="182" y="251" type="line"/>
      <point x="182" y="542" type="line"/>
      <point x="290" y="542" type="line" smooth="yes"/>
      <point x="385" y="542"/>
      <point x="435" y="488"/>
      <point x="435" y="400" type="curve"/>
      <point x="435" y="312"/>
      <point x="379" y="251"/>
      <point x="289" y="251" type="curve"/>
    </contour>
    <contour>
      <point x="182" y="1" type="line"/>
      <point x="182" y="183" type="line"/>
      <point x="283" y="183" type="line" smooth="yes"/>
      <point x="417" y="183"/>
      <point x="533" y="250"/>
      <point x="533" y="400" type="curve"/>
      <point x="533" y="555"/>
      <point x="424" y="611"/>
      <point x="282" y="611" type="curve"/>
      <point x="183" y="611" type="line"/>
      <point x="183" y="728" type="line"/>
      <point x="74" y="728" type="line"/>
      <point x="89" y="662" type="line"/>
      <point x="89" y="1" type="line"/>
    </contour>
  </outline>
</glyph>
<glyph name="germandbls" format="1">
  <advance width="552"/>
  <unicode hex="00DF"/>
  <outline>
    <contour>
      <point x="236" y="8" type="line"/>
      <point x="267" y="-4"/>
      <point x="308" y="-12"/>
      <point x="341" y="-12" type="curve" smooth="yes"/>
      <point x="459" y="-12"/>
      <point x="535" y="65"/>
      <point x="535" y="184" type="curve" smooth="yes"/>
      <point x="535" y="292"/>
      <point x="450" y="334"/>
      <point x="367" y="373" type="curve" smooth="yes"/>
      <point x="340" y="386"/>
      <point x="322" y="395"/>
      <point x="322" y="404" type="curve" smooth="yes"/>
      <point x="322" y="410"/>
      <point x="336" y="417"/>
      <point x="351" y="426" type="curve" smooth="yes"/>
      <point x="416" y="465"/>
      <point x="474" y="485"/>
      <point x="474" y="583" type="curve" smooth="yes"/>
      <point x="474" y="687"/>
      <point x="409" y="741"/>
      <point x="306" y="741" type="curve" smooth="yes"/>
      <point x="192" y="741"/>
      <point x="138" y="671"/>
      <point x="115" y="568" type="curve" smooth="yes"/>
      <point x="102" y="509"/>
      <point x="91" y="489"/>
      <point x="28" y="489" type="curve"/>
      <point x="28" y="434" type="line"/>
      <point x="102" y="434" type="line"/>
      <point x="102" y="0" type="line"/>
      <point x="185" y="0" type="line"/>
      <point x="185" y="474" type="line" smooth="yes"/>
      <point x="185" y="553"/>
      <point x="205" y="671"/>
      <point x="306" y="671" type="curve" smooth="yes"/>
      <point x="362" y="671"/>
      <point x="386" y="636"/>
      <point x="386" y="582" type="curve" smooth="yes"/>
      <point x="386" y="480"/>
      <point x="249" y="467"/>
      <point x="249" y="400" type="curve" smooth="yes"/>
      <point x="249" y="304"/>
      <point x="447" y="305"/>
      <point x="447" y="169" type="curve" smooth="yes"/>
      <point x="447" y="96"/>
      <point x="390" y="53"/>
      <point x="333" y="53" type="curve" smooth="yes"/>
      <point x="311" y="53"/>
      <point x="286" y="60"/>
      <point x="264" y="66" type="curve"/>
    </contour>
  </outline>
</glyph>
<glyph name="ae" format="1">
  <advance width="750"/>
  <unicode hex="00E6"/>
  <outline>
    <contour>
      <point x="677" y="102" type="line"/>
      <point x="645" y="73"/>
      <point x="589" y="57"/>
      <point x="547" y="57" type="curve" smooth="yes"/>
      <point x="460" y="57"/>
      <point x="405" y="145"/>
      <point x="405" y="224" type="curve" smooth="yes"/>
      <point x="405" y="241" type="line"/>
      <point x="659" y="241" type="line" smooth="yes"/>
      <point x="709" y="241"/>
      <point x="720" y="273"/>
      <point x="720" y="317" type="curve" smooth="yes"/>
      <point x="720" y="438"/>
      <point x="656" y="509"/>
      <point x="533" y="509" type="curve" smooth="yes"/>
      <point x="480" y="509"/>
      <point x="422" y="484"/>
      <point x="386" y="444" type="curve"/>
      <point x="357" y="491"/>
      <point x="301" y="509"/>
      <point x="248" y="509" type="curve" smooth="yes"/>
      <point x="195" y="509"/>
      <point x="96" y="486"/>
      <point x="59" y="443" type="curve"/>
      <point x="100" y="385" type="line"/>
      <point x="134" y="423"/>
      <point x="195" y="444"/>
      <point x="244" y="444" type="curve" smooth="yes"/>
      <point x="311" y="444"/>
      <point x="328" y="382"/>
      <point x="328" y="327" type="curve" smooth="yes"/>
      <point x="328" y="319"/>
      <point x="328" y="311"/>
      <point x="327" y="303" type="curve"/>
      <point x="206" y="303"/>
      <point x="41" y="274"/>
      <point x="41" y="122" type="curve" smooth="yes"/>
      <point x="41" y="38"/>
      <point x="96" y="-12"/>
      <point x="179" y="-12" type="curve" smooth="yes"/>
      <point x="262" y="-12"/>
      <point x="313" y="17"/>
      <point x="359" y="85" type="curve"/>
      <point x="406" y="22"/>
      <point x="471" y="-13"/>
      <point x="551" y="-13" type="curve" smooth="yes"/>
      <point x="607" y="-13"/>
      <point x="672" y="7"/>
      <point x="717" y="41" type="curve"/>
    </contour>
    <contour>
      <point x="411" y="303" type="line"/>
      <point x="421" y="373"/>
      <point x="464" y="446"/>
      <point x="543" y="446" type="curve" smooth="yes"/>
      <point x="615" y="446"/>
      <point x="639" y="387"/>
      <point x="639" y="325" type="curve" smooth="yes"/>
      <point x="639" y="307"/>
      <point x="632" y="303"/>
      <point x="615" y="303" type="curve" smooth="yes"/>
    </contour>
    <contour>
      <point x="326" y="204" type="line"/>
      <point x="326" y="133"/>
      <point x="284" y="59"/>
      <point x="205" y="59" type="curve" smooth="yes"/>
      <point x="162" y="59"/>
      <point x="127" y="82"/>
      <point x="127" y="128" type="curve" smooth="yes"/>
      <point x="127" y="218"/>
      <point x="241" y="239"/>
      <point x="312" y="239" type="curve" smooth="yes"/>
      <point x="326" y="239" type="line"/>
    </contour>
  </outline>
</glyph>
<glyph name="ccedilla" format="1">
  <advance width="450"/>
  <unicode hex="00E7"/>
  <outline>
    <contour>
      <point x="151" y="-192" type="line"/>
      <point x="178" y="-209"/>
      <point x="208" y="-220"/>
      <point x="239" y="-220" type="curve" smooth="yes"/>
      <point x="297" y="-220"/>
      <point x="366" y="-204"/>
      <point x="366" y="-127" type="curve" smooth="yes"/>
      <point x="366" y="-68"/>
      <point x="310" y="-46"/>
      <point x="262" y="-46" type="curve"/>
      <point x="250" y="-46" type="line"/>
      <point x="268" y="-13" type="line"/>
      <point x="339" y="-13"/>
      <point x="374" y="1"/>
      <point x="433" y="37" type="curve"/>
      <point x="395" y="100" type="line"/>
      <point x="353" y="71"/>
      <point x="326" y="56"/>
      <point x="274" y="56" type="curve" smooth="yes"/>
      <point x="173" y="56"/>
      <point x="133" y="174"/>
      <point x="133" y="257" type="curve" smooth="yes"/>
      <point x="133" y="336"/>
      <point x="174" y="444"/>
      <point x="269" y="444" type="curve" smooth="yes"/>
      <point x="318" y="444"/>
      <point x="344" y="432"/>
      <point x="381" y="400" type="curve"/>
      <point x="426" y="458" type="line"/>
      <point x="388" y="487"/>
      <point x="330" y="509"/>
      <point x="282" y="509" type="curve" smooth="yes"/>
      <point x="130" y="509"/>
      <point x="44" y="393"/>
      <point x="44" y="248" type="curve" smooth="yes"/>
      <point x="44" y="134"/>
      <point x="111" y="17"/>
      <point x="223" y="-8" type="curve"/>
      <point x="184" y="-77" type="line"/>
      <point x="183" y="-79"/>
      <point x="182" y="-81"/>
      <point x="182" y="-83" type="curve" smooth="yes"/>
      <point x="182" y="-89"/>
      <point x="188" y="-95"/>
      <point x="198" y="-95" type="curve" smooth="yes"/>
      <point x="245" y="-95" type="line" smooth="yes"/>
      <point x="267" y="-95"/>
      <point x="283" y="-108"/>
      <point x="283" y="-130" type="curve" smooth="yes"/>
      <point x="283" y="-153"/>
      <point x="262" y="-169"/>
      <point x="239" y="-169" type="curve" smooth="yes"/>
      <point x="221" y="-169"/>
      <point x="197" y="-158"/>
      <point x="175" y="-146" type="curve"/>
    </contour>
  </outline>
</glyph>
<glyph name="eth" format="1">
  <advance width="536"/>
  <unicode hex="00F0"/>
  <outline>
    <contour>
      <point x="400" y="729" type="line"/>
      <point x="372" y="771" type="line"/>
      <point x="265" y="712" type="line"/>
      <point x="243" y="737"/>
      <point x="221" y="757"/>
      <point x="205" y="772" type="curve"/>
      <point x="150" y="739" type="line"/>
      <point x="167" y="723"/>
      <point x="187" y="703"/>
      <point x="207" y="680" type="curve"/>
      <point x="103" y="622" type="line"/>
      <point x="134" y="582" type="line"/>
      <point x="239" y="640" type="line"/>
      <point x="273" y="597"/>
      <point x="307" y="546"/>
      <point x="335" y="492" type="curve"/>
      <point x="315" y="500"/>
      <point x="293" y="505"/>
      <point x="268" y="505" type="curve"/>
      <point x="126" y="505"/>
      <point x="45" y="384"/>
      <point x="45" y="247" type="curve"/>
      <point x="45" y="110"/>
      <point x="125" y="-10"/>
      <point x="268" y="-10" type="curve"/>
      <point x="411" y="-10"/>
      <point x="491" y="110"/>
      <point x="491" y="247" type="curve"/>
      <point x="491" y="406"/>
      <point x="390" y="564"/>
      <point x="299" y="673" type="curve"/>
    </contour>
    <contour>
      <point x="403" y="166"/>
      <point x="373" y="50"/>
      <point x="268" y="50" type="curve"/>
      <point x="164" y="50"/>
      <point x="133" y="167"/>
      <point x="133" y="247" type="curve"/>
      <point x="133" y="326"/>
      <point x="164" y="445"/>
      <point x="268" y="445" type="curve"/>
      <point x="373" y="445"/>
      <point x="403" y="328"/>
      <point x="403" y="247" type="curve"/>
    </contour>
  </outline>
</glyph>
<glyph name="ntilde" format="1">
  <advance width="547"/>
  <unicode hex="00F1"/>
  <outline>
    <contour>
      <point x="388" y="672" type="line"/>
      <point x="380" y="657"/>
      <point x="370" y="646"/>
      <point x="352" y="646" type="curve" smooth="yes"/>
      <point x="312" y="646"/>
      <point x="265" y="685"/>
      <point x="211" y="685" type="curve" smooth="yes"/>
      <point x="157" y="685"/>
      <point x="124" y="634"/>
      <point x="117" y="585" type="curve"/>
      <point x="167" y="585" type="line"/>
      <point x="171" y="600"/>
      <point x="186" y="612"/>
      <point x="201" y="612" type="curve" smooth="yes"/>
      <point x="252" y="612"/>
      <point x="293" y="573"/>
      <point x="350" y="573" type="curve" smooth="yes"/>
      <point x="402" y="573"/>
      <point x="430" y="627"/>
      <point x="435" y="672" type="curve"/>
    </contour>
    <contour>
      <point x="464" y="0" type="line"/>
      <point x="464" y="332" type="line" smooth="yes"/>
      <point x="464" y="435"/>
      <point x="422" y="509"/>
      <point x="312" y="509" type="curve" smooth="yes"/>
      <point x="254" y="509"/>
      <point x="197" y="474"/>
      <point x="157" y="434" type="curve"/>
      <point x="154" y="458"/>
      <point x="147" y="482"/>
      <point x="138" y="505" type="curve"/>
      <point x="47" y="493" type="line"/>
      <point x="72" y="459"/>
      <point x="80" y="392"/>
      <point x="80" y="352" type="curve" smooth="yes"/>
      <point x="80" y="0" type="line"/>
      <point x="162" y="0" type="line"/>
      <point x="162" y="369" type="line"/>
      <point x="197" y="402"/>
      <point x="249" y="435"/>
      <point x="298" y="435" type="curve" smooth="yes"/>
      <point x="378" y="435"/>
      <point x="382" y="367"/>
      <point x="382" y="305" type="curve" smooth="yes"/>
      <point x="382" y="0" type="line"/>
    </contour>
  </outline>
</glyph>
<glyph name="ocircumflex" format="1">
  <advance width="536"/>
  <unicode hex="00F4"/>
  <outline>
    <contour>
      <point x="415" y="572" type="line"/>
      <point x="309" y="727" type="line"/>
      <point x="226" y="727" type="line"/>
      <point x="124" y="573" type="line"/>
      <point x="191" y="573" type="line"/>
      <point x="267" y="654" type="line"/>
      <point x="346" y="572" type="line"/>
    </contour>
    <contour>
      <point x="416" y="-13"/>
      <point x="493" y="112"/>
      <point x="493" y="248" type="curve" smooth="yes"/>
      <point x="493" y="384"/>
      <point x="416" y="509"/>
      <point x="268" y="509" type="curve" smooth="yes"/>
      <point x="123" y="509"/>
      <point x="44" y="382"/>
      <point x="44" y="248" type="curve" smooth="yes"/>
      <point x="44" y="113"/>
      <point x="121" y="-13"/>
      <point x="268" y="-13" type="curve" smooth="yes"/>
    </contour>
    <contour>
      <point x="171" y="50"/>
      <point x="132" y="169"/>
      <point x="132" y="248" type="curve" smooth="yes"/>
      <point x="132" y="333"/>
      <point x="165" y="446"/>
      <point x="268" y="446" type="curve" smooth="yes"/>
      <point x="370" y="446"/>
      <point x="405" y="332"/>
      <point x="405" y="248" type="curve" smooth="yes"/>
      <point x="405" y="163"/>
      <point x="372" y="50"/>
      <point x="268" y="50" type="curve" smooth="yes"/>
    </contour>
  </outline>
</glyph>
<glyph name="otilde" format="1">
  <advance width="536"/>
  <unicode hex="00F5"/>
  <outline>
    <contour>
      <point x="391" y="672" type="line"/>
      <point x="386" y="657"/>
      <point x="371" y="646"/>
      <point x="355" y="646" type="curve" smooth="yes"/>
      <point x="315" y="646"/>
      <point x="268" y="685"/>
      <point x="215" y="685" type="curve" smooth="yes"/>
      <point x="160" y="685"/>
      <point x="127" y="634"/>
      <point x="121" y="585" type="curve"/>
      <point x="170" y="585" type="line"/>
      <point x="176" y="599"/>
      <point x="187" y="612"/>
      <point x="204" y="612" type="curve" smooth="yes"/>
      <point x="255" y="612"/>
      <point x="296" y="573"/>
      <point x="353" y="573" type="curve" smooth="yes"/>
      <point x="405" y="573"/>
      <point x="433" y="627"/>
      <point x="438" y="672" type="curve"/>
    </contour>
    <contour>
      <point x="416" y="-13"/>
      <point x="493" y="112"/>
      <point x="493" y="248" type="curve" smooth="yes"/>
      <point x="493" y="384"/>
      <point x="416" y="509"/>
      <point x="268" y="509" type="curve" smooth="yes"/>
      <point x="123" y="509"/>
      <point x="44" y="382"/>
      <point x="44" y="248" type="curve" smooth="yes"/>
      <point x="44" y="113"/>
      <point x="121" y="-13"/>
      <point x="268" y="-13" type="curve" smooth="yes"/>
    </contour>
    <contour>
      <point x="171" y="50"/>
      <point x="132" y="169"/>
      <point x="132" y="248" type="curve" smooth="yes"/>
      <point x="132" y="333"/>
      <point x="165" y="446"/>
      <point x="268" y="446" type="curve" smooth="yes"/>
      <point x="370" y="446"/>
      <point x="405" y="332"/>
      <point x="405" y="248" type="curve" smooth="yes"/>
      <point x="405" y="163"/>
      <point x="372" y="50"/>
      <point x="268" y="50" type="curve" smooth="yes"/>
    </contour>
  </outline>
</glyph>
<glyph name="odieresis" format="1">
  <advance width="536"/>
  <unicode hex="00F6"/>
  <outline>
    <contour>
      <point x="410" y="655"/>
      <point x="384" y="681"/>
      <point x="353" y="681" type="curve" smooth="yes"/>
      <point x="322" y="681"/>
      <point x="296" y="655"/>
      <point x="296" y="624" type="curve" smooth="yes"/>
      <point x="296" y="593"/>
      <point x="322" y="567"/>
      <point x="353" y="567" type="curve" smooth="yes"/>
      <point x="384" y="567"/>
      <point x="410" y="593"/>
      <point x="410" y="624" type="curve" smooth="yes"/>
    </contour>
    <contour>
      <point x="221" y="567"/>
      <point x="246" y="593"/>
      <point x="246" y="624" type="curve" smooth="yes"/>
      <point x="246" y="655"/>
      <point x="221" y="681"/>
      <point x="190" y="681" type="curve" smooth="yes"/>
      <point x="159" y="681"/>
      <point x="133" y="655"/>
      <point x="133" y="624" type="curve" smooth="yes"/>
      <point x="133" y="593"/>
      <point x="159" y="567"/>
      <point x="190" y="567" type="curve" smooth="yes"/>
    </contour>
    <contour>
      <point x="416" y="-13"/>
      <point x="493" y="112"/>
      <point x="493" y="248" type="curve" smooth="yes"/>
      <point x="493" y="384"/>
      <point x="416" y="509"/>
      <point x="268" y="509" type="curve" smooth="yes"/>
      <point x="123" y="509"/>
      <point x="44" y="382"/>
      <point x="44" y="248" type="curve" smooth="yes"/>
      <point x="44" y="113"/>
      <point x="121" y="-13"/>
      <point x="268" y="-13" type="curve" smooth="yes"/>
    </contour>
    <contour>
      <point x="171" y="50"/>
      <point x="132" y="169"/>
      <point x="132" y="248" type="curve" smooth="yes"/>
      <point x="132" y="333"/>
      <point x="165" y="446"/>
      <point x="268" y="446" type="curve" smooth="yes"/>
      <point x="370" y="446"/>
      <point x="405" y="332"/>
      <point x="405" y="248" type="curve" smooth="yes"/>
      <point x="405" y="163"/>
      <point x="372" y="50"/>
      <point x="268" y="50" type="curve" smooth="yes"/>
    </contour>
  </outline>
</glyph>
<glyph name="oslash" format="1">
  <advance width="537"/>
  <unicode hex="00F8"/>
  <outline>
    <contour>
      <point x="101" y="-69" type="line"/>
      <point x="157" y="17" type="line"/>
      <point x="190" y="-3"/>
      <point x="229" y="-13"/>
      <point x="268" y="-13" type="curve" smooth="yes"/>
      <point x="416" y="-13"/>
      <point x="493" y="112"/>
      <point x="493" y="248" type="curve" smooth="yes"/>
      <point x="493" y="319"/>
      <point x="472" y="394"/>
      <point x="421" y="446" type="curve"/>
      <point x="470" y="526" type="line"/>
      <point x="420" y="553" type="line"/>
      <point x="376" y="482" type="line"/>
      <point x="344" y="499"/>
      <point x="304" y="509"/>
      <point x="268" y="509" type="curve" smooth="yes"/>
      <point x="123" y="509"/>
      <point x="44" y="382"/>
      <point x="44" y="248" type="curve" smooth="yes"/>
      <point x="44" y="178"/>
      <point x="64" y="105"/>
      <point x="113" y="53" type="curve"/>
      <point x="54" y="-38" type="line"/>
    </contour>
    <contour>
      <point x="158" y="127" type="line"/>
      <point x="138" y="161"/>
      <point x="129" y="209"/>
      <point x="129" y="248" type="curve" smooth="yes"/>
      <point x="129" y="334"/>
      <point x="165" y="446"/>
      <point x="268" y="446" type="curve" smooth="yes"/>
      <point x="294" y="446"/>
      <point x="319" y="437"/>
      <point x="339" y="422" type="curve"/>
    </contour>
    <contour>
      <point x="378" y="375" type="line"/>
      <point x="399" y="337"/>
      <point x="407" y="291"/>
      <point x="407" y="248" type="curve" smooth="yes"/>
      <point x="407" y="162"/>
      <point x="372" y="50"/>
      <point x="268" y="50" type="curve" smooth="yes"/>
      <point x="241" y="50"/>
      <point x="214" y="61"/>
      <point x="194" y="79" type="curve"/>
    </contour>
  </outline>
</glyph>
<glyph name="uacute" format="1">
  <advance width="553"/>
  <unicode hex="00FA"/>
  <outline>
    <contour>
      <point x="304" y="575" type="line"/>
      <point x="444" y="727" type="line"/>
      <point x="322" y="727" type="line"/>
      <point x="227" y="575" type="line"/>
    </contour>
    <contour>
      <point x="534" y="73" type="line"/>
      <point x="529" y="71"/>
      <point x="489" y="59"/>
      <point x="487" y="59" type="curve" smooth="yes"/>
      <point x="468" y="59"/>
      <point x="465" y="73"/>
      <point x="465" y="97" type="curve" smooth="yes"/>
      <point x="465" y="497" type="line"/>
      <point x="369" y="497" type="line"/>
      <point x="370" y="492"/>
      <point x="382" y="440"/>
      <point x="382" y="438" type="curve" smooth="yes"/>
      <point x="382" y="188" type="line" smooth="yes"/>
      <point x="382" y="112"/>
      <point x="319" y="61"/>
      <point x="246" y="61" type="curve" smooth="yes"/>
      <point x="170" y="61"/>
      <point x="163" y="132"/>
      <point x="163" y="191" type="curve" smooth="yes"/>
      <point x="163" y="497" type="line"/>
      <point x="67" y="497" type="line"/>
      <point x="68" y="492"/>
      <point x="80" y="440"/>
      <point x="80" y="438" type="curve" smooth="yes"/>
      <point x="80" y="164" type="line" smooth="yes"/>
      <point x="80" y="61"/>
      <point x="122" y="-13"/>
      <point x="232" y="-13" type="curve" smooth="yes"/>
      <point x="289" y="-13"/>
      <point x="346" y="19"/>
      <point x="385" y="59" type="curve"/>
      <point x="391" y="21"/>
      <point x="414" y="-9"/>
      <point x="455" y="-9" type="curve" smooth="yes"/>
      <point x="487" y="-9"/>
      <point x="522" y="10"/>
      <point x="551" y="21" type="curve"/>
    </contour>
  </outline>
</glyph>
<glyph name="udieresis" format="1">
  <advance width="553"/>
  <unicode hex="00FC"/>
  <outline>
    <contour>
      <point x="406" y="655"/>
      <point x="380" y="681"/>
      <point x="349" y="681" type="curve" smooth="yes"/>
      <point x="317" y="681"/>
      <point x="292" y="656"/>
      <point x="292" y="624" type="curve" smooth="yes"/>
      <point x="292" y="593"/>
      <point x="318" y="567"/>
      <point x="349" y="567" type="curve" smooth="yes"/>
      <point x="380" y="567"/>
      <point x="406" y="593"/>
      <point x="406" y="624" type="curve" smooth="yes"/>
    </contour>
    <contour>
      <point x="217" y="567"/>
      <point x="242" y="593"/>
      <point x="242" y="624" type="curve" smooth="yes"/>
      <point x="242" y="655"/>
      <point x="217" y="681"/>
      <point x="186" y="681" type="curve" smooth="yes"/>
      <point x="154" y="681"/>
      <point x="129" y="656"/>
      <point x="129" y="624" type="curve" smooth="yes"/>
      <point x="129" y="593"/>
      <point x="155" y="567"/>
      <point x="186" y="567" type="curve" smooth="yes"/>
    </contour>
    <contour>
      <point x="534" y="73" type="line"/>
      <point x="529" y="71"/>
      <point x="489" y="59"/>
      <point x="487" y="59" type="curve" smooth="yes"/>
      <point x="468" y="59"/>
      <point x="465" y="73"/>
      <point x="465" y="97" type="curve" smooth="yes"/>
      <point x="465" y="497" type="line"/>
      <point x="369" y="497" type="line"/>
      <point x="370" y="492"/>
      <point x="382" y="440"/>
      <point x="382" y="438" type="curve" smooth="yes"/>
      <point x="382" y="188" type="line" smooth="yes"/>
      <point x="382" y="112"/>
      <point x="319" y="61"/>
      <point x="246" y="61" type="curve" smooth="yes"/>
      <point x="170" y="61"/>
      <point x="163" y="132"/>
      <point x="163" y="191" type="curve" smooth="yes"/>
      <point x="163" y="497" type="line"/>
      <point x="67" y="497" type="line"/>
      <point x="68" y="492"/>
      <point x="80" y="440"/>
      <point x="80" y="438" type="curve" smooth="yes"/>
      <point x="80" y="164" type="line" smooth="yes"/>
      <point x="80" y="61"/>
      <point x="122" y="-13"/>
      <point x="232" y="-13" type="curve" smooth="yes"/>
      <point x="289" y="-13"/>
      <point x="346" y="19"/>
      <point x="385" y="59" type="curve"/>
      <point x="391" y="21"/>
      <point x="414" y="-9"/>
      <point x="455" y="-9" type="curve" smooth="yes"/>
      <point x="487" y="-9"/>
      <point x="522" y="10"/>
      <point x="551" y="21" type="curve"/>
    </contour>
  </outline>
</glyph>
<glyph name="thorn" format="1">
  <advance width="557"/>
  <unicode hex="00FE"/>
  <outline>
    <contour>
      <point x="166" y="-212" type="line"/>
      <point x="166" y="43" type="line"/>
      <point x="199" y="8"/>
      <point x="244" y="-11"/>
      <point x="294" y="-11" type="curve" smooth="yes"/>
      <point x="432" y="-11"/>
      <point x="511" y="113"/>
      <point x="511" y="253" type="curve" smooth="yes"/>
      <point x="511" y="374"/>
      <point x="449" y="504"/>
      <point x="317" y="504" type="curve" smooth="yes"/>
      <point x="260" y="504"/>
      <point x="210" y="482"/>
      <point x="166" y="438" type="curve"/>
      <point x="166" y="762" type="line"/>
      <point x="70" y="762" type="line"/>
      <point x="71" y="757"/>
      <point x="84" y="706"/>
      <point x="84" y="704" type="curve" smooth="yes"/>
      <point x="84" y="-212" type="line"/>
    </contour>
    <contour>
      <point x="166" y="372" type="line"/>
      <point x="196" y="408"/>
      <point x="242" y="438"/>
      <point x="291" y="438" type="curve" smooth="yes"/>
      <point x="391" y="438"/>
      <point x="423" y="332"/>
      <point x="423" y="249" type="curve" smooth="yes"/>
      <point x="423" y="168"/>
      <point x="393" y="49"/>
      <point x="291" y="49" type="curve" smooth="yes"/>
      <point x="210" y="49"/>
      <point x="166" y="119"/>
      <point x="166" y="204" type="curve" smooth="yes"/>
    </contour>
  </outline>
</glyph>
<glyph name="ydieresis" format="1">
  <advance width="456"/>
  <unicode hex="00FF"/>
  <outline>
    <contour>
      <point x="375" y="660"/>
      <point x="350" y="685"/>
      <point x="318" y="685" type="curve" smooth="yes"/>
      <point x="287" y="685"/>
      <point x="262" y="659"/>
      <point x="262" y="628" type="curve" smooth="yes"/>
      <point x="262" y="597"/>
      <point x="287" y="571"/>
      <point x="318" y="571" type="curve" smooth="yes"/>
      <point x="349" y="571"/>
      <point x="375" y="597"/>
      <point x="375" y="628" type="curve" smooth="yes"/>
    </contour>
    <contour>
      <point x="212" y="660"/>
      <point x="187" y="685"/>
      <point x="155" y="685" type="curve" smooth="yes"/>
      <point x="124" y="685"/>
      <point x="98" y="659"/>
      <point x="98" y="628" type="curve" smooth="yes"/>
      <point x="98" y="597"/>
      <point x="124" y="571"/>
      <point x="155" y="571" type="curve" smooth="yes"/>
      <point x="186" y="571"/>
      <point x="212" y="597"/>
      <point x="212" y="628" type="curve" smooth="yes"/>
    </contour>
    <contour>
      <point x="76" y="-217" type="line"/>
      <point x="181" y="-217"/>
      <point x="238" y="-86"/>
      <point x="268" y="-2" type="curve" smooth="yes"/>
      <point x="444" y="497" type="line"/>
      <point x="366" y="497" type="line"/>
      <point x="234" y="119" type="line"/>
      <point x="102" y="497" type="line"/>
      <point x="12" y="497" type="line"/>
      <point x="194" y="4" type="line"/>
      <point x="170" y="-62"/>
      <point x="133" y="-150"/>
      <point x="49" y="-150" type="curve" smooth="yes"/>
      <point x="38" y="-150" type="line"/>
      <point x="38" y="-217" type="line"/>
    </contour>
  </outline>
</glyph>
<glyph name="dotlessi" format="1">
  <advance width="252"/>
  <unicode hex="0131"/>
  <outline>
    <contour>
      <point x="167" y="0" type="line"/>
      <point x="167" y="497" type="line"/>
      <point x="72" y="497" type="line"/>
      <point x="73" y="491"/>
      <point x="84" y="440"/>
      <point x="84" y="438" type="curve" smooth="yes"/>
      <point x="84" y="0" type="line"/>
    </contour>
  </outline>
</glyph>
<glyph name="Lslash" format="1">
  <advance width="493"/>
  <unicode hex="0141"/>
  <outline>
    <contour>
      <point x="485" y="0" type="line"/>
      <point x="485" y="69" type="line"/>
      <point x="179" y="69" type="line"/>
      <point x="179" y="320" type="line"/>
      <point x="385" y="416" type="line"/>
      <point x="385" y="485" type="line"/>
      <point x="179" y="389" type="line"/>
      <point x="179" y="728" type="line"/>
      <point x="72" y="728" type="line"/>
      <point x="73" y="722"/>
      <point x="86" y="664"/>
      <point x="86" y="662" type="curve" smooth="yes"/>
      <point x="86" y="346" type="line"/>
      <point x="8" y="310" type="line"/>
      <point x="8" y="241" type="line"/>
      <point x="86" y="277" type="line"/>
      <point x="86" y="0" type="line"/>
    </contour>
  </outline>
</glyph>
<glyph name="lslash" format="1">
  <advance width="247"/>
  <unicode hex="0142"/>
  <outline>
    <contour>
      <point x="165" y="0" type="line"/>
      <point x="165" y="337" type="line"/>
      <point x="236" y="370" type="line"/>
      <point x="236" y="439" type="line"/>
      <point x="165" y="406" type="line"/>
      <point x="165" y="761" type="line"/>
      <point x="69" y="761" type="line"/>
      <point x="70" y="756"/>
      <point x="82" y="705"/>
      <point x="82" y="703" type="curve" smooth="yes"/>
      <point x="82" y="367" type="line"/>
      <point x="11" y="334" type="line"/>
      <point x="11" y="265" type="line"/>
      <point x="82" y="298" type="line"/>
      <point x="82" y="0" type="line"/>
    </contour>
  </outline>
</glyph>
<glyph name="oe" format="1">
  <advance width="842"/>
  <unicode hex="0153"/>
  <outline>
    <contour>
      <point x="769" y="104" type="line"/>
      <point x="738" y="77"/>
      <point x="688" y="57"/>
      <point x="647" y="57" type="curve" smooth="yes"/>
      <point x="535" y="57"/>
      <point x="495" y="160"/>
      <point x="494" y="256" type="curve"/>
      <point x="761" y="256" type="line" smooth="yes"/>
      <point x="800" y="256"/>
      <point x="808" y="288"/>
      <point x="808" y="320" type="curve" smooth="yes"/>
      <point x="808" y="431"/>
      <point x="733" y="509"/>
      <point x="621" y="509" type="curve" smooth="yes"/>
      <point x="550" y="509"/>
      <point x="487" y="469"/>
      <point x="450" y="410" type="curve"/>
      <point x="410" y="474"/>
      <point x="345" y="509"/>
      <point x="269" y="509" type="curve" smooth="yes"/>
      <point x="124" y="509"/>
      <point x="44" y="382"/>
      <point x="44" y="248" type="curve" smooth="yes"/>
      <point x="44" y="113"/>
      <point x="122" y="-13"/>
      <point x="269" y="-13" type="curve" smooth="yes"/>
      <point x="344" y="-13"/>
      <point x="409" y="21"/>
      <point x="449" y="84" type="curve"/>
      <point x="490" y="21"/>
      <point x="562" y="-13"/>
      <point x="637" y="-13" type="curve" smooth="yes"/>
      <point x="699" y="-13"/>
      <point x="757" y="2"/>
      <point x="804" y="43" type="curve"/>
    </contour>
    <contour>
      <point x="501" y="318" type="line"/>
      <point x="511" y="380"/>
      <point x="562" y="446"/>
      <point x="629" y="446" type="curve" smooth="yes"/>
      <point x="693" y="446"/>
      <point x="727" y="396"/>
      <point x="727" y="336" type="curve" smooth="yes"/>
      <point x="727" y="318"/>
      <point x="718" y="318"/>
      <point x="703" y="318" type="curve" smooth="yes"/>
    </contour>
    <contour>
      <point x="171" y="50"/>
      <point x="130" y="167"/>
      <point x="130" y="248" type="curve" smooth="yes"/>
      <point x="130" y="333"/>
      <point x="166" y="446"/>
      <point x="269" y="446" type="curve" smooth="yes"/>
      <point x="371" y="446"/>
      <point x="407" y="332"/>
      <point x="407" y="248" type="curve" smooth="yes"/>
      <point x="407" y="162"/>
      <point x="373" y="50"/>
      <point x="269" y="50" type="curve" smooth="yes"/>
    </contour>
  </outline>
</glyph>
<glyph name="Scaron" format="1">
  <advance width="516"/>
  <unicode hex="0160"/>
  <outline>
    <contour>
      <point x="32" y="42" type="line"/>
      <point x="96" y="9"/>
      <point x="163" y="-12"/>
      <point x="235" y="-12" type="curve" smooth="yes"/>
      <point x="366" y="-12"/>
      <point x="485" y="52"/>
      <point x="485" y="190" type="curve" smooth="yes"/>
      <point x="485" y="403"/>
      <point x="152" y="367"/>
      <point x="152" y="508" type="curve" smooth="yes"/>
      <point x="152" y="576"/>
      <point x="208" y="608"/>
      <point x="279" y="608" type="curve" smooth="yes"/>
      <point x="331" y="608"/>
      <point x="380" y="588"/>
      <point x="422" y="558" type="curve"/>
      <point x="468" y="625" type="line"/>
      <point x="411" y="659"/>
      <point x="346" y="679"/>
      <point x="280" y="679" type="curve" smooth="yes"/>
      <point x="167" y="679"/>
      <point x="52" y="616"/>
      <point x="52" y="500" type="curve" smooth="yes"/>
      <point x="52" y="292"/>
      <point x="385" y="348"/>
      <point x="385" y="177" type="curve" smooth="yes"/>
      <point x="385" y="94"/>
      <point x="304" y="60"/>
      <point x="238" y="60" type="curve" smooth="yes"/>
      <point x="180" y="60"/>
      <point x="112" y="86"/>
      <point x="68" y="124" type="curve"/>
    </contour>
    <contour>
      <point x="306" y="697" type="line"/>
      <point x="409" y="873" type="line"/>
      <point x="341" y="873" type="line"/>
      <point x="264" y="770" type="line"/>
      <point x="187" y="873" type="line"/>
      <point x="118" y="873" type="line"/>
      <point x="222" y="697" type="line"/>
    </contour>
  </outline>
</glyph>
<glyph name="Ydieresis" format="1">
  <advance width="584"/>
  <unicode hex="0178"/>
  <outline>
    <contour>
      <point x="440" y="806"/>
      <point x="415" y="831"/>
      <point x="383" y="831" type="curve" smooth="yes"/>
      <point x="352" y="831"/>
      <point x="326" y="805"/>
      <point x="326" y="774" type="curve" smooth="yes"/>
      <point x="326" y="743"/>
      <point x="352" y="717"/>
      <point x="383" y="717" type="curve" smooth="yes"/>
      <point x="415" y="717"/>
      <point x="440" y="742"/>
      <point x="440" y="774" type="curve" smooth="yes"/>
    </contour>
    <contour>
      <point x="277" y="806"/>
      <point x="252" y="831"/>
      <point x="220" y="831" type="curve" smooth="yes"/>
      <point x="188" y="831"/>
      <point x="163" y="806"/>
      <point x="163" y="774" type="curve" smooth="yes"/>
      <point x="163" y="742"/>
      <point x="188" y="717"/>
      <point x="220" y="717" type="curve" smooth="yes"/>
      <point x="252" y="717"/>
      <point x="277" y="742"/>
      <point x="277" y="774" type="curve" smooth="yes"/>
    </contour>
    <contour>
      <point x="343" y="0" type="line"/>
      <point x="343" y="300" type="line"/>
      <point x="553" y="669" type="line"/>
      <point x="465" y="669" type="line"/>
      <point x="308" y="385" type="line"/>
      <point x="139" y="669" type="line"/>
      <point x="32" y="669" type="line"/>
      <point x="248" y="300" type="line"/>
      <point x="248" y="0" type="line"/>
    </contour>
  </outline>
</glyph>
<glyph name="Zcaron" format="1">
  <advance width="571"/>
  <unicode hex="017D"/>
  <outline>
    <contour>
      <point x="529" y="0" type="line"/>
      <point x="537" y="69" type="line"/>
      <point x="146" y="69" type="line"/>
      <point x="524" y="601" type="line"/>
      <point x="524" y="668" type="line"/>
      <point x="57" y="668" type="line"/>
      <point x="57" y="599" type="line"/>
      <point x="413" y="599" type="line"/>
      <point x="35" y="67" type="line"/>
      <point x="35" y="0" type="line"/>
    </contour>
    <contour>
      <point x="341" y="697" type="line"/>
      <point x="444" y="873" type="line"/>
      <point x="376" y="873" type="line"/>
      <point x="299" y="770" type="line"/>
      <point x="222" y="873" type="line"/>
      <point x="153" y="873" type="line"/>
      <point x="257" y="697" type="line"/>
    </contour>
  </outline>
</glyph>
<glyph name="florin" format="1">
  <advance width="297"/>
  <unicode hex="0192"/>
  <outline>
    <contour>
      <point x="-98" y="-217" type="line"/>
      <point x="-90" y="-219"/>
      <point x="-80" y="-219"/>
      <point x="-72" y="-219" type="curve" smooth="yes"/>
      <point x="37" y="-219"/>
      <point x="87" y="-127"/>
      <point x="106" y="-31" type="curve" smooth="yes"/>
      <point x="135" y="116"/>
      <point x="162" y="285"/>
      <point x="184" y="434" type="curve"/>
      <point x="317" y="434" type="line"/>
      <point x="335" y="497" type="line"/>
      <point x="193" y="497" type="line"/>
      <point x="201" y="541"/>
      <point x="228" y="674"/>
      <point x="292" y="674" type="curve" smooth="yes"/>
      <point x="320" y="674"/>
      <point x="355" y="663"/>
      <point x="374" y="641" type="curve"/>
      <point x="394" y="711" type="line"/>
      <point x="371" y="727"/>
      <point x="341" y="738"/>
      <point x="313" y="738" type="curve" smooth="yes"/>
      <point x="107" y="738"/>
      <point x="147" y="505"/>
      <point x="81" y="491" type="curve" smooth="yes"/>
      <point x="62" y="487"/>
      <point x="40" y="488"/>
      <point x="20" y="487" type="curve"/>
      <point x="20" y="434" type="line"/>
      <point x="98" y="434" type="line"/>
      <point x="12" y="-63" type="line" smooth="yes"/>
      <point x="4" y="-108"/>
      <point x="-24" y="-157"/>
      <point x="-75" y="-157" type="curve" smooth="yes"/>
      <point x="-81" y="-157" type="line"/>
    </contour>
  </outline>
</glyph>
<glyph name="circumflex" format="1">
  <advance width="275"/>
  <unicode hex="02C6"/>
  <outline>
    <contour>
      <point x="283" y="565" type="line"/>
      <point x="177" y="720" type="line"/>
      <point x="94" y="720" type="line"/>
      <point x="-8" y="566" type="line"/>
      <point x="59" y="566" type="line"/>
      <point x="135" y="647" type="line"/>
      <point x="214" y="565" type="line"/>
    </contour>
  </outline>
</glyph>
<glyph name="caron" format="1">
  <advance width="275"/>
  <unicode hex="02C7"/>
  <outline>
    <contour>
      <point x="180" y="547" type="line"/>
      <point x="283" y="723" type="line"/>
      <point x="215" y="723" type="line"/>
      <point x="138" y="620" type="line"/>
      <point x="61" y="723" type="line"/>
      <point x="-8" y="723" type="line"/>
      <point x="96" y="547" type="line"/>
    </contour>
  </outline>
</glyph>
<glyph name="breve" format="1">
  <advance width="276"/>
  <unicode hex="02D8"/>
  <outline>
    <contour>
      <point x="228" y="701" type="line"/>
      <point x="217" y="654"/>
      <point x="186" y="631"/>
      <point x="138" y="631" type="curve" smooth="yes"/>
      <point x="90" y="631"/>
      <point x="58" y="653"/>
      <point x="48" y="701" type="curve"/>
      <point x="-2" y="701" type="line"/>
      <point x="7" y="619"/>
      <point x="51" y="562"/>
      <point x="138" y="562" type="curve" smooth="yes"/>
      <point x="228" y="562"/>
      <point x="268" y="617"/>
      <point x="277" y="701" type="curve"/>
    </contour>
  </outline>
</glyph>
<glyph name="dotaccent" format="1">
  <advance width="285"/>
  <unicode hex="02D9"/>
  <outline>
    <contour>
      <point x="209" y="661"/>
      <point x="179" y="691"/>
      <point x="143" y="691" type="curve" smooth="yes"/>
      <point x="106" y="691"/>
      <point x="77" y="662"/>
      <point x="77" y="625" type="curve" smooth="yes"/>
      <point x="77" y="589"/>
      <point x="107" y="559"/>
      <point x="143" y="559" type="curve" smooth="yes"/>
      <point x="179" y="559"/>
      <point x="209" y="589"/>
      <point x="209" y="625" type="curve" smooth="yes"/>
    </contour>
  </outline>
</glyph>
<glyph name="ring" format="1">
  <advance width="281"/>
  <unicode hex="02DA"/>
  <outline>
    <contour>
      <point x="239" y="705"/>
      <point x="195" y="750"/>
      <point x="140" y="750" type="curve" smooth="yes"/>
      <point x="86" y="750"/>
      <point x="41" y="704"/>
      <point x="41" y="650" type="curve" smooth="yes"/>
      <point x="41" y="596"/>
      <point x="86" y="551"/>
      <point x="140" y="551" type="curve" smooth="yes"/>
      <point x="194" y="551"/>
      <point x="239" y="596"/>
      <point x="239" y="650" type="curve" smooth="yes"/>
    </contour>
    <contour>
      <point x="188" y="624"/>
      <point x="166" y="602"/>
      <point x="140" y="602" type="curve" smooth="yes"/>
      <point x="113" y="602"/>
      <point x="92" y="623"/>
      <point x="92" y="650" type="curve" smooth="yes"/>
      <point x="92" y="677"/>
      <point x="113" y="698"/>
      <point x="140" y="698" type="curve" smooth="yes"/>
      <point x="166" y="698"/>
      <point x="188" y="676"/>
      <point x="188" y="650" type="curve" smooth="yes"/>
    </contour>
  </outline>
</glyph>
<glyph name="tilde" format="1">
  <advance width="353"/>
  <unicode hex="02DC"/>
  <outline>
    <contour>
      <point x="286" y="672" type="line"/>
      <point x="281" y="657"/>
      <point x="266" y="646"/>
      <point x="250" y="646" type="curve" smooth="yes"/>
      <point x="210" y="646"/>
      <point x="163" y="685"/>
      <point x="110" y="685" type="curve" smooth="yes"/>
      <point x="55" y="685"/>
      <point x="22" y="634"/>
      <point x="16" y="585" type="curve"/>
      <point x="65" y="585" type="line"/>
      <point x="71" y="599"/>
      <point x="82" y="612"/>
      <point x="99" y="612" type="curve" smooth="yes"/>
      <point x="150" y="612"/>
      <point x="191" y="573"/>
      <point x="248" y="573" type="curve" smooth="yes"/>
      <point x="300" y="573"/>
      <point x="328" y="627"/>
      <point x="333" y="672" type="curve"/>
    </contour>
  </outline>
</glyph>
<glyph name="hungarumlaut" format="1">
  <advance width="405"/>
  <unicode hex="02DD"/>
  <outline>
    <contour>
      <point x="237" y="557" type="line"/>
      <point x="374" y="727" type="line"/>
      <point x="257" y="727" type="line"/>
      <point x="176" y="557" type="line"/>
    </contour>
    <contour>
      <point x="96" y="557" type="line"/>
      <point x="233" y="727" type="line"/>
      <point x="115" y="727" type="line"/>
      <point x="34" y="557" type="line"/>
    </contour>
  </outline>
</glyph>
<glyph name="pi" format="1">
  <advance width="669"/>
  <unicode hex="03C0"/>
  <outline>
    <contour>
      <point x="602" y="519" type="line"/>
      <point x="570" y="500"/>
      <point x="540" y="497"/>
      <point x="504" y="497" type="curve" smooth="yes"/>
      <point x="204" y="497" type="line" smooth="yes"/>
      <point x="107" y="497"/>
      <point x="47" y="442"/>
      <point x="42" y="362" type="curve"/>
      <point x="57" y="357"/>
      <point x="73" y="353"/>
      <point x="89" y="349" type="curve"/>
      <point x="100" y="395"/>
      <point x="138" y="425"/>
      <point x="186" y="429" type="curve"/>
      <point x="184" y="416"/>
      <point x="180" y="405"/>
      <point x="180" y="393" type="curve" smooth="yes"/>
      <point x="180" y="179" type="line" smooth="yes"/>
      <point x="180" y="109"/>
      <point x="147" y="45"/>
      <point x="89" y="13" type="curve"/>
      <point x="98" y="1"/>
      <point x="106" y="-12"/>
      <point x="114" y="-24" type="curve"/>
      <point x="260" y="27"/>
      <point x="269" y="199"/>
      <point x="269" y="338" type="curve" smooth="yes"/>
      <point x="269" y="429" type="line"/>
      <point x="439" y="429" type="line"/>
      <point x="398" y="349"/>
      <point x="383" y="262"/>
      <point x="383" y="171" type="curve" smooth="yes"/>
      <point x="383" y="93"/>
      <point x="410" y="-5"/>
      <point x="502" y="-5" type="curve" smooth="yes"/>
      <point x="538" y="-5"/>
      <point x="569" y="7"/>
      <point x="593" y="28" type="curve"/>
      <point x="585" y="43"/>
      <point x="578" y="59"/>
      <point x="570" y="75" type="curve"/>
      <point x="557" y="69"/>
      <point x="543" y="65"/>
      <point x="527" y="65" type="curve" smooth="yes"/>
      <point x="477" y="65"/>
      <point x="467" y="130"/>
      <point x="467" y="171" type="curve" smooth="yes"/>
      <point x="467" y="254"/>
      <point x="485" y="344"/>
      <point x="513" y="429" type="curve"/>
      <point x="557" y="431"/>
      <point x="600" y="444"/>
      <point x="627" y="478" type="curve"/>
    </contour>
  </outline>
</glyph>
<glyph name="endash" format="1">
  <advance width="502"/>
  <unicode hex="2013"/>
  <outline>
    <contour>
      <point x="493" y="230" type="line"/>
      <point x="493" y="292" type="line"/>
      <point x="8" y="292" type="line"/>
      <point x="8" y="230" type="line"/>
    </contour>
  </outline>
</glyph>
<glyph name="emdash" format="1">
  <advance width="852"/>
  <unicode hex="2014"/>
  <outline>
    <contour>
      <point x="843" y="230" type="line"/>
      <point x="843" y="291" type="line"/>
      <point x="8" y="291" type="line"/>
      <point x="8" y="230" type="line"/>
    </contour>
  </outline>
</glyph>
<glyph name="quoteleft" format="1">
  <advance width="286"/>
  <unicode hex="2018"/>
  <outline>
    <contour>
      <point x="119" y="694"/>
      <point x="71" y="636"/>
      <point x="71" y="567" type="curve" smooth="yes"/>
      <point x="71" y="522"/>
      <point x="99" y="482"/>
      <point x="147" y="482" type="curve" smooth="yes"/>
      <point x="181" y="482"/>
      <point x="208" y="508"/>
      <point x="208" y="542" type="curve" smooth="yes"/>
      <point x="208" y="592"/>
      <point x="158" y="601"/>
      <point x="158" y="628" type="curve" smooth="yes"/>
      <point x="158" y="654"/>
      <point x="190" y="681"/>
      <point x="207" y="699" type="curve"/>
      <point x="197" y="710"/>
      <point x="184" y="723"/>
      <point x="173" y="733" type="curve"/>
    </contour>
  </outline>
</glyph>
<glyph name="quotesinglbase" format="1">
  <advance width="276"/>
  <unicode hex="201A"/>
  <outline>
    <contour>
      <point x="80" y="-104"/>
      <point x="93" y="-117"/>
      <point x="104" y="-127" type="curve"/>
      <point x="158" y="-88"/>
      <point x="206" y="-30"/>
      <point x="206" y="39" type="curve" smooth="yes"/>
      <point x="206" y="84"/>
      <point x="179" y="124"/>
      <point x="131" y="124" type="curve" smooth="yes"/>
      <point x="97" y="124"/>
      <point x="69" y="98"/>
      <point x="69" y="64" type="curve" smooth="yes"/>
      <point x="69" y="14"/>
      <point x="119" y="5"/>
      <point x="119" y="-22" type="curve" smooth="yes"/>
      <point x="119" y="-48"/>
      <point x="87" y="-75"/>
      <point x="70" y="-93" type="curve"/>
    </contour>
  </outline>
</glyph>
<glyph name="quotedblleft" format="1">
  <advance width="487"/>
  <unicode hex="201C"/>
  <outline>
    <contour>
      <point x="314" y="694"/>
      <point x="266" y="636"/>
      <point x="266" y="567" type="curve" smooth="yes"/>
      <point x="266" y="522"/>
      <point x="294" y="482"/>
      <point x="342" y="482" type="curve" smooth="yes"/>
      <point x="376" y="482"/>
      <point x="403" y="508"/>
      <point x="403" y="542" type="curve" smooth="yes"/>
      <point x="403" y="592"/>
      <point x="353" y="601"/>
      <point x="353" y="628" type="curve" smooth="yes"/>
      <point x="353" y="654"/>
      <point x="385" y="681"/>
      <point x="402" y="699" type="curve"/>
      <point x="392" y="710"/>
      <point x="379" y="723"/>
      <point x="368" y="733" type="curve"/>
    </contour>
    <contour>
      <point x="119" y="694"/>
      <point x="71" y="636"/>
      <point x="71" y="567" type="curve" smooth="yes"/>
      <point x="71" y="522"/>
      <point x="99" y="482"/>
      <point x="147" y="482" type="curve" smooth="yes"/>
      <point x="181" y="482"/>
      <point x="208" y="508"/>
      <point x="208" y="542" type="curve" smooth="yes"/>
      <point x="208" y="592"/>
      <point x="158" y="601"/>
      <point x="158" y="628" type="curve" smooth="yes"/>
      <point x="158" y="654"/>
      <point x="190" y="681"/>
      <point x="207" y="699" type="curve"/>
      <point x="197" y="710"/>
      <point x="184" y="723"/>
      <point x="173" y="733" type="curve"/>
    </contour>
  </outline>
</glyph>
<glyph name="quotedblbase" format="1">
  <advance width="477"/>
  <unicode hex="201E"/>
  <outline>
    <contour>
      <point x="275" y="-104"/>
      <point x="288" y="-117"/>
      <point x="299" y="-127" type="curve"/>
      <point x="353" y="-88"/>
      <point x="401" y="-30"/>
      <point x="401" y="39" type="curve" smooth="yes"/>
      <point x="401" y="84"/>
      <point x="374" y="124"/>
      <point x="326" y="124" type="curve" smooth="yes"/>
      <point x="292" y="124"/>
      <point x="264" y="98"/>
      <point x="264" y="64" type="curve" smooth="yes"/>
      <point x="264" y="14"/>
      <point x="314" y="5"/>
      <point x="314" y="-22" type="curve" smooth="yes"/>
      <point x="314" y="-48"/>
      <point x="282" y="-75"/>
      <point x="265" y="-93" type="curve"/>
    </contour>
    <contour>
      <point x="86" y="-104"/>
      <point x="99" y="-117"/>
      <point x="110" y="-127" type="curve"/>
      <point x="164" y="-88"/>
      <point x="212" y="-30"/>
      <point x="212" y="39" type="curve" smooth="yes"/>
      <point x="212" y="84"/>
      <point x="185" y="124"/>
      <point x="137" y="124" type="curve" smooth="yes"/>
      <point x="103" y="124"/>
      <point x="75" y="98"/>
      <point x="75" y="64" type="curve" smooth="yes"/>
      <point x="75" y="14"/>
      <point x="125" y="5"/>
      <point x="125" y="-22" type="curve" smooth="yes"/>
      <point x="125" y="-48"/>
      <point x="93" y="-75"/>
      <point x="76" y="-93" type="curve"/>
    </contour>
  </outline>
</glyph>
<glyph name="dagger" format="1">
  <advance width="523"/>
  <unicode hex="2020"/>
  <outline>
    <contour>
      <point x="291" y="-138" type="line"/>
      <point x="307" y="160" type="line" smooth="yes"/>
      <point x="310" y="218"/>
      <point x="315" y="251"/>
      <point x="315" y="309" type="curve" smooth="yes"/>
      <point x="315" y="332"/>
      <point x="294" y="433"/>
      <point x="289" y="462" type="curve"/>
      <point x="418" y="440" type="line"/>
      <point x="482" y="481" type="line"/>
      <point x="418" y="529" type="line"/>
      <point x="289" y="504" type="line"/>
      <point x="316" y="658" type="line"/>
      <point x="264" y="740" type="line"/>
      <point x="217" y="658" type="line"/>
      <point x="243" y="504" type="line"/>
      <point x="117" y="529" type="line"/>
      <point x="51" y="485" type="line"/>
      <point x="117" y="440" type="line"/>
      <point x="243" y="462" type="line"/>
      <point x="238" y="432"/>
      <point x="218" y="334"/>
      <point x="218" y="309" type="curve" smooth="yes"/>
      <point x="218" y="251"/>
      <point x="224" y="218"/>
      <point x="227" y="160" type="curve" smooth="yes"/>
      <point x="245" y="-138" type="line"/>
    </contour>
  </outline>
</glyph>
<glyph name="bullet" format="1">
  <advance width="441"/>
  <unicode hex="2022"/>
  <outline>
    <contour>
      <point x="310" y="196"/>
      <point x="381" y="268"/>
      <point x="381" y="357" type="curve" smooth="yes"/>
      <point x="381" y="446"/>
      <point x="310" y="518"/>
      <point x="221" y="518" type="curve" smooth="yes"/>
      <point x="132" y="518"/>
      <point x="60" y="446"/>
      <point x="60" y="357" type="curve" smooth="yes"/>
      <point x="60" y="268"/>
      <point x="132" y="196"/>
      <point x="221" y="196" type="curve" smooth="yes"/>
    </contour>
  </outline>
</glyph>
<glyph name="perthousand" format="1">
  <advance width="1148"/>
  <unicode hex="2030"/>
  <outline>
    <contour>
      <point x="1046" y="-5"/>
      <point x="1102" y="100"/>
      <point x="1102" y="192" type="curve" smooth="yes"/>
      <point x="1102" y="287"/>
      <point x="1044" y="385"/>
      <point x="939" y="385" type="curve" smooth="yes"/>
      <point x="827" y="385"/>
      <point x="774" y="294"/>
      <point x="774" y="192" type="curve" smooth="yes"/>
      <point x="774" y="93"/>
      <point x="835" y="-5"/>
      <point x="943" y="-5" type="curve" smooth="yes"/>
    </contour>
    <contour>
      <point x="695" y="-5"/>
      <point x="751" y="101"/>
      <point x="751" y="192" type="curve" smooth="yes"/>
      <point x="751" y="288"/>
      <point x="693" y="385"/>
      <point x="588" y="385" type="curve" smooth="yes"/>
      <point x="477" y="385"/>
      <point x="424" y="294"/>
      <point x="424" y="192" type="curve" smooth="yes"/>
      <point x="424" y="92"/>
      <point x="485" y="-5"/>
      <point x="593" y="-5" type="curve" smooth="yes"/>
    </contour>
    <contour>
      <point x="247" y="-13" type="line"/>
      <point x="602" y="713" type="line"/>
      <point x="210" y="713" type="line" smooth="yes"/>
      <point x="99" y="713"/>
      <point x="46" y="622"/>
      <point x="46" y="521" type="curve" smooth="yes"/>
      <point x="46" y="422"/>
      <point x="107" y="324"/>
      <point x="215" y="324" type="curve" smooth="yes"/>
      <point x="317" y="324"/>
      <point x="374" y="430"/>
      <point x="374" y="521" type="curve" smooth="yes"/>
      <point x="374" y="570"/>
      <point x="359" y="619"/>
      <point x="328" y="657" type="curve"/>
      <point x="511" y="657" type="line"/>
      <point x="183" y="-13" type="line"/>
    </contour>
    <contour>
      <point x="877" y="54"/>
      <point x="849" y="136"/>
      <point x="849" y="188" type="curve" smooth="yes"/>
      <point x="849" y="239"/>
      <point x="876" y="328"/>
      <point x="940" y="328" type="curve" smooth="yes"/>
      <point x="1004" y="328"/>
      <point x="1025" y="239"/>
      <point x="1025" y="190" type="curve" smooth="yes"/>
      <point x="1025" y="140"/>
      <point x="1005" y="54"/>
      <point x="941" y="54" type="curve" smooth="yes"/>
    </contour>
    <contour>
      <point x="527" y="54"/>
      <point x="499" y="136"/>
      <point x="499" y="188" type="curve" smooth="yes"/>
      <point x="499" y="238"/>
      <point x="526" y="328"/>
      <point x="589" y="328" type="curve" smooth="yes"/>
      <point x="653" y="328"/>
      <point x="674" y="239"/>
      <point x="674" y="190" type="curve" smooth="yes"/>
      <point x="674" y="141"/>
      <point x="655" y="54"/>
      <point x="591" y="54" type="curve" smooth="yes"/>
    </contour>
    <contour>
      <point x="149" y="383"/>
      <point x="121" y="465"/>
      <point x="121" y="517" type="curve" smooth="yes"/>
      <point x="121" y="567"/>
      <point x="148" y="657"/>
      <point x="211" y="657" type="curve" smooth="yes"/>
      <point x="276" y="657"/>
      <point x="297" y="569"/>
      <point x="297" y="519" type="curve" smooth="yes"/>
      <point x="297" y="470"/>
      <point x="277" y="383"/>
      <point x="213" y="383" type="curve" smooth="yes"/>
    </contour>
  </outline>
</glyph>
<glyph name="guilsinglleft" format="1">
  <advance width="298"/>
  <unicode hex="2039"/>
  <outline>
    <contour>
      <point x="253" y="179" type="line"/>
      <point x="135" y="333" type="line"/>
      <point x="251" y="485" type="line"/>
      <point x="190" y="497" type="line"/>
      <point x="45" y="333" type="line"/>
      <point x="194" y="171" type="line"/>
    </contour>
  </outline>
</glyph>
<glyph name="guilsinglright" format="1">
  <advance width="329"/>
  <unicode hex="203A"/>
  <outline>
    <contour>
      <point x="120" y="169" type="line"/>
      <point x="268" y="331" type="line"/>
      <point x="124" y="495" type="line"/>
      <point x="63" y="483" type="line"/>
      <point x="179" y="331" type="line"/>
      <point x="60" y="177" type="line"/>
    </contour>
  </outline>
</glyph>
